<?xml version="1.0" encoding="utf-8" standalone="no"?>
<!DOCTYPE svg PUBLIC "-//W3C//DTD SVG 1.1//EN"
  "http://www.w3.org/Graphics/SVG/1.1/DTD/svg11.dtd">
<svg xmlns:xlink="http://www.w3.org/1999/xlink" width="460.8pt" height="345.6pt" viewBox="0 0 460.8 345.6" xmlns="http://www.w3.org/2000/svg" version="1.1">
 <metadata>
  <rdf:RDF xmlns:dc="http://purl.org/dc/elements/1.1/" xmlns:cc="http://creativecommons.org/ns#" xmlns:rdf="http://www.w3.org/1999/02/22-rdf-syntax-ns#">
   <cc:Work>
    <dc:type rdf:resource="http://purl.org/dc/dcmitype/StillImage"/>
    <dc:date>2024-04-05T14:59:24.353788</dc:date>
    <dc:format>image/svg+xml</dc:format>
    <dc:creator>
     <cc:Agent>
      <dc:title>Matplotlib v3.8.3, https://matplotlib.org/</dc:title>
     </cc:Agent>
    </dc:creator>
   </cc:Work>
  </rdf:RDF>
 </metadata>
 <defs>
  <style type="text/css">*{stroke-linejoin: round; stroke-linecap: butt}</style>
 </defs>
 <g id="figure_1">
  <g id="axes_1">
   <g id="patch_1">
    <path d="M 57.6 307.584 
L 414.72 307.584 
L 414.72 41.472 
L 57.6 41.472 
z
" style="fill: #ffffff"/>
   </g>
   <g id="matplotlib.axis_1">
    <g id="xtick_1">
     <g id="line2d_1">
      <path d="M 57.6 307.584 
L 57.6 41.472 
" clip-path="url(#p06f0a38559)" style="fill: none; stroke-dasharray: 2.96,1.28; stroke-dashoffset: 0; stroke: #b0b0b0; stroke-width: 0.8"/>
     </g>
     <g id="line2d_2">
      <defs>
       <path id="m1853b4e9c9" d="M 0 0 
L 0 3.5 
" style="stroke: #000000; stroke-width: 0.8"/>
      </defs>
      <g>
       <use xlink:href="#m1853b4e9c9" x="57.6" y="307.584" style="stroke: #000000; stroke-width: 0.8"/>
      </g>
     </g>
     <g id="line2d_3">
      <defs>
       <path id="m82bc21b501" d="M 0 0 
L 0 -3.5 
" style="stroke: #000000; stroke-width: 0.8"/>
      </defs>
      <g>
       <use xlink:href="#m82bc21b501" x="57.6" y="41.472" style="stroke: #000000; stroke-width: 0.8"/>
      </g>
     </g>
     <g id="text_1">
      <!-- 0.0 -->
      <g transform="translate(49.648438 322.182437) scale(0.1 -0.1)">
       <defs>
        <path id="DejaVuSans-30" d="M 2034 4250 
Q 1547 4250 1301 3770 
Q 1056 3291 1056 2328 
Q 1056 1369 1301 889 
Q 1547 409 2034 409 
Q 2525 409 2770 889 
Q 3016 1369 3016 2328 
Q 3016 3291 2770 3770 
Q 2525 4250 2034 4250 
z
M 2034 4750 
Q 2819 4750 3233 4129 
Q 3647 3509 3647 2328 
Q 3647 1150 3233 529 
Q 2819 -91 2034 -91 
Q 1250 -91 836 529 
Q 422 1150 422 2328 
Q 422 3509 836 4129 
Q 1250 4750 2034 4750 
z
" transform="scale(0.015625)"/>
        <path id="DejaVuSans-2e" d="M 684 794 
L 1344 794 
L 1344 0 
L 684 0 
L 684 794 
z
" transform="scale(0.015625)"/>
       </defs>
       <use xlink:href="#DejaVuSans-30"/>
       <use xlink:href="#DejaVuSans-2e" x="63.623047"/>
       <use xlink:href="#DejaVuSans-30" x="95.410156"/>
      </g>
     </g>
    </g>
    <g id="xtick_2">
     <g id="line2d_4">
      <path d="M 103.68 307.584 
L 103.68 41.472 
" clip-path="url(#p06f0a38559)" style="fill: none; stroke-dasharray: 2.96,1.28; stroke-dashoffset: 0; stroke: #b0b0b0; stroke-width: 0.8"/>
     </g>
     <g id="line2d_5">
      <g>
       <use xlink:href="#m1853b4e9c9" x="103.68" y="307.584" style="stroke: #000000; stroke-width: 0.8"/>
      </g>
     </g>
     <g id="line2d_6">
      <g>
       <use xlink:href="#m82bc21b501" x="103.68" y="41.472" style="stroke: #000000; stroke-width: 0.8"/>
      </g>
     </g>
     <g id="text_2">
      <!-- 0.2 -->
      <g transform="translate(95.728438 322.182437) scale(0.1 -0.1)">
       <defs>
        <path id="DejaVuSans-32" d="M 1228 531 
L 3431 531 
L 3431 0 
L 469 0 
L 469 531 
Q 828 903 1448 1529 
Q 2069 2156 2228 2338 
Q 2531 2678 2651 2914 
Q 2772 3150 2772 3378 
Q 2772 3750 2511 3984 
Q 2250 4219 1831 4219 
Q 1534 4219 1204 4116 
Q 875 4013 500 3803 
L 500 4441 
Q 881 4594 1212 4672 
Q 1544 4750 1819 4750 
Q 2544 4750 2975 4387 
Q 3406 4025 3406 3419 
Q 3406 3131 3298 2873 
Q 3191 2616 2906 2266 
Q 2828 2175 2409 1742 
Q 1991 1309 1228 531 
z
" transform="scale(0.015625)"/>
       </defs>
       <use xlink:href="#DejaVuSans-30"/>
       <use xlink:href="#DejaVuSans-2e" x="63.623047"/>
       <use xlink:href="#DejaVuSans-32" x="95.410156"/>
      </g>
     </g>
    </g>
    <g id="xtick_3">
     <g id="line2d_7">
      <path d="M 149.76 307.584 
L 149.76 41.472 
" clip-path="url(#p06f0a38559)" style="fill: none; stroke-dasharray: 2.96,1.28; stroke-dashoffset: 0; stroke: #b0b0b0; stroke-width: 0.8"/>
     </g>
     <g id="line2d_8">
      <g>
       <use xlink:href="#m1853b4e9c9" x="149.76" y="307.584" style="stroke: #000000; stroke-width: 0.8"/>
      </g>
     </g>
     <g id="line2d_9">
      <g>
       <use xlink:href="#m82bc21b501" x="149.76" y="41.472" style="stroke: #000000; stroke-width: 0.8"/>
      </g>
     </g>
     <g id="text_3">
      <!-- 0.4 -->
      <g transform="translate(141.808438 322.182437) scale(0.1 -0.1)">
       <defs>
        <path id="DejaVuSans-34" d="M 2419 4116 
L 825 1625 
L 2419 1625 
L 2419 4116 
z
M 2253 4666 
L 3047 4666 
L 3047 1625 
L 3713 1625 
L 3713 1100 
L 3047 1100 
L 3047 0 
L 2419 0 
L 2419 1100 
L 313 1100 
L 313 1709 
L 2253 4666 
z
" transform="scale(0.015625)"/>
       </defs>
       <use xlink:href="#DejaVuSans-30"/>
       <use xlink:href="#DejaVuSans-2e" x="63.623047"/>
       <use xlink:href="#DejaVuSans-34" x="95.410156"/>
      </g>
     </g>
    </g>
    <g id="xtick_4">
     <g id="line2d_10">
      <path d="M 195.84 307.584 
L 195.84 41.472 
" clip-path="url(#p06f0a38559)" style="fill: none; stroke-dasharray: 2.96,1.28; stroke-dashoffset: 0; stroke: #b0b0b0; stroke-width: 0.8"/>
     </g>
     <g id="line2d_11">
      <g>
       <use xlink:href="#m1853b4e9c9" x="195.84" y="307.584" style="stroke: #000000; stroke-width: 0.8"/>
      </g>
     </g>
     <g id="line2d_12">
      <g>
       <use xlink:href="#m82bc21b501" x="195.84" y="41.472" style="stroke: #000000; stroke-width: 0.8"/>
      </g>
     </g>
     <g id="text_4">
      <!-- 0.6 -->
      <g transform="translate(187.888438 322.182437) scale(0.1 -0.1)">
       <defs>
        <path id="DejaVuSans-36" d="M 2113 2584 
Q 1688 2584 1439 2293 
Q 1191 2003 1191 1497 
Q 1191 994 1439 701 
Q 1688 409 2113 409 
Q 2538 409 2786 701 
Q 3034 994 3034 1497 
Q 3034 2003 2786 2293 
Q 2538 2584 2113 2584 
z
M 3366 4563 
L 3366 3988 
Q 3128 4100 2886 4159 
Q 2644 4219 2406 4219 
Q 1781 4219 1451 3797 
Q 1122 3375 1075 2522 
Q 1259 2794 1537 2939 
Q 1816 3084 2150 3084 
Q 2853 3084 3261 2657 
Q 3669 2231 3669 1497 
Q 3669 778 3244 343 
Q 2819 -91 2113 -91 
Q 1303 -91 875 529 
Q 447 1150 447 2328 
Q 447 3434 972 4092 
Q 1497 4750 2381 4750 
Q 2619 4750 2861 4703 
Q 3103 4656 3366 4563 
z
" transform="scale(0.015625)"/>
       </defs>
       <use xlink:href="#DejaVuSans-30"/>
       <use xlink:href="#DejaVuSans-2e" x="63.623047"/>
       <use xlink:href="#DejaVuSans-36" x="95.410156"/>
      </g>
     </g>
    </g>
    <g id="xtick_5">
     <g id="line2d_13">
      <path d="M 241.92 307.584 
L 241.92 41.472 
" clip-path="url(#p06f0a38559)" style="fill: none; stroke-dasharray: 2.96,1.28; stroke-dashoffset: 0; stroke: #b0b0b0; stroke-width: 0.8"/>
     </g>
     <g id="line2d_14">
      <g>
       <use xlink:href="#m1853b4e9c9" x="241.92" y="307.584" style="stroke: #000000; stroke-width: 0.8"/>
      </g>
     </g>
     <g id="line2d_15">
      <g>
       <use xlink:href="#m82bc21b501" x="241.92" y="41.472" style="stroke: #000000; stroke-width: 0.8"/>
      </g>
     </g>
     <g id="text_5">
      <!-- 0.8 -->
      <g transform="translate(233.968438 322.182437) scale(0.1 -0.1)">
       <defs>
        <path id="DejaVuSans-38" d="M 2034 2216 
Q 1584 2216 1326 1975 
Q 1069 1734 1069 1313 
Q 1069 891 1326 650 
Q 1584 409 2034 409 
Q 2484 409 2743 651 
Q 3003 894 3003 1313 
Q 3003 1734 2745 1975 
Q 2488 2216 2034 2216 
z
M 1403 2484 
Q 997 2584 770 2862 
Q 544 3141 544 3541 
Q 544 4100 942 4425 
Q 1341 4750 2034 4750 
Q 2731 4750 3128 4425 
Q 3525 4100 3525 3541 
Q 3525 3141 3298 2862 
Q 3072 2584 2669 2484 
Q 3125 2378 3379 2068 
Q 3634 1759 3634 1313 
Q 3634 634 3220 271 
Q 2806 -91 2034 -91 
Q 1263 -91 848 271 
Q 434 634 434 1313 
Q 434 1759 690 2068 
Q 947 2378 1403 2484 
z
M 1172 3481 
Q 1172 3119 1398 2916 
Q 1625 2713 2034 2713 
Q 2441 2713 2670 2916 
Q 2900 3119 2900 3481 
Q 2900 3844 2670 4047 
Q 2441 4250 2034 4250 
Q 1625 4250 1398 4047 
Q 1172 3844 1172 3481 
z
" transform="scale(0.015625)"/>
       </defs>
       <use xlink:href="#DejaVuSans-30"/>
       <use xlink:href="#DejaVuSans-2e" x="63.623047"/>
       <use xlink:href="#DejaVuSans-38" x="95.410156"/>
      </g>
     </g>
    </g>
    <g id="xtick_6">
     <g id="line2d_16">
      <path d="M 288 307.584 
L 288 41.472 
" clip-path="url(#p06f0a38559)" style="fill: none; stroke-dasharray: 2.96,1.28; stroke-dashoffset: 0; stroke: #b0b0b0; stroke-width: 0.8"/>
     </g>
     <g id="line2d_17">
      <g>
       <use xlink:href="#m1853b4e9c9" x="288" y="307.584" style="stroke: #000000; stroke-width: 0.8"/>
      </g>
     </g>
     <g id="line2d_18">
      <g>
       <use xlink:href="#m82bc21b501" x="288" y="41.472" style="stroke: #000000; stroke-width: 0.8"/>
      </g>
     </g>
     <g id="text_6">
      <!-- 1.0 -->
      <g transform="translate(280.048437 322.182437) scale(0.1 -0.1)">
       <defs>
        <path id="DejaVuSans-31" d="M 794 531 
L 1825 531 
L 1825 4091 
L 703 3866 
L 703 4441 
L 1819 4666 
L 2450 4666 
L 2450 531 
L 3481 531 
L 3481 0 
L 794 0 
L 794 531 
z
" transform="scale(0.015625)"/>
       </defs>
       <use xlink:href="#DejaVuSans-31"/>
       <use xlink:href="#DejaVuSans-2e" x="63.623047"/>
       <use xlink:href="#DejaVuSans-30" x="95.410156"/>
      </g>
     </g>
    </g>
    <g id="xtick_7">
     <g id="line2d_19">
      <path d="M 334.08 307.584 
L 334.08 41.472 
" clip-path="url(#p06f0a38559)" style="fill: none; stroke-dasharray: 2.96,1.28; stroke-dashoffset: 0; stroke: #b0b0b0; stroke-width: 0.8"/>
     </g>
     <g id="line2d_20">
      <g>
       <use xlink:href="#m1853b4e9c9" x="334.08" y="307.584" style="stroke: #000000; stroke-width: 0.8"/>
      </g>
     </g>
     <g id="line2d_21">
      <g>
       <use xlink:href="#m82bc21b501" x="334.08" y="41.472" style="stroke: #000000; stroke-width: 0.8"/>
      </g>
     </g>
     <g id="text_7">
      <!-- 1.2 -->
      <g transform="translate(326.128438 322.182437) scale(0.1 -0.1)">
       <use xlink:href="#DejaVuSans-31"/>
       <use xlink:href="#DejaVuSans-2e" x="63.623047"/>
       <use xlink:href="#DejaVuSans-32" x="95.410156"/>
      </g>
     </g>
    </g>
    <g id="xtick_8">
     <g id="line2d_22">
      <path d="M 380.16 307.584 
L 380.16 41.472 
" clip-path="url(#p06f0a38559)" style="fill: none; stroke-dasharray: 2.96,1.28; stroke-dashoffset: 0; stroke: #b0b0b0; stroke-width: 0.8"/>
     </g>
     <g id="line2d_23">
      <g>
       <use xlink:href="#m1853b4e9c9" x="380.16" y="307.584" style="stroke: #000000; stroke-width: 0.8"/>
      </g>
     </g>
     <g id="line2d_24">
      <g>
       <use xlink:href="#m82bc21b501" x="380.16" y="41.472" style="stroke: #000000; stroke-width: 0.8"/>
      </g>
     </g>
     <g id="text_8">
      <!-- 1.4 -->
      <g transform="translate(372.208438 322.182437) scale(0.1 -0.1)">
       <use xlink:href="#DejaVuSans-31"/>
       <use xlink:href="#DejaVuSans-2e" x="63.623047"/>
       <use xlink:href="#DejaVuSans-34" x="95.410156"/>
      </g>
     </g>
    </g>
    <g id="xtick_9">
     <g id="line2d_25">
      <path d="M 69.12 307.584 
L 69.12 41.472 
" clip-path="url(#p06f0a38559)" style="fill: none; stroke-dasharray: 0.8,1.32; stroke-dashoffset: 0; stroke: #b0b0b0; stroke-width: 0.8"/>
     </g>
     <g id="line2d_26">
      <defs>
       <path id="m41182486e7" d="M 0 0 
L 0 3 
" style="stroke: #000000; stroke-width: 0.5"/>
      </defs>
      <g>
       <use xlink:href="#m41182486e7" x="69.12" y="307.584" style="stroke: #000000; stroke-width: 0.5"/>
      </g>
     </g>
     <g id="line2d_27">
      <defs>
       <path id="mf7ba446760" d="M 0 0 
L 0 -3 
" style="stroke: #000000; stroke-width: 0.5"/>
      </defs>
      <g>
       <use xlink:href="#mf7ba446760" x="69.12" y="41.472" style="stroke: #000000; stroke-width: 0.5"/>
      </g>
     </g>
    </g>
    <g id="xtick_10">
     <g id="line2d_28">
      <path d="M 80.64 307.584 
L 80.64 41.472 
" clip-path="url(#p06f0a38559)" style="fill: none; stroke-dasharray: 0.8,1.32; stroke-dashoffset: 0; stroke: #b0b0b0; stroke-width: 0.8"/>
     </g>
     <g id="line2d_29">
      <g>
       <use xlink:href="#m41182486e7" x="80.64" y="307.584" style="stroke: #000000; stroke-width: 0.5"/>
      </g>
     </g>
     <g id="line2d_30">
      <g>
       <use xlink:href="#mf7ba446760" x="80.64" y="41.472" style="stroke: #000000; stroke-width: 0.5"/>
      </g>
     </g>
    </g>
    <g id="xtick_11">
     <g id="line2d_31">
      <path d="M 92.16 307.584 
L 92.16 41.472 
" clip-path="url(#p06f0a38559)" style="fill: none; stroke-dasharray: 0.8,1.32; stroke-dashoffset: 0; stroke: #b0b0b0; stroke-width: 0.8"/>
     </g>
     <g id="line2d_32">
      <g>
       <use xlink:href="#m41182486e7" x="92.16" y="307.584" style="stroke: #000000; stroke-width: 0.5"/>
      </g>
     </g>
     <g id="line2d_33">
      <g>
       <use xlink:href="#mf7ba446760" x="92.16" y="41.472" style="stroke: #000000; stroke-width: 0.5"/>
      </g>
     </g>
    </g>
    <g id="xtick_12">
     <g id="line2d_34">
      <path d="M 115.2 307.584 
L 115.2 41.472 
" clip-path="url(#p06f0a38559)" style="fill: none; stroke-dasharray: 0.8,1.32; stroke-dashoffset: 0; stroke: #b0b0b0; stroke-width: 0.8"/>
     </g>
     <g id="line2d_35">
      <g>
       <use xlink:href="#m41182486e7" x="115.2" y="307.584" style="stroke: #000000; stroke-width: 0.5"/>
      </g>
     </g>
     <g id="line2d_36">
      <g>
       <use xlink:href="#mf7ba446760" x="115.2" y="41.472" style="stroke: #000000; stroke-width: 0.5"/>
      </g>
     </g>
    </g>
    <g id="xtick_13">
     <g id="line2d_37">
      <path d="M 126.72 307.584 
L 126.72 41.472 
" clip-path="url(#p06f0a38559)" style="fill: none; stroke-dasharray: 0.8,1.32; stroke-dashoffset: 0; stroke: #b0b0b0; stroke-width: 0.8"/>
     </g>
     <g id="line2d_38">
      <g>
       <use xlink:href="#m41182486e7" x="126.72" y="307.584" style="stroke: #000000; stroke-width: 0.5"/>
      </g>
     </g>
     <g id="line2d_39">
      <g>
       <use xlink:href="#mf7ba446760" x="126.72" y="41.472" style="stroke: #000000; stroke-width: 0.5"/>
      </g>
     </g>
    </g>
    <g id="xtick_14">
     <g id="line2d_40">
      <path d="M 138.24 307.584 
L 138.24 41.472 
" clip-path="url(#p06f0a38559)" style="fill: none; stroke-dasharray: 0.8,1.32; stroke-dashoffset: 0; stroke: #b0b0b0; stroke-width: 0.8"/>
     </g>
     <g id="line2d_41">
      <g>
       <use xlink:href="#m41182486e7" x="138.24" y="307.584" style="stroke: #000000; stroke-width: 0.5"/>
      </g>
     </g>
     <g id="line2d_42">
      <g>
       <use xlink:href="#mf7ba446760" x="138.24" y="41.472" style="stroke: #000000; stroke-width: 0.5"/>
      </g>
     </g>
    </g>
    <g id="xtick_15">
     <g id="line2d_43">
      <path d="M 161.28 307.584 
L 161.28 41.472 
" clip-path="url(#p06f0a38559)" style="fill: none; stroke-dasharray: 0.8,1.32; stroke-dashoffset: 0; stroke: #b0b0b0; stroke-width: 0.8"/>
     </g>
     <g id="line2d_44">
      <g>
       <use xlink:href="#m41182486e7" x="161.28" y="307.584" style="stroke: #000000; stroke-width: 0.5"/>
      </g>
     </g>
     <g id="line2d_45">
      <g>
       <use xlink:href="#mf7ba446760" x="161.28" y="41.472" style="stroke: #000000; stroke-width: 0.5"/>
      </g>
     </g>
    </g>
    <g id="xtick_16">
     <g id="line2d_46">
      <path d="M 172.8 307.584 
L 172.8 41.472 
" clip-path="url(#p06f0a38559)" style="fill: none; stroke-dasharray: 0.8,1.32; stroke-dashoffset: 0; stroke: #b0b0b0; stroke-width: 0.8"/>
     </g>
     <g id="line2d_47">
      <g>
       <use xlink:href="#m41182486e7" x="172.8" y="307.584" style="stroke: #000000; stroke-width: 0.5"/>
      </g>
     </g>
     <g id="line2d_48">
      <g>
       <use xlink:href="#mf7ba446760" x="172.8" y="41.472" style="stroke: #000000; stroke-width: 0.5"/>
      </g>
     </g>
    </g>
    <g id="xtick_17">
     <g id="line2d_49">
      <path d="M 184.32 307.584 
L 184.32 41.472 
" clip-path="url(#p06f0a38559)" style="fill: none; stroke-dasharray: 0.8,1.32; stroke-dashoffset: 0; stroke: #b0b0b0; stroke-width: 0.8"/>
     </g>
     <g id="line2d_50">
      <g>
       <use xlink:href="#m41182486e7" x="184.32" y="307.584" style="stroke: #000000; stroke-width: 0.5"/>
      </g>
     </g>
     <g id="line2d_51">
      <g>
       <use xlink:href="#mf7ba446760" x="184.32" y="41.472" style="stroke: #000000; stroke-width: 0.5"/>
      </g>
     </g>
    </g>
    <g id="xtick_18">
     <g id="line2d_52">
      <path d="M 207.36 307.584 
L 207.36 41.472 
" clip-path="url(#p06f0a38559)" style="fill: none; stroke-dasharray: 0.8,1.32; stroke-dashoffset: 0; stroke: #b0b0b0; stroke-width: 0.8"/>
     </g>
     <g id="line2d_53">
      <g>
       <use xlink:href="#m41182486e7" x="207.36" y="307.584" style="stroke: #000000; stroke-width: 0.5"/>
      </g>
     </g>
     <g id="line2d_54">
      <g>
       <use xlink:href="#mf7ba446760" x="207.36" y="41.472" style="stroke: #000000; stroke-width: 0.5"/>
      </g>
     </g>
    </g>
    <g id="xtick_19">
     <g id="line2d_55">
      <path d="M 218.88 307.584 
L 218.88 41.472 
" clip-path="url(#p06f0a38559)" style="fill: none; stroke-dasharray: 0.8,1.32; stroke-dashoffset: 0; stroke: #b0b0b0; stroke-width: 0.8"/>
     </g>
     <g id="line2d_56">
      <g>
       <use xlink:href="#m41182486e7" x="218.88" y="307.584" style="stroke: #000000; stroke-width: 0.5"/>
      </g>
     </g>
     <g id="line2d_57">
      <g>
       <use xlink:href="#mf7ba446760" x="218.88" y="41.472" style="stroke: #000000; stroke-width: 0.5"/>
      </g>
     </g>
    </g>
    <g id="xtick_20">
     <g id="line2d_58">
      <path d="M 230.4 307.584 
L 230.4 41.472 
" clip-path="url(#p06f0a38559)" style="fill: none; stroke-dasharray: 0.8,1.32; stroke-dashoffset: 0; stroke: #b0b0b0; stroke-width: 0.8"/>
     </g>
     <g id="line2d_59">
      <g>
       <use xlink:href="#m41182486e7" x="230.4" y="307.584" style="stroke: #000000; stroke-width: 0.5"/>
      </g>
     </g>
     <g id="line2d_60">
      <g>
       <use xlink:href="#mf7ba446760" x="230.4" y="41.472" style="stroke: #000000; stroke-width: 0.5"/>
      </g>
     </g>
    </g>
    <g id="xtick_21">
     <g id="line2d_61">
      <path d="M 253.44 307.584 
L 253.44 41.472 
" clip-path="url(#p06f0a38559)" style="fill: none; stroke-dasharray: 0.8,1.32; stroke-dashoffset: 0; stroke: #b0b0b0; stroke-width: 0.8"/>
     </g>
     <g id="line2d_62">
      <g>
       <use xlink:href="#m41182486e7" x="253.44" y="307.584" style="stroke: #000000; stroke-width: 0.5"/>
      </g>
     </g>
     <g id="line2d_63">
      <g>
       <use xlink:href="#mf7ba446760" x="253.44" y="41.472" style="stroke: #000000; stroke-width: 0.5"/>
      </g>
     </g>
    </g>
    <g id="xtick_22">
     <g id="line2d_64">
      <path d="M 264.96 307.584 
L 264.96 41.472 
" clip-path="url(#p06f0a38559)" style="fill: none; stroke-dasharray: 0.8,1.32; stroke-dashoffset: 0; stroke: #b0b0b0; stroke-width: 0.8"/>
     </g>
     <g id="line2d_65">
      <g>
       <use xlink:href="#m41182486e7" x="264.96" y="307.584" style="stroke: #000000; stroke-width: 0.5"/>
      </g>
     </g>
     <g id="line2d_66">
      <g>
       <use xlink:href="#mf7ba446760" x="264.96" y="41.472" style="stroke: #000000; stroke-width: 0.5"/>
      </g>
     </g>
    </g>
    <g id="xtick_23">
     <g id="line2d_67">
      <path d="M 276.48 307.584 
L 276.48 41.472 
" clip-path="url(#p06f0a38559)" style="fill: none; stroke-dasharray: 0.8,1.32; stroke-dashoffset: 0; stroke: #b0b0b0; stroke-width: 0.8"/>
     </g>
     <g id="line2d_68">
      <g>
       <use xlink:href="#m41182486e7" x="276.48" y="307.584" style="stroke: #000000; stroke-width: 0.5"/>
      </g>
     </g>
     <g id="line2d_69">
      <g>
       <use xlink:href="#mf7ba446760" x="276.48" y="41.472" style="stroke: #000000; stroke-width: 0.5"/>
      </g>
     </g>
    </g>
    <g id="xtick_24">
     <g id="line2d_70">
      <path d="M 299.52 307.584 
L 299.52 41.472 
" clip-path="url(#p06f0a38559)" style="fill: none; stroke-dasharray: 0.8,1.32; stroke-dashoffset: 0; stroke: #b0b0b0; stroke-width: 0.8"/>
     </g>
     <g id="line2d_71">
      <g>
       <use xlink:href="#m41182486e7" x="299.52" y="307.584" style="stroke: #000000; stroke-width: 0.5"/>
      </g>
     </g>
     <g id="line2d_72">
      <g>
       <use xlink:href="#mf7ba446760" x="299.52" y="41.472" style="stroke: #000000; stroke-width: 0.5"/>
      </g>
     </g>
    </g>
    <g id="xtick_25">
     <g id="line2d_73">
      <path d="M 311.04 307.584 
L 311.04 41.472 
" clip-path="url(#p06f0a38559)" style="fill: none; stroke-dasharray: 0.8,1.32; stroke-dashoffset: 0; stroke: #b0b0b0; stroke-width: 0.8"/>
     </g>
     <g id="line2d_74">
      <g>
       <use xlink:href="#m41182486e7" x="311.04" y="307.584" style="stroke: #000000; stroke-width: 0.5"/>
      </g>
     </g>
     <g id="line2d_75">
      <g>
       <use xlink:href="#mf7ba446760" x="311.04" y="41.472" style="stroke: #000000; stroke-width: 0.5"/>
      </g>
     </g>
    </g>
    <g id="xtick_26">
     <g id="line2d_76">
      <path d="M 322.56 307.584 
L 322.56 41.472 
" clip-path="url(#p06f0a38559)" style="fill: none; stroke-dasharray: 0.8,1.32; stroke-dashoffset: 0; stroke: #b0b0b0; stroke-width: 0.8"/>
     </g>
     <g id="line2d_77">
      <g>
       <use xlink:href="#m41182486e7" x="322.56" y="307.584" style="stroke: #000000; stroke-width: 0.5"/>
      </g>
     </g>
     <g id="line2d_78">
      <g>
       <use xlink:href="#mf7ba446760" x="322.56" y="41.472" style="stroke: #000000; stroke-width: 0.5"/>
      </g>
     </g>
    </g>
    <g id="xtick_27">
     <g id="line2d_79">
      <path d="M 345.6 307.584 
L 345.6 41.472 
" clip-path="url(#p06f0a38559)" style="fill: none; stroke-dasharray: 0.8,1.32; stroke-dashoffset: 0; stroke: #b0b0b0; stroke-width: 0.8"/>
     </g>
     <g id="line2d_80">
      <g>
       <use xlink:href="#m41182486e7" x="345.6" y="307.584" style="stroke: #000000; stroke-width: 0.5"/>
      </g>
     </g>
     <g id="line2d_81">
      <g>
       <use xlink:href="#mf7ba446760" x="345.6" y="41.472" style="stroke: #000000; stroke-width: 0.5"/>
      </g>
     </g>
    </g>
    <g id="xtick_28">
     <g id="line2d_82">
      <path d="M 357.12 307.584 
L 357.12 41.472 
" clip-path="url(#p06f0a38559)" style="fill: none; stroke-dasharray: 0.8,1.32; stroke-dashoffset: 0; stroke: #b0b0b0; stroke-width: 0.8"/>
     </g>
     <g id="line2d_83">
      <g>
       <use xlink:href="#m41182486e7" x="357.12" y="307.584" style="stroke: #000000; stroke-width: 0.5"/>
      </g>
     </g>
     <g id="line2d_84">
      <g>
       <use xlink:href="#mf7ba446760" x="357.12" y="41.472" style="stroke: #000000; stroke-width: 0.5"/>
      </g>
     </g>
    </g>
    <g id="xtick_29">
     <g id="line2d_85">
      <path d="M 368.64 307.584 
L 368.64 41.472 
" clip-path="url(#p06f0a38559)" style="fill: none; stroke-dasharray: 0.8,1.32; stroke-dashoffset: 0; stroke: #b0b0b0; stroke-width: 0.8"/>
     </g>
     <g id="line2d_86">
      <g>
       <use xlink:href="#m41182486e7" x="368.64" y="307.584" style="stroke: #000000; stroke-width: 0.5"/>
      </g>
     </g>
     <g id="line2d_87">
      <g>
       <use xlink:href="#mf7ba446760" x="368.64" y="41.472" style="stroke: #000000; stroke-width: 0.5"/>
      </g>
     </g>
    </g>
    <g id="xtick_30">
     <g id="line2d_88">
      <path d="M 391.68 307.584 
L 391.68 41.472 
" clip-path="url(#p06f0a38559)" style="fill: none; stroke-dasharray: 0.8,1.32; stroke-dashoffset: 0; stroke: #b0b0b0; stroke-width: 0.8"/>
     </g>
     <g id="line2d_89">
      <g>
       <use xlink:href="#m41182486e7" x="391.68" y="307.584" style="stroke: #000000; stroke-width: 0.5"/>
      </g>
     </g>
     <g id="line2d_90">
      <g>
       <use xlink:href="#mf7ba446760" x="391.68" y="41.472" style="stroke: #000000; stroke-width: 0.5"/>
      </g>
     </g>
    </g>
    <g id="xtick_31">
     <g id="line2d_91">
      <path d="M 403.2 307.584 
L 403.2 41.472 
" clip-path="url(#p06f0a38559)" style="fill: none; stroke-dasharray: 0.8,1.32; stroke-dashoffset: 0; stroke: #b0b0b0; stroke-width: 0.8"/>
     </g>
     <g id="line2d_92">
      <g>
       <use xlink:href="#m41182486e7" x="403.2" y="307.584" style="stroke: #000000; stroke-width: 0.5"/>
      </g>
     </g>
     <g id="line2d_93">
      <g>
       <use xlink:href="#mf7ba446760" x="403.2" y="41.472" style="stroke: #000000; stroke-width: 0.5"/>
      </g>
     </g>
    </g>
    <g id="xtick_32">
     <g id="line2d_94">
      <path d="M 414.72 307.584 
L 414.72 41.472 
" clip-path="url(#p06f0a38559)" style="fill: none; stroke-dasharray: 0.8,1.32; stroke-dashoffset: 0; stroke: #b0b0b0; stroke-width: 0.8"/>
     </g>
     <g id="line2d_95">
      <g>
       <use xlink:href="#m41182486e7" x="414.72" y="307.584" style="stroke: #000000; stroke-width: 0.5"/>
      </g>
     </g>
     <g id="line2d_96">
      <g>
       <use xlink:href="#mf7ba446760" x="414.72" y="41.472" style="stroke: #000000; stroke-width: 0.5"/>
      </g>
     </g>
    </g>
    <g id="text_9">
     <!-- Normalized Temperature, ${T}\,/\,{T_c}$ -->
     <g transform="translate(158.81 335.862125) scale(0.1 -0.1)">
      <defs>
       <path id="DejaVuSans-4e" d="M 628 4666 
L 1478 4666 
L 3547 763 
L 3547 4666 
L 4159 4666 
L 4159 0 
L 3309 0 
L 1241 3903 
L 1241 0 
L 628 0 
L 628 4666 
z
" transform="scale(0.015625)"/>
       <path id="DejaVuSans-6f" d="M 1959 3097 
Q 1497 3097 1228 2736 
Q 959 2375 959 1747 
Q 959 1119 1226 758 
Q 1494 397 1959 397 
Q 2419 397 2687 759 
Q 2956 1122 2956 1747 
Q 2956 2369 2687 2733 
Q 2419 3097 1959 3097 
z
M 1959 3584 
Q 2709 3584 3137 3096 
Q 3566 2609 3566 1747 
Q 3566 888 3137 398 
Q 2709 -91 1959 -91 
Q 1206 -91 779 398 
Q 353 888 353 1747 
Q 353 2609 779 3096 
Q 1206 3584 1959 3584 
z
" transform="scale(0.015625)"/>
       <path id="DejaVuSans-72" d="M 2631 2963 
Q 2534 3019 2420 3045 
Q 2306 3072 2169 3072 
Q 1681 3072 1420 2755 
Q 1159 2438 1159 1844 
L 1159 0 
L 581 0 
L 581 3500 
L 1159 3500 
L 1159 2956 
Q 1341 3275 1631 3429 
Q 1922 3584 2338 3584 
Q 2397 3584 2469 3576 
Q 2541 3569 2628 3553 
L 2631 2963 
z
" transform="scale(0.015625)"/>
       <path id="DejaVuSans-6d" d="M 3328 2828 
Q 3544 3216 3844 3400 
Q 4144 3584 4550 3584 
Q 5097 3584 5394 3201 
Q 5691 2819 5691 2113 
L 5691 0 
L 5113 0 
L 5113 2094 
Q 5113 2597 4934 2840 
Q 4756 3084 4391 3084 
Q 3944 3084 3684 2787 
Q 3425 2491 3425 1978 
L 3425 0 
L 2847 0 
L 2847 2094 
Q 2847 2600 2669 2842 
Q 2491 3084 2119 3084 
Q 1678 3084 1418 2786 
Q 1159 2488 1159 1978 
L 1159 0 
L 581 0 
L 581 3500 
L 1159 3500 
L 1159 2956 
Q 1356 3278 1631 3431 
Q 1906 3584 2284 3584 
Q 2666 3584 2933 3390 
Q 3200 3197 3328 2828 
z
" transform="scale(0.015625)"/>
       <path id="DejaVuSans-61" d="M 2194 1759 
Q 1497 1759 1228 1600 
Q 959 1441 959 1056 
Q 959 750 1161 570 
Q 1363 391 1709 391 
Q 2188 391 2477 730 
Q 2766 1069 2766 1631 
L 2766 1759 
L 2194 1759 
z
M 3341 1997 
L 3341 0 
L 2766 0 
L 2766 531 
Q 2569 213 2275 61 
Q 1981 -91 1556 -91 
Q 1019 -91 701 211 
Q 384 513 384 1019 
Q 384 1609 779 1909 
Q 1175 2209 1959 2209 
L 2766 2209 
L 2766 2266 
Q 2766 2663 2505 2880 
Q 2244 3097 1772 3097 
Q 1472 3097 1187 3025 
Q 903 2953 641 2809 
L 641 3341 
Q 956 3463 1253 3523 
Q 1550 3584 1831 3584 
Q 2591 3584 2966 3190 
Q 3341 2797 3341 1997 
z
" transform="scale(0.015625)"/>
       <path id="DejaVuSans-6c" d="M 603 4863 
L 1178 4863 
L 1178 0 
L 603 0 
L 603 4863 
z
" transform="scale(0.015625)"/>
       <path id="DejaVuSans-69" d="M 603 3500 
L 1178 3500 
L 1178 0 
L 603 0 
L 603 3500 
z
M 603 4863 
L 1178 4863 
L 1178 4134 
L 603 4134 
L 603 4863 
z
" transform="scale(0.015625)"/>
       <path id="DejaVuSans-7a" d="M 353 3500 
L 3084 3500 
L 3084 2975 
L 922 459 
L 3084 459 
L 3084 0 
L 275 0 
L 275 525 
L 2438 3041 
L 353 3041 
L 353 3500 
z
" transform="scale(0.015625)"/>
       <path id="DejaVuSans-65" d="M 3597 1894 
L 3597 1613 
L 953 1613 
Q 991 1019 1311 708 
Q 1631 397 2203 397 
Q 2534 397 2845 478 
Q 3156 559 3463 722 
L 3463 178 
Q 3153 47 2828 -22 
Q 2503 -91 2169 -91 
Q 1331 -91 842 396 
Q 353 884 353 1716 
Q 353 2575 817 3079 
Q 1281 3584 2069 3584 
Q 2775 3584 3186 3129 
Q 3597 2675 3597 1894 
z
M 3022 2063 
Q 3016 2534 2758 2815 
Q 2500 3097 2075 3097 
Q 1594 3097 1305 2825 
Q 1016 2553 972 2059 
L 3022 2063 
z
" transform="scale(0.015625)"/>
       <path id="DejaVuSans-64" d="M 2906 2969 
L 2906 4863 
L 3481 4863 
L 3481 0 
L 2906 0 
L 2906 525 
Q 2725 213 2448 61 
Q 2172 -91 1784 -91 
Q 1150 -91 751 415 
Q 353 922 353 1747 
Q 353 2572 751 3078 
Q 1150 3584 1784 3584 
Q 2172 3584 2448 3432 
Q 2725 3281 2906 2969 
z
M 947 1747 
Q 947 1113 1208 752 
Q 1469 391 1925 391 
Q 2381 391 2643 752 
Q 2906 1113 2906 1747 
Q 2906 2381 2643 2742 
Q 2381 3103 1925 3103 
Q 1469 3103 1208 2742 
Q 947 2381 947 1747 
z
" transform="scale(0.015625)"/>
       <path id="DejaVuSans-20" transform="scale(0.015625)"/>
       <path id="DejaVuSans-54" d="M -19 4666 
L 3928 4666 
L 3928 4134 
L 2272 4134 
L 2272 0 
L 1638 0 
L 1638 4134 
L -19 4134 
L -19 4666 
z
" transform="scale(0.015625)"/>
       <path id="DejaVuSans-70" d="M 1159 525 
L 1159 -1331 
L 581 -1331 
L 581 3500 
L 1159 3500 
L 1159 2969 
Q 1341 3281 1617 3432 
Q 1894 3584 2278 3584 
Q 2916 3584 3314 3078 
Q 3713 2572 3713 1747 
Q 3713 922 3314 415 
Q 2916 -91 2278 -91 
Q 1894 -91 1617 61 
Q 1341 213 1159 525 
z
M 3116 1747 
Q 3116 2381 2855 2742 
Q 2594 3103 2138 3103 
Q 1681 3103 1420 2742 
Q 1159 2381 1159 1747 
Q 1159 1113 1420 752 
Q 1681 391 2138 391 
Q 2594 391 2855 752 
Q 3116 1113 3116 1747 
z
" transform="scale(0.015625)"/>
       <path id="DejaVuSans-74" d="M 1172 4494 
L 1172 3500 
L 2356 3500 
L 2356 3053 
L 1172 3053 
L 1172 1153 
Q 1172 725 1289 603 
Q 1406 481 1766 481 
L 2356 481 
L 2356 0 
L 1766 0 
Q 1100 0 847 248 
Q 594 497 594 1153 
L 594 3053 
L 172 3053 
L 172 3500 
L 594 3500 
L 594 4494 
L 1172 4494 
z
" transform="scale(0.015625)"/>
       <path id="DejaVuSans-75" d="M 544 1381 
L 544 3500 
L 1119 3500 
L 1119 1403 
Q 1119 906 1312 657 
Q 1506 409 1894 409 
Q 2359 409 2629 706 
Q 2900 1003 2900 1516 
L 2900 3500 
L 3475 3500 
L 3475 0 
L 2900 0 
L 2900 538 
Q 2691 219 2414 64 
Q 2138 -91 1772 -91 
Q 1169 -91 856 284 
Q 544 659 544 1381 
z
M 1991 3584 
L 1991 3584 
z
" transform="scale(0.015625)"/>
       <path id="DejaVuSans-2c" d="M 750 794 
L 1409 794 
L 1409 256 
L 897 -744 
L 494 -744 
L 750 256 
L 750 794 
z
" transform="scale(0.015625)"/>
       <path id="DejaVuSans-Oblique-54" d="M 378 4666 
L 4325 4666 
L 4225 4134 
L 2559 4134 
L 1759 0 
L 1125 0 
L 1925 4134 
L 275 4134 
L 378 4666 
z
" transform="scale(0.015625)"/>
       <path id="DejaVuSans-2f" d="M 1625 4666 
L 2156 4666 
L 531 -594 
L 0 -594 
L 1625 4666 
z
" transform="scale(0.015625)"/>
       <path id="DejaVuSans-Oblique-63" d="M 3431 3366 
L 3316 2797 
Q 3109 2947 2876 3022 
Q 2644 3097 2394 3097 
Q 2119 3097 1870 3000 
Q 1622 2903 1453 2725 
Q 1184 2453 1037 2087 
Q 891 1722 891 1331 
Q 891 859 1127 628 
Q 1363 397 1844 397 
Q 2081 397 2348 469 
Q 2616 541 2906 684 
L 2797 116 
Q 2547 13 2283 -39 
Q 2019 -91 1741 -91 
Q 1044 -91 669 257 
Q 294 606 294 1253 
Q 294 1797 489 2255 
Q 684 2713 1069 3078 
Q 1331 3328 1684 3456 
Q 2038 3584 2456 3584 
Q 2700 3584 2940 3529 
Q 3181 3475 3431 3366 
z
" transform="scale(0.015625)"/>
      </defs>
      <use xlink:href="#DejaVuSans-4e" transform="translate(0 0.015625)"/>
      <use xlink:href="#DejaVuSans-6f" transform="translate(74.804688 0.015625)"/>
      <use xlink:href="#DejaVuSans-72" transform="translate(135.986328 0.015625)"/>
      <use xlink:href="#DejaVuSans-6d" transform="translate(177.099609 0.015625)"/>
      <use xlink:href="#DejaVuSans-61" transform="translate(274.511719 0.015625)"/>
      <use xlink:href="#DejaVuSans-6c" transform="translate(335.791016 0.015625)"/>
      <use xlink:href="#DejaVuSans-69" transform="translate(363.574219 0.015625)"/>
      <use xlink:href="#DejaVuSans-7a" transform="translate(391.357422 0.015625)"/>
      <use xlink:href="#DejaVuSans-65" transform="translate(443.847656 0.015625)"/>
      <use xlink:href="#DejaVuSans-64" transform="translate(505.371094 0.015625)"/>
      <use xlink:href="#DejaVuSans-20" transform="translate(568.847656 0.015625)"/>
      <use xlink:href="#DejaVuSans-54" transform="translate(600.634766 0.015625)"/>
      <use xlink:href="#DejaVuSans-65" transform="translate(661.71875 0.015625)"/>
      <use xlink:href="#DejaVuSans-6d" transform="translate(723.242188 0.015625)"/>
      <use xlink:href="#DejaVuSans-70" transform="translate(820.654297 0.015625)"/>
      <use xlink:href="#DejaVuSans-65" transform="translate(884.130859 0.015625)"/>
      <use xlink:href="#DejaVuSans-72" transform="translate(945.654297 0.015625)"/>
      <use xlink:href="#DejaVuSans-61" transform="translate(986.767578 0.015625)"/>
      <use xlink:href="#DejaVuSans-74" transform="translate(1048.046875 0.015625)"/>
      <use xlink:href="#DejaVuSans-75" transform="translate(1087.255859 0.015625)"/>
      <use xlink:href="#DejaVuSans-72" transform="translate(1150.634766 0.015625)"/>
      <use xlink:href="#DejaVuSans-65" transform="translate(1191.748047 0.015625)"/>
      <use xlink:href="#DejaVuSans-2c" transform="translate(1253.271484 0.015625)"/>
      <use xlink:href="#DejaVuSans-20" transform="translate(1285.058594 0.015625)"/>
      <use xlink:href="#DejaVuSans-Oblique-54" transform="translate(1316.845703 0.015625)"/>
      <use xlink:href="#DejaVuSans-2f" transform="translate(1394.165364 0.015625)"/>
      <use xlink:href="#DejaVuSans-Oblique-54" transform="translate(1444.092446 0.015625)"/>
      <use xlink:href="#DejaVuSans-Oblique-63" transform="translate(1505.176431 -16.390625) scale(0.7)"/>
     </g>
    </g>
   </g>
   <g id="matplotlib.axis_2">
    <g id="ytick_1">
     <g id="line2d_97">
      <path d="M 57.6 307.584 
L 414.72 307.584 
" clip-path="url(#p06f0a38559)" style="fill: none; stroke-dasharray: 2.96,1.28; stroke-dashoffset: 0; stroke: #b0b0b0; stroke-width: 0.8"/>
     </g>
     <g id="line2d_98">
      <defs>
       <path id="m1f15ac8ce0" d="M 0 0 
L -3.5 0 
" style="stroke: #000000; stroke-width: 0.8"/>
      </defs>
      <g>
       <use xlink:href="#m1f15ac8ce0" x="57.6" y="307.584" style="stroke: #000000; stroke-width: 0.8"/>
      </g>
     </g>
     <g id="line2d_99">
      <defs>
       <path id="mb148ac5680" d="M 0 0 
L 3.5 0 
" style="stroke: #000000; stroke-width: 0.8"/>
      </defs>
      <g>
       <use xlink:href="#mb148ac5680" x="414.72" y="307.584" style="stroke: #000000; stroke-width: 0.8"/>
      </g>
     </g>
     <g id="text_10">
      <!-- 0.0 -->
      <g transform="translate(34.696875 311.383219) scale(0.1 -0.1)">
       <use xlink:href="#DejaVuSans-30"/>
       <use xlink:href="#DejaVuSans-2e" x="63.623047"/>
       <use xlink:href="#DejaVuSans-30" x="95.410156"/>
      </g>
     </g>
    </g>
    <g id="ytick_2">
     <g id="line2d_100">
      <path d="M 57.6 265.00608 
L 414.72 265.00608 
" clip-path="url(#p06f0a38559)" style="fill: none; stroke-dasharray: 2.96,1.28; stroke-dashoffset: 0; stroke: #b0b0b0; stroke-width: 0.8"/>
     </g>
     <g id="line2d_101">
      <g>
       <use xlink:href="#m1f15ac8ce0" x="57.6" y="265.00608" style="stroke: #000000; stroke-width: 0.8"/>
      </g>
     </g>
     <g id="line2d_102">
      <g>
       <use xlink:href="#mb148ac5680" x="414.72" y="265.00608" style="stroke: #000000; stroke-width: 0.8"/>
      </g>
     </g>
     <g id="text_11">
      <!-- 0.2 -->
      <g transform="translate(34.696875 268.805299) scale(0.1 -0.1)">
       <use xlink:href="#DejaVuSans-30"/>
       <use xlink:href="#DejaVuSans-2e" x="63.623047"/>
       <use xlink:href="#DejaVuSans-32" x="95.410156"/>
      </g>
     </g>
    </g>
    <g id="ytick_3">
     <g id="line2d_103">
      <path d="M 57.6 222.42816 
L 414.72 222.42816 
" clip-path="url(#p06f0a38559)" style="fill: none; stroke-dasharray: 2.96,1.28; stroke-dashoffset: 0; stroke: #b0b0b0; stroke-width: 0.8"/>
     </g>
     <g id="line2d_104">
      <g>
       <use xlink:href="#m1f15ac8ce0" x="57.6" y="222.42816" style="stroke: #000000; stroke-width: 0.8"/>
      </g>
     </g>
     <g id="line2d_105">
      <g>
       <use xlink:href="#mb148ac5680" x="414.72" y="222.42816" style="stroke: #000000; stroke-width: 0.8"/>
      </g>
     </g>
     <g id="text_12">
      <!-- 0.4 -->
      <g transform="translate(34.696875 226.227379) scale(0.1 -0.1)">
       <use xlink:href="#DejaVuSans-30"/>
       <use xlink:href="#DejaVuSans-2e" x="63.623047"/>
       <use xlink:href="#DejaVuSans-34" x="95.410156"/>
      </g>
     </g>
    </g>
    <g id="ytick_4">
     <g id="line2d_106">
      <path d="M 57.6 179.85024 
L 414.72 179.85024 
" clip-path="url(#p06f0a38559)" style="fill: none; stroke-dasharray: 2.96,1.28; stroke-dashoffset: 0; stroke: #b0b0b0; stroke-width: 0.8"/>
     </g>
     <g id="line2d_107">
      <g>
       <use xlink:href="#m1f15ac8ce0" x="57.6" y="179.85024" style="stroke: #000000; stroke-width: 0.8"/>
      </g>
     </g>
     <g id="line2d_108">
      <g>
       <use xlink:href="#mb148ac5680" x="414.72" y="179.85024" style="stroke: #000000; stroke-width: 0.8"/>
      </g>
     </g>
     <g id="text_13">
      <!-- 0.6 -->
      <g transform="translate(34.696875 183.649459) scale(0.1 -0.1)">
       <use xlink:href="#DejaVuSans-30"/>
       <use xlink:href="#DejaVuSans-2e" x="63.623047"/>
       <use xlink:href="#DejaVuSans-36" x="95.410156"/>
      </g>
     </g>
    </g>
    <g id="ytick_5">
     <g id="line2d_109">
      <path d="M 57.6 137.27232 
L 414.72 137.27232 
" clip-path="url(#p06f0a38559)" style="fill: none; stroke-dasharray: 2.96,1.28; stroke-dashoffset: 0; stroke: #b0b0b0; stroke-width: 0.8"/>
     </g>
     <g id="line2d_110">
      <g>
       <use xlink:href="#m1f15ac8ce0" x="57.6" y="137.27232" style="stroke: #000000; stroke-width: 0.8"/>
      </g>
     </g>
     <g id="line2d_111">
      <g>
       <use xlink:href="#mb148ac5680" x="414.72" y="137.27232" style="stroke: #000000; stroke-width: 0.8"/>
      </g>
     </g>
     <g id="text_14">
      <!-- 0.8 -->
      <g transform="translate(34.696875 141.071539) scale(0.1 -0.1)">
       <use xlink:href="#DejaVuSans-30"/>
       <use xlink:href="#DejaVuSans-2e" x="63.623047"/>
       <use xlink:href="#DejaVuSans-38" x="95.410156"/>
      </g>
     </g>
    </g>
    <g id="ytick_6">
     <g id="line2d_112">
      <path d="M 57.6 94.6944 
L 414.72 94.6944 
" clip-path="url(#p06f0a38559)" style="fill: none; stroke-dasharray: 2.96,1.28; stroke-dashoffset: 0; stroke: #b0b0b0; stroke-width: 0.8"/>
     </g>
     <g id="line2d_113">
      <g>
       <use xlink:href="#m1f15ac8ce0" x="57.6" y="94.6944" style="stroke: #000000; stroke-width: 0.8"/>
      </g>
     </g>
     <g id="line2d_114">
      <g>
       <use xlink:href="#mb148ac5680" x="414.72" y="94.6944" style="stroke: #000000; stroke-width: 0.8"/>
      </g>
     </g>
     <g id="text_15">
      <!-- 1.0 -->
      <g transform="translate(34.696875 98.493619) scale(0.1 -0.1)">
       <use xlink:href="#DejaVuSans-31"/>
       <use xlink:href="#DejaVuSans-2e" x="63.623047"/>
       <use xlink:href="#DejaVuSans-30" x="95.410156"/>
      </g>
     </g>
    </g>
    <g id="ytick_7">
     <g id="line2d_115">
      <path d="M 57.6 52.11648 
L 414.72 52.11648 
" clip-path="url(#p06f0a38559)" style="fill: none; stroke-dasharray: 2.96,1.28; stroke-dashoffset: 0; stroke: #b0b0b0; stroke-width: 0.8"/>
     </g>
     <g id="line2d_116">
      <g>
       <use xlink:href="#m1f15ac8ce0" x="57.6" y="52.11648" style="stroke: #000000; stroke-width: 0.8"/>
      </g>
     </g>
     <g id="line2d_117">
      <g>
       <use xlink:href="#mb148ac5680" x="414.72" y="52.11648" style="stroke: #000000; stroke-width: 0.8"/>
      </g>
     </g>
     <g id="text_16">
      <!-- 1.2 -->
      <g transform="translate(34.696875 55.915699) scale(0.1 -0.1)">
       <use xlink:href="#DejaVuSans-31"/>
       <use xlink:href="#DejaVuSans-2e" x="63.623047"/>
       <use xlink:href="#DejaVuSans-32" x="95.410156"/>
      </g>
     </g>
    </g>
    <g id="ytick_8">
     <g id="line2d_118">
      <path d="M 57.6 296.93952 
L 414.72 296.93952 
" clip-path="url(#p06f0a38559)" style="fill: none; stroke-dasharray: 0.8,1.32; stroke-dashoffset: 0; stroke: #b0b0b0; stroke-width: 0.8"/>
     </g>
     <g id="line2d_119">
      <defs>
       <path id="m9e284c5669" d="M 0 0 
L -3 0 
" style="stroke: #000000; stroke-width: 0.5"/>
      </defs>
      <g>
       <use xlink:href="#m9e284c5669" x="57.6" y="296.93952" style="stroke: #000000; stroke-width: 0.5"/>
      </g>
     </g>
     <g id="line2d_120">
      <defs>
       <path id="mbdd2767b47" d="M 0 0 
L 3 0 
" style="stroke: #000000; stroke-width: 0.5"/>
      </defs>
      <g>
       <use xlink:href="#mbdd2767b47" x="414.72" y="296.93952" style="stroke: #000000; stroke-width: 0.5"/>
      </g>
     </g>
    </g>
    <g id="ytick_9">
     <g id="line2d_121">
      <path d="M 57.6 286.29504 
L 414.72 286.29504 
" clip-path="url(#p06f0a38559)" style="fill: none; stroke-dasharray: 0.8,1.32; stroke-dashoffset: 0; stroke: #b0b0b0; stroke-width: 0.8"/>
     </g>
     <g id="line2d_122">
      <g>
       <use xlink:href="#m9e284c5669" x="57.6" y="286.29504" style="stroke: #000000; stroke-width: 0.5"/>
      </g>
     </g>
     <g id="line2d_123">
      <g>
       <use xlink:href="#mbdd2767b47" x="414.72" y="286.29504" style="stroke: #000000; stroke-width: 0.5"/>
      </g>
     </g>
    </g>
    <g id="ytick_10">
     <g id="line2d_124">
      <path d="M 57.6 275.65056 
L 414.72 275.65056 
" clip-path="url(#p06f0a38559)" style="fill: none; stroke-dasharray: 0.8,1.32; stroke-dashoffset: 0; stroke: #b0b0b0; stroke-width: 0.8"/>
     </g>
     <g id="line2d_125">
      <g>
       <use xlink:href="#m9e284c5669" x="57.6" y="275.65056" style="stroke: #000000; stroke-width: 0.5"/>
      </g>
     </g>
     <g id="line2d_126">
      <g>
       <use xlink:href="#mbdd2767b47" x="414.72" y="275.65056" style="stroke: #000000; stroke-width: 0.5"/>
      </g>
     </g>
    </g>
    <g id="ytick_11">
     <g id="line2d_127">
      <path d="M 57.6 254.3616 
L 414.72 254.3616 
" clip-path="url(#p06f0a38559)" style="fill: none; stroke-dasharray: 0.8,1.32; stroke-dashoffset: 0; stroke: #b0b0b0; stroke-width: 0.8"/>
     </g>
     <g id="line2d_128">
      <g>
       <use xlink:href="#m9e284c5669" x="57.6" y="254.3616" style="stroke: #000000; stroke-width: 0.5"/>
      </g>
     </g>
     <g id="line2d_129">
      <g>
       <use xlink:href="#mbdd2767b47" x="414.72" y="254.3616" style="stroke: #000000; stroke-width: 0.5"/>
      </g>
     </g>
    </g>
    <g id="ytick_12">
     <g id="line2d_130">
      <path d="M 57.6 243.71712 
L 414.72 243.71712 
" clip-path="url(#p06f0a38559)" style="fill: none; stroke-dasharray: 0.8,1.32; stroke-dashoffset: 0; stroke: #b0b0b0; stroke-width: 0.8"/>
     </g>
     <g id="line2d_131">
      <g>
       <use xlink:href="#m9e284c5669" x="57.6" y="243.71712" style="stroke: #000000; stroke-width: 0.5"/>
      </g>
     </g>
     <g id="line2d_132">
      <g>
       <use xlink:href="#mbdd2767b47" x="414.72" y="243.71712" style="stroke: #000000; stroke-width: 0.5"/>
      </g>
     </g>
    </g>
    <g id="ytick_13">
     <g id="line2d_133">
      <path d="M 57.6 233.07264 
L 414.72 233.07264 
" clip-path="url(#p06f0a38559)" style="fill: none; stroke-dasharray: 0.8,1.32; stroke-dashoffset: 0; stroke: #b0b0b0; stroke-width: 0.8"/>
     </g>
     <g id="line2d_134">
      <g>
       <use xlink:href="#m9e284c5669" x="57.6" y="233.07264" style="stroke: #000000; stroke-width: 0.5"/>
      </g>
     </g>
     <g id="line2d_135">
      <g>
       <use xlink:href="#mbdd2767b47" x="414.72" y="233.07264" style="stroke: #000000; stroke-width: 0.5"/>
      </g>
     </g>
    </g>
    <g id="ytick_14">
     <g id="line2d_136">
      <path d="M 57.6 211.78368 
L 414.72 211.78368 
" clip-path="url(#p06f0a38559)" style="fill: none; stroke-dasharray: 0.8,1.32; stroke-dashoffset: 0; stroke: #b0b0b0; stroke-width: 0.8"/>
     </g>
     <g id="line2d_137">
      <g>
       <use xlink:href="#m9e284c5669" x="57.6" y="211.78368" style="stroke: #000000; stroke-width: 0.5"/>
      </g>
     </g>
     <g id="line2d_138">
      <g>
       <use xlink:href="#mbdd2767b47" x="414.72" y="211.78368" style="stroke: #000000; stroke-width: 0.5"/>
      </g>
     </g>
    </g>
    <g id="ytick_15">
     <g id="line2d_139">
      <path d="M 57.6 201.1392 
L 414.72 201.1392 
" clip-path="url(#p06f0a38559)" style="fill: none; stroke-dasharray: 0.8,1.32; stroke-dashoffset: 0; stroke: #b0b0b0; stroke-width: 0.8"/>
     </g>
     <g id="line2d_140">
      <g>
       <use xlink:href="#m9e284c5669" x="57.6" y="201.1392" style="stroke: #000000; stroke-width: 0.5"/>
      </g>
     </g>
     <g id="line2d_141">
      <g>
       <use xlink:href="#mbdd2767b47" x="414.72" y="201.1392" style="stroke: #000000; stroke-width: 0.5"/>
      </g>
     </g>
    </g>
    <g id="ytick_16">
     <g id="line2d_142">
      <path d="M 57.6 190.49472 
L 414.72 190.49472 
" clip-path="url(#p06f0a38559)" style="fill: none; stroke-dasharray: 0.8,1.32; stroke-dashoffset: 0; stroke: #b0b0b0; stroke-width: 0.8"/>
     </g>
     <g id="line2d_143">
      <g>
       <use xlink:href="#m9e284c5669" x="57.6" y="190.49472" style="stroke: #000000; stroke-width: 0.5"/>
      </g>
     </g>
     <g id="line2d_144">
      <g>
       <use xlink:href="#mbdd2767b47" x="414.72" y="190.49472" style="stroke: #000000; stroke-width: 0.5"/>
      </g>
     </g>
    </g>
    <g id="ytick_17">
     <g id="line2d_145">
      <path d="M 57.6 169.20576 
L 414.72 169.20576 
" clip-path="url(#p06f0a38559)" style="fill: none; stroke-dasharray: 0.8,1.32; stroke-dashoffset: 0; stroke: #b0b0b0; stroke-width: 0.8"/>
     </g>
     <g id="line2d_146">
      <g>
       <use xlink:href="#m9e284c5669" x="57.6" y="169.20576" style="stroke: #000000; stroke-width: 0.5"/>
      </g>
     </g>
     <g id="line2d_147">
      <g>
       <use xlink:href="#mbdd2767b47" x="414.72" y="169.20576" style="stroke: #000000; stroke-width: 0.5"/>
      </g>
     </g>
    </g>
    <g id="ytick_18">
     <g id="line2d_148">
      <path d="M 57.6 158.56128 
L 414.72 158.56128 
" clip-path="url(#p06f0a38559)" style="fill: none; stroke-dasharray: 0.8,1.32; stroke-dashoffset: 0; stroke: #b0b0b0; stroke-width: 0.8"/>
     </g>
     <g id="line2d_149">
      <g>
       <use xlink:href="#m9e284c5669" x="57.6" y="158.56128" style="stroke: #000000; stroke-width: 0.5"/>
      </g>
     </g>
     <g id="line2d_150">
      <g>
       <use xlink:href="#mbdd2767b47" x="414.72" y="158.56128" style="stroke: #000000; stroke-width: 0.5"/>
      </g>
     </g>
    </g>
    <g id="ytick_19">
     <g id="line2d_151">
      <path d="M 57.6 147.9168 
L 414.72 147.9168 
" clip-path="url(#p06f0a38559)" style="fill: none; stroke-dasharray: 0.8,1.32; stroke-dashoffset: 0; stroke: #b0b0b0; stroke-width: 0.8"/>
     </g>
     <g id="line2d_152">
      <g>
       <use xlink:href="#m9e284c5669" x="57.6" y="147.9168" style="stroke: #000000; stroke-width: 0.5"/>
      </g>
     </g>
     <g id="line2d_153">
      <g>
       <use xlink:href="#mbdd2767b47" x="414.72" y="147.9168" style="stroke: #000000; stroke-width: 0.5"/>
      </g>
     </g>
    </g>
    <g id="ytick_20">
     <g id="line2d_154">
      <path d="M 57.6 126.62784 
L 414.72 126.62784 
" clip-path="url(#p06f0a38559)" style="fill: none; stroke-dasharray: 0.8,1.32; stroke-dashoffset: 0; stroke: #b0b0b0; stroke-width: 0.8"/>
     </g>
     <g id="line2d_155">
      <g>
       <use xlink:href="#m9e284c5669" x="57.6" y="126.62784" style="stroke: #000000; stroke-width: 0.5"/>
      </g>
     </g>
     <g id="line2d_156">
      <g>
       <use xlink:href="#mbdd2767b47" x="414.72" y="126.62784" style="stroke: #000000; stroke-width: 0.5"/>
      </g>
     </g>
    </g>
    <g id="ytick_21">
     <g id="line2d_157">
      <path d="M 57.6 115.98336 
L 414.72 115.98336 
" clip-path="url(#p06f0a38559)" style="fill: none; stroke-dasharray: 0.8,1.32; stroke-dashoffset: 0; stroke: #b0b0b0; stroke-width: 0.8"/>
     </g>
     <g id="line2d_158">
      <g>
       <use xlink:href="#m9e284c5669" x="57.6" y="115.98336" style="stroke: #000000; stroke-width: 0.5"/>
      </g>
     </g>
     <g id="line2d_159">
      <g>
       <use xlink:href="#mbdd2767b47" x="414.72" y="115.98336" style="stroke: #000000; stroke-width: 0.5"/>
      </g>
     </g>
    </g>
    <g id="ytick_22">
     <g id="line2d_160">
      <path d="M 57.6 105.33888 
L 414.72 105.33888 
" clip-path="url(#p06f0a38559)" style="fill: none; stroke-dasharray: 0.8,1.32; stroke-dashoffset: 0; stroke: #b0b0b0; stroke-width: 0.8"/>
     </g>
     <g id="line2d_161">
      <g>
       <use xlink:href="#m9e284c5669" x="57.6" y="105.33888" style="stroke: #000000; stroke-width: 0.5"/>
      </g>
     </g>
     <g id="line2d_162">
      <g>
       <use xlink:href="#mbdd2767b47" x="414.72" y="105.33888" style="stroke: #000000; stroke-width: 0.5"/>
      </g>
     </g>
    </g>
    <g id="ytick_23">
     <g id="line2d_163">
      <path d="M 57.6 84.04992 
L 414.72 84.04992 
" clip-path="url(#p06f0a38559)" style="fill: none; stroke-dasharray: 0.8,1.32; stroke-dashoffset: 0; stroke: #b0b0b0; stroke-width: 0.8"/>
     </g>
     <g id="line2d_164">
      <g>
       <use xlink:href="#m9e284c5669" x="57.6" y="84.04992" style="stroke: #000000; stroke-width: 0.5"/>
      </g>
     </g>
     <g id="line2d_165">
      <g>
       <use xlink:href="#mbdd2767b47" x="414.72" y="84.04992" style="stroke: #000000; stroke-width: 0.5"/>
      </g>
     </g>
    </g>
    <g id="ytick_24">
     <g id="line2d_166">
      <path d="M 57.6 73.40544 
L 414.72 73.40544 
" clip-path="url(#p06f0a38559)" style="fill: none; stroke-dasharray: 0.8,1.32; stroke-dashoffset: 0; stroke: #b0b0b0; stroke-width: 0.8"/>
     </g>
     <g id="line2d_167">
      <g>
       <use xlink:href="#m9e284c5669" x="57.6" y="73.40544" style="stroke: #000000; stroke-width: 0.5"/>
      </g>
     </g>
     <g id="line2d_168">
      <g>
       <use xlink:href="#mbdd2767b47" x="414.72" y="73.40544" style="stroke: #000000; stroke-width: 0.5"/>
      </g>
     </g>
    </g>
    <g id="ytick_25">
     <g id="line2d_169">
      <path d="M 57.6 62.76096 
L 414.72 62.76096 
" clip-path="url(#p06f0a38559)" style="fill: none; stroke-dasharray: 0.8,1.32; stroke-dashoffset: 0; stroke: #b0b0b0; stroke-width: 0.8"/>
     </g>
     <g id="line2d_170">
      <g>
       <use xlink:href="#m9e284c5669" x="57.6" y="62.76096" style="stroke: #000000; stroke-width: 0.5"/>
      </g>
     </g>
     <g id="line2d_171">
      <g>
       <use xlink:href="#mbdd2767b47" x="414.72" y="62.76096" style="stroke: #000000; stroke-width: 0.5"/>
      </g>
     </g>
    </g>
    <g id="ytick_26">
     <g id="line2d_172">
      <path d="M 57.6 41.472 
L 414.72 41.472 
" clip-path="url(#p06f0a38559)" style="fill: none; stroke-dasharray: 0.8,1.32; stroke-dashoffset: 0; stroke: #b0b0b0; stroke-width: 0.8"/>
     </g>
     <g id="line2d_173">
      <g>
       <use xlink:href="#m9e284c5669" x="57.6" y="41.472" style="stroke: #000000; stroke-width: 0.5"/>
      </g>
     </g>
     <g id="line2d_174">
      <g>
       <use xlink:href="#mbdd2767b47" x="414.72" y="41.472" style="stroke: #000000; stroke-width: 0.5"/>
      </g>
     </g>
    </g>
    <g id="text_17">
     <!-- Spontaneous Magnetization, $\langle s \rangle$ -->
     <g transform="translate(28.596875 253.928) rotate(-90) scale(0.1 -0.1)">
      <defs>
       <path id="DejaVuSans-53" d="M 3425 4513 
L 3425 3897 
Q 3066 4069 2747 4153 
Q 2428 4238 2131 4238 
Q 1616 4238 1336 4038 
Q 1056 3838 1056 3469 
Q 1056 3159 1242 3001 
Q 1428 2844 1947 2747 
L 2328 2669 
Q 3034 2534 3370 2195 
Q 3706 1856 3706 1288 
Q 3706 609 3251 259 
Q 2797 -91 1919 -91 
Q 1588 -91 1214 -16 
Q 841 59 441 206 
L 441 856 
Q 825 641 1194 531 
Q 1563 422 1919 422 
Q 2459 422 2753 634 
Q 3047 847 3047 1241 
Q 3047 1584 2836 1778 
Q 2625 1972 2144 2069 
L 1759 2144 
Q 1053 2284 737 2584 
Q 422 2884 422 3419 
Q 422 4038 858 4394 
Q 1294 4750 2059 4750 
Q 2388 4750 2728 4690 
Q 3069 4631 3425 4513 
z
" transform="scale(0.015625)"/>
       <path id="DejaVuSans-6e" d="M 3513 2113 
L 3513 0 
L 2938 0 
L 2938 2094 
Q 2938 2591 2744 2837 
Q 2550 3084 2163 3084 
Q 1697 3084 1428 2787 
Q 1159 2491 1159 1978 
L 1159 0 
L 581 0 
L 581 3500 
L 1159 3500 
L 1159 2956 
Q 1366 3272 1645 3428 
Q 1925 3584 2291 3584 
Q 2894 3584 3203 3211 
Q 3513 2838 3513 2113 
z
" transform="scale(0.015625)"/>
       <path id="DejaVuSans-73" d="M 2834 3397 
L 2834 2853 
Q 2591 2978 2328 3040 
Q 2066 3103 1784 3103 
Q 1356 3103 1142 2972 
Q 928 2841 928 2578 
Q 928 2378 1081 2264 
Q 1234 2150 1697 2047 
L 1894 2003 
Q 2506 1872 2764 1633 
Q 3022 1394 3022 966 
Q 3022 478 2636 193 
Q 2250 -91 1575 -91 
Q 1294 -91 989 -36 
Q 684 19 347 128 
L 347 722 
Q 666 556 975 473 
Q 1284 391 1588 391 
Q 1994 391 2212 530 
Q 2431 669 2431 922 
Q 2431 1156 2273 1281 
Q 2116 1406 1581 1522 
L 1381 1569 
Q 847 1681 609 1914 
Q 372 2147 372 2553 
Q 372 3047 722 3315 
Q 1072 3584 1716 3584 
Q 2034 3584 2315 3537 
Q 2597 3491 2834 3397 
z
" transform="scale(0.015625)"/>
       <path id="DejaVuSans-4d" d="M 628 4666 
L 1569 4666 
L 2759 1491 
L 3956 4666 
L 4897 4666 
L 4897 0 
L 4281 0 
L 4281 4097 
L 3078 897 
L 2444 897 
L 1241 4097 
L 1241 0 
L 628 0 
L 628 4666 
z
" transform="scale(0.015625)"/>
       <path id="DejaVuSans-67" d="M 2906 1791 
Q 2906 2416 2648 2759 
Q 2391 3103 1925 3103 
Q 1463 3103 1205 2759 
Q 947 2416 947 1791 
Q 947 1169 1205 825 
Q 1463 481 1925 481 
Q 2391 481 2648 825 
Q 2906 1169 2906 1791 
z
M 3481 434 
Q 3481 -459 3084 -895 
Q 2688 -1331 1869 -1331 
Q 1566 -1331 1297 -1286 
Q 1028 -1241 775 -1147 
L 775 -588 
Q 1028 -725 1275 -790 
Q 1522 -856 1778 -856 
Q 2344 -856 2625 -561 
Q 2906 -266 2906 331 
L 2906 616 
Q 2728 306 2450 153 
Q 2172 0 1784 0 
Q 1141 0 747 490 
Q 353 981 353 1791 
Q 353 2603 747 3093 
Q 1141 3584 1784 3584 
Q 2172 3584 2450 3431 
Q 2728 3278 2906 2969 
L 2906 3500 
L 3481 3500 
L 3481 434 
z
" transform="scale(0.015625)"/>
       <path id="DejaVuSans-27e8" d="M 572 2006 
L 1453 4856 
L 1984 4856 
L 1103 2006 
L 1984 -844 
L 1453 -844 
L 572 2006 
z
" transform="scale(0.015625)"/>
       <path id="DejaVuSans-Oblique-73" d="M 3200 3397 
L 3091 2853 
Q 2863 2978 2609 3040 
Q 2356 3103 2088 3103 
Q 1634 3103 1373 2948 
Q 1113 2794 1113 2528 
Q 1113 2219 1719 2053 
Q 1766 2041 1788 2034 
L 1972 1978 
Q 2547 1819 2739 1644 
Q 2931 1469 2931 1166 
Q 2931 609 2489 259 
Q 2047 -91 1331 -91 
Q 1053 -91 747 -37 
Q 441 16 72 128 
L 184 722 
Q 500 559 806 475 
Q 1113 391 1394 391 
Q 1816 391 2080 572 
Q 2344 753 2344 1031 
Q 2344 1331 1650 1516 
L 1591 1531 
L 1394 1581 
Q 956 1697 753 1886 
Q 550 2075 550 2369 
Q 550 2928 970 3256 
Q 1391 3584 2113 3584 
Q 2397 3584 2667 3537 
Q 2938 3491 3200 3397 
z
" transform="scale(0.015625)"/>
       <path id="DejaVuSans-27e9" d="M 1925 2006 
L 1044 -844 
L 513 -844 
L 1394 2006 
L 513 4856 
L 1044 4856 
L 1925 2006 
z
" transform="scale(0.015625)"/>
      </defs>
      <use xlink:href="#DejaVuSans-53" transform="translate(0 0.015625)"/>
      <use xlink:href="#DejaVuSans-70" transform="translate(63.476562 0.015625)"/>
      <use xlink:href="#DejaVuSans-6f" transform="translate(126.953125 0.015625)"/>
      <use xlink:href="#DejaVuSans-6e" transform="translate(188.134766 0.015625)"/>
      <use xlink:href="#DejaVuSans-74" transform="translate(251.513672 0.015625)"/>
      <use xlink:href="#DejaVuSans-61" transform="translate(290.722656 0.015625)"/>
      <use xlink:href="#DejaVuSans-6e" transform="translate(352.001953 0.015625)"/>
      <use xlink:href="#DejaVuSans-65" transform="translate(415.380859 0.015625)"/>
      <use xlink:href="#DejaVuSans-6f" transform="translate(476.904297 0.015625)"/>
      <use xlink:href="#DejaVuSans-75" transform="translate(538.085938 0.015625)"/>
      <use xlink:href="#DejaVuSans-73" transform="translate(601.464844 0.015625)"/>
      <use xlink:href="#DejaVuSans-20" transform="translate(653.564453 0.015625)"/>
      <use xlink:href="#DejaVuSans-4d" transform="translate(685.351562 0.015625)"/>
      <use xlink:href="#DejaVuSans-61" transform="translate(771.630859 0.015625)"/>
      <use xlink:href="#DejaVuSans-67" transform="translate(832.910156 0.015625)"/>
      <use xlink:href="#DejaVuSans-6e" transform="translate(896.386719 0.015625)"/>
      <use xlink:href="#DejaVuSans-65" transform="translate(959.765625 0.015625)"/>
      <use xlink:href="#DejaVuSans-74" transform="translate(1021.289062 0.015625)"/>
      <use xlink:href="#DejaVuSans-69" transform="translate(1060.498047 0.015625)"/>
      <use xlink:href="#DejaVuSans-7a" transform="translate(1088.28125 0.015625)"/>
      <use xlink:href="#DejaVuSans-61" transform="translate(1140.771484 0.015625)"/>
      <use xlink:href="#DejaVuSans-74" transform="translate(1202.050781 0.015625)"/>
      <use xlink:href="#DejaVuSans-69" transform="translate(1241.259766 0.015625)"/>
      <use xlink:href="#DejaVuSans-6f" transform="translate(1269.042969 0.015625)"/>
      <use xlink:href="#DejaVuSans-6e" transform="translate(1330.224609 0.015625)"/>
      <use xlink:href="#DejaVuSans-2c" transform="translate(1393.603516 0.015625)"/>
      <use xlink:href="#DejaVuSans-20" transform="translate(1425.390625 0.015625)"/>
      <use xlink:href="#DejaVuSans-27e8" transform="translate(1457.177734 0.015625)"/>
      <use xlink:href="#DejaVuSans-Oblique-73" transform="translate(1496.191406 0.015625)"/>
      <use xlink:href="#DejaVuSans-27e9" transform="translate(1548.291016 0.015625)"/>
     </g>
    </g>
   </g>
   <g id="line2d_175">
    <path d="M 57.6 94.6944 
L 155.19744 94.804747 
L 171.224064 95.071618 
L 183.35232 95.488255 
L 193.531392 96.054387 
L 202.411008 96.76629 
L 210.207744 97.605873 
L 217.354752 98.594751 
L 223.852032 99.716559 
L 229.699584 100.946309 
L 235.113984 102.309344 
L 240.095232 103.792724 
L 244.643328 105.37826 
L 248.758272 107.041649 
L 252.65664 108.859499 
L 256.121856 110.714287 
L 259.370496 112.701104 
L 262.40256 114.819455 
L 265.218048 117.067097 
L 267.81696 119.439249 
L 270.199296 121.92744 
L 272.365056 124.517902 
L 274.31424 127.189321 
L 276.046848 129.909863 
L 277.82784 133.148993 
L 279.36 136.412815 
L 280.76544 139.936629 
L 282.03264 143.71889 
L 283.17312 147.826812 
L 284.1984 152.368055 
L 285.09696 157.3802 
L 285.8688 162.962921 
L 286.52544 169.38139 
L 287.05536 176.796148 
L 287.47008 185.864009 
L 287.75808 197.197209 
L 287.93088 213.181805 
L 287.97696 225.291259 
L 288 307.584 
L 288 307.584 
" clip-path="url(#p06f0a38559)" style="fill: none; stroke: #1f77b4; stroke-width: 1.5; stroke-linecap: square"/>
   </g>
   <g id="line2d_176">
    <path d="M 59.904 94.6944 
L 154.368 94.800845 
L 165.888 94.955828 
L 182.016 95.41567 
L 188.928 95.763106 
L 200.448 96.633398 
L 209.664 97.605452 
L 214.272 98.144915 
L 216.576 98.419968 
L 218.88 98.861927 
L 221.184 99.143367 
L 223.488 99.705395 
L 228.096 100.560786 
L 233.1648 101.789159 
L 234.5472 101.962877 
L 235.9296 102.398875 
L 237.312 102.977509 
L 238.6944 103.284921 
L 240.0768 103.888676 
L 242.8416 104.71852 
L 244.224 105.463633 
L 246.9888 106.597058 
L 248.3712 106.852099 
L 251.136 108.304006 
L 252.5184 108.795781 
L 253.9008 109.438708 
L 255.2832 110.832709 
L 256.6656 111.127774 
L 258.048 112.30335 
L 259.4304 113.181307 
L 260.8128 113.788042 
L 262.1952 115.592495 
L 263.5776 115.985063 
L 264.96 118.053073 
L 265.4208 117.151272 
L 266.3424 119.432172 
L 266.8032 119.478581 
L 267.264 119.182239 
L 268.1856 120.35739 
L 268.6464 121.820793 
L 269.1072 120.839798 
L 269.568 123.603956 
L 270.0288 124.90386 
L 270.4896 124.132774 
L 270.9504 124.656482 
L 272.3328 127.205622 
L 272.7936 126.745355 
L 273.2544 126.909706 
L 274.176 132.538507 
L 274.6368 129.657259 
L 275.0976 131.615418 
L 275.5584 131.055944 
L 276.0192 135.334599 
L 276.48 137.058153 
L 276.9408 134.58097 
L 277.8624 139.005667 
L 278.3232 140.254478 
L 278.784 143.007566 
L 279.2448 140.665354 
L 279.7056 145.459628 
L 280.1664 145.610354 
L 280.6272 145.483898 
L 281.088 147.229592 
L 281.5488 154.735654 
L 282.0096 153.259477 
L 282.4704 150.434858 
L 282.9312 159.701942 
L 283.392 158.82654 
L 283.8528 161.327993 
L 284.3136 162.693893 
L 284.7744 167.842415 
L 285.2352 176.752271 
L 285.696 176.114453 
L 286.1568 179.968181 
L 286.6176 180.354363 
L 287.0784 186.169655 
L 287.5392 187.979216 
L 288 197.504749 
L 288.4608 202.915125 
L 288.9216 203.927628 
L 289.3824 211.569939 
L 289.8432 212.61693 
L 290.304 220.172382 
L 290.7648 221.866131 
L 291.2256 235.631573 
L 292.608 249.193918 
L 293.0688 255.938686 
L 293.5296 260.42129 
L 293.9904 268.009526 
L 294.4512 272.975815 
L 294.912 276.584294 
L 295.3728 276.028226 
L 295.8336 284.4016 
L 296.2944 284.345823 
L 297.216 289.129452 
L 297.6768 295.512308 
L 298.1376 292.140988 
L 298.5984 294.334177 
L 299.0592 298.557481 
L 299.52 299.763713 
L 299.9808 303.860561 
L 300.4416 302.331162 
L 300.9024 302.278365 
L 301.3632 306.792476 
L 301.824 302.756515 
L 302.2848 304.792592 
L 302.7456 306.130816 
L 303.2064 306.418217 
L 304.128 306.057582 
L 304.5888 308.175407 
L 305.0496 311.106471 
L 305.5104 309.332675 
L 305.9712 309.027391 
L 306.432 305.804243 
L 306.8928 304.784076 
L 307.8144 307.034745 
L 308.2752 306.005211 
L 308.736 309.038462 
L 309.1968 307.05944 
L 309.6576 308.099193 
L 310.1184 307.837764 
L 310.5792 306.263659 
L 311.04 307.946338 
L 312.4224 308.903064 
L 313.8048 306.812488 
L 315.1872 308.628862 
L 316.5696 309.216437 
L 317.952 307.987639 
L 319.3344 306.509333 
L 320.7168 307.902483 
L 322.0992 307.418798 
L 323.4816 308.514328 
L 324.864 307.467336 
L 326.2464 308.200528 
L 327.6288 307.232306 
L 329.0112 306.494857 
L 330.3936 309.127875 
L 331.776 305.903875 
L 333.1584 307.263814 
L 334.5408 307.875659 
L 335.9232 308.92265 
L 337.3056 306.911695 
L 338.688 309.048255 
L 340.0704 307.511192 
L 341.4528 309.106586 
L 342.8352 307.6385 
L 344.2176 307.49118 
L 345.6 308.580323 
L 347.904 306.529771 
L 350.208 307.311927 
L 352.512 307.755163 
L 354.816 308.53732 
L 357.12 307.755163 
L 359.424 306.585122 
L 361.728 307.920791 
L 364.032 307.023675 
L 366.336 308.644616 
L 368.64 307.009624 
L 370.944 305.830641 
L 373.248 309.102329 
L 375.552 307.029635 
L 377.856 306.756285 
L 380.16 307.356208 
L 382.464 307.15226 
L 384.768 307.991471 
L 387.072 308.472601 
L 389.376 307.683632 
L 391.68 308.331242 
L 393.984 308.512624 
L 396.288 307.924623 
L 398.592 306.74266 
L 400.896 309.063157 
L 403.2 307.692574 
L 403.2 307.692574 
" clip-path="url(#p06f0a38559)" style="fill: none; stroke: #ff7f0e; stroke-width: 1.5; stroke-linecap: square"/>
   </g>
   <g id="line2d_177">
    <path d="M 59.904 94.698232 
L 140.544 94.716541 
L 145.152 94.805528 
L 149.76 94.762525 
L 152.064 94.969879 
L 154.368 94.876208 
L 158.976 94.911122 
L 161.28 94.888555 
L 163.584 95.086968 
L 165.888 95.015863 
L 168.192 95.148706 
L 170.496 95.477834 
L 172.8 95.107832 
L 175.104 95.284104 
L 177.408 95.629411 
L 179.712 95.491459 
L 184.32 96.103729 
L 186.624 95.818457 
L 188.928 95.909574 
L 191.232 96.494594 
L 193.536 96.61211 
L 195.84 96.898659 
L 198.144 97.468777 
L 200.448 97.62589 
L 202.752 97.649733 
L 205.056 98.110852 
L 207.36 98.032083 
L 211.968 99.521885 
L 214.272 99.526568 
L 216.576 100.455618 
L 218.88 100.312982 
L 221.184 101.045323 
L 223.488 101.360825 
L 225.792 101.950529 
L 228.096 103.203597 
L 230.4 105.509192 
L 231.7824 104.644008 
L 233.1648 105.326107 
L 234.5472 106.679659 
L 235.9296 105.26224 
L 237.312 108.246952 
L 238.6944 108.42365 
L 240.0768 109.915581 
L 241.4592 109.347165 
L 242.8416 110.45334 
L 244.224 113.634762 
L 245.6064 112.737645 
L 246.9888 113.68841 
L 248.3712 113.71566 
L 249.7536 115.818583 
L 251.136 115.911829 
L 252.5184 118.091819 
L 253.9008 115.766638 
L 255.2832 119.153286 
L 256.6656 121.535947 
L 258.048 124.241348 
L 259.4304 124.691822 
L 260.8128 124.879591 
L 262.1952 132.452499 
L 263.5776 129.001133 
L 264.96 133.292988 
L 265.4208 132.23961 
L 265.8816 133.604658 
L 266.3424 136.713698 
L 266.8032 135.339708 
L 267.264 133.393046 
L 267.7248 135.257107 
L 268.1856 138.091519 
L 268.6464 139.310951 
L 269.1072 138.700809 
L 269.568 142.211784 
L 270.0288 141.810275 
L 270.4896 142.586044 
L 270.9504 143.912772 
L 271.4112 142.79127 
L 272.3328 149.37041 
L 272.7936 146.052739 
L 273.2544 151.721989 
L 273.7152 149.327832 
L 274.176 155.42201 
L 274.6368 150.349277 
L 275.0976 153.734647 
L 275.5584 152.588875 
L 276.0192 160.194995 
L 276.48 161.754624 
L 276.9408 158.60769 
L 277.4016 159.521412 
L 277.8624 161.19217 
L 278.3232 165.555555 
L 278.784 165.336704 
L 279.2448 164.768289 
L 279.7056 166.826932 
L 280.1664 172.60433 
L 280.6272 170.942939 
L 281.088 174.416446 
L 281.5488 176.663283 
L 282.0096 174.648921 
L 282.4704 176.988578 
L 282.9312 180.373097 
L 283.392 185.057945 
L 283.8528 180.93768 
L 284.3136 190.617344 
L 284.7744 191.184482 
L 285.696 198.283925 
L 286.1568 196.235075 
L 286.6176 199.198498 
L 287.0784 197.728283 
L 287.5392 205.240305 
L 288.4608 212.840038 
L 288.9216 213.999435 
L 289.3824 210.738392 
L 289.8432 213.715014 
L 290.304 221.943197 
L 290.7648 220.103406 
L 291.6864 231.358879 
L 292.1472 229.169948 
L 292.608 229.777535 
L 293.0688 238.604789 
L 293.5296 242.857472 
L 293.9904 239.359696 
L 294.4512 244.363879 
L 294.912 243.871252 
L 295.3728 247.068428 
L 295.8336 252.734272 
L 296.2944 256.594812 
L 296.7552 255.033905 
L 297.216 259.347474 
L 297.6768 260.182853 
L 298.1376 257.724404 
L 298.5984 265.715002 
L 299.0592 267.403643 
L 299.52 268.084889 
L 299.9808 272.69182 
L 300.4416 272.134901 
L 300.9024 275.69995 
L 301.3632 280.556388 
L 301.824 275.862598 
L 302.2848 283.837017 
L 302.7456 285.646152 
L 303.2064 285.003652 
L 303.6672 287.884048 
L 304.128 287.995602 
L 304.5888 288.672591 
L 305.0496 290.409344 
L 305.5104 288.310679 
L 305.9712 294.120436 
L 306.432 293.804508 
L 306.8928 294.18558 
L 307.3536 299.03776 
L 307.8144 295.752448 
L 308.2752 298.894698 
L 308.736 296.670428 
L 309.1968 300.473487 
L 309.6576 302.574708 
L 310.1184 301.415737 
L 310.5792 299.232767 
L 311.04 301.878984 
L 312.4224 304.695088 
L 313.8048 305.206023 
L 315.1872 304.08963 
L 316.5696 305.345679 
L 317.952 306.341576 
L 319.3344 305.043801 
L 320.7168 306.173819 
L 322.0992 306.060988 
L 323.4816 307.587832 
L 324.864 308.736159 
L 327.6288 305.533873 
L 329.0112 306.230874 
L 330.3936 307.92292 
L 331.776 305.382296 
L 333.1584 308.793213 
L 334.5408 308.953306 
L 335.9232 307.64659 
L 337.3056 307.410282 
L 338.688 308.278872 
L 340.0704 307.974014 
L 341.4528 306.336893 
L 342.8352 308.997587 
L 344.2176 308.181368 
L 345.6 308.323153 
L 347.904 307.226771 
L 350.208 306.489747 
L 352.512 307.487774 
L 354.816 307.72323 
L 357.12 307.26424 
L 359.424 306.65793 
L 361.728 307.69598 
L 364.032 307.378774 
L 366.336 307.221662 
L 368.64 308.142622 
L 370.944 307.144596 
L 373.248 307.785394 
L 375.552 306.943202 
L 377.856 306.624294 
L 380.16 307.640203 
L 382.464 307.341732 
L 384.768 308.391277 
L 387.072 308.55648 
L 389.376 307.991471 
L 391.68 307.833081 
L 393.984 307.844577 
L 396.288 307.260408 
L 398.592 307.773472 
L 400.896 308.1307 
L 403.2 307.165885 
L 403.2 307.165885 
" clip-path="url(#p06f0a38559)" style="fill: none; stroke: #2ca02c; stroke-width: 1.5; stroke-linecap: square"/>
   </g>
   <g id="line2d_178">
    <path d="M 59.904 103.338569 
L 110.77632 103.338569 
L 112.98816 103.504623 
L 115.2 103.288753 
L 119.808 103.384979 
L 122.112 104.19396 
L 124.416 103.22446 
L 126.72 103.910391 
L 131.328 103.824383 
L 133.632 104.133925 
L 138.24 103.823958 
L 140.544 104.443041 
L 142.848 105.520688 
L 147.456 105.168143 
L 149.76 104.33915 
L 152.064 106.798451 
L 154.368 105.499399 
L 156.672 104.576309 
L 158.976 105.637777 
L 161.28 106.936829 
L 163.584 107.545268 
L 168.192 107.561447 
L 170.496 108.884343 
L 172.8 108.191175 
L 175.104 109.327154 
L 177.408 109.848308 
L 179.712 109.400388 
L 182.016 111.777939 
L 184.32 112.222027 
L 186.624 111.046024 
L 188.928 113.00546 
L 193.536 114.080553 
L 195.84 115.04324 
L 198.144 115.792611 
L 200.448 115.143298 
L 202.752 117.490618 
L 205.056 119.007244 
L 207.36 118.822881 
L 209.664 121.574692 
L 211.968 121.739895 
L 214.272 122.260197 
L 216.576 123.635464 
L 218.88 124.337574 
L 221.184 125.40926 
L 223.488 127.735292 
L 225.792 131.319501 
L 228.096 131.213908 
L 230.4 134.41747 
L 231.7824 134.137308 
L 233.1648 133.454784 
L 234.5472 137.2753 
L 235.9296 135.88428 
L 237.312 137.483932 
L 238.6944 139.718422 
L 240.0768 141.360226 
L 241.4592 143.646235 
L 242.8416 143.940022 
L 244.224 147.743508 
L 245.6064 146.263925 
L 246.9888 147.922335 
L 248.3712 148.900776 
L 249.7536 151.279604 
L 251.136 152.146916 
L 252.5184 154.338828 
L 253.9008 154.753537 
L 255.2832 154.888934 
L 256.6656 159.153113 
L 258.048 162.482281 
L 259.4304 163.620388 
L 260.8128 163.472643 
L 262.1952 169.968331 
L 263.5776 168.785942 
L 264.96 173.871023 
L 265.4208 170.400071 
L 265.8816 176.147664 
L 267.264 173.989389 
L 267.7248 176.819969 
L 268.1856 178.509036 
L 268.6464 178.913526 
L 269.1072 180.043544 
L 269.568 181.864176 
L 270.0288 182.816644 
L 270.4896 182.347861 
L 270.9504 185.547166 
L 271.4112 182.114108 
L 271.872 184.939579 
L 272.3328 186.025742 
L 272.7936 186.503892 
L 273.2544 188.628956 
L 273.7152 188.310898 
L 274.176 192.821603 
L 274.6368 189.290191 
L 275.0976 189.875637 
L 275.5584 191.186611 
L 276.0192 194.611579 
L 276.48 195.895303 
L 276.9408 197.686556 
L 277.4016 196.599968 
L 277.8624 196.839256 
L 278.3232 202.809532 
L 278.784 199.637903 
L 279.2448 199.593622 
L 279.7056 202.103164 
L 280.1664 206.831016 
L 280.6272 203.515899 
L 281.5488 205.927513 
L 282.0096 204.754065 
L 282.4704 205.538776 
L 282.9312 209.392078 
L 283.392 211.750895 
L 283.8528 210.878048 
L 284.3136 215.955039 
L 284.7744 215.441123 
L 285.2352 214.655135 
L 285.696 218.445847 
L 286.1568 216.923261 
L 286.6176 219.453667 
L 287.0784 218.806908 
L 287.5392 222.953572 
L 288 224.339057 
L 288.4608 224.722258 
L 288.9216 226.221853 
L 289.3824 222.600175 
L 289.8432 225.353689 
L 290.304 227.421273 
L 290.7648 228.601107 
L 291.6864 231.776142 
L 292.608 232.869969 
L 293.0688 235.615393 
L 293.5296 236.938715 
L 293.9904 238.806183 
L 294.4512 238.896874 
L 294.912 237.654876 
L 295.3728 238.684836 
L 295.8336 243.113365 
L 296.2944 245.712321 
L 296.7552 245.298038 
L 297.6768 246.411877 
L 298.1376 245.134539 
L 298.5984 247.698581 
L 299.0592 246.373556 
L 299.52 249.692931 
L 299.9808 254.545537 
L 300.4416 255.099901 
L 300.9024 257.932184 
L 301.3632 257.910044 
L 301.824 255.940389 
L 302.2848 258.536791 
L 302.7456 260.051287 
L 303.2064 260.694214 
L 303.6672 261.012271 
L 304.128 262.646412 
L 304.5888 267.304436 
L 305.0496 265.692436 
L 305.5104 265.015447 
L 305.9712 269.013514 
L 306.432 266.307687 
L 306.8928 266.157813 
L 307.3536 272.973686 
L 307.8144 272.039101 
L 308.2752 268.963698 
L 308.736 272.864261 
L 310.1184 274.775158 
L 310.5792 276.437826 
L 311.04 275.288648 
L 312.4224 282.122404 
L 313.8048 280.596411 
L 315.1872 285.031327 
L 316.5696 286.796182 
L 317.952 288.01902 
L 319.3344 288.733903 
L 320.7168 292.4203 
L 322.0992 293.519661 
L 323.4816 296.907161 
L 324.864 295.428855 
L 326.2464 297.7617 
L 327.6288 299.626187 
L 329.0112 299.45034 
L 330.3936 299.010936 
L 331.776 301.183261 
L 333.1584 302.574282 
L 334.5408 299.061604 
L 335.9232 302.441013 
L 337.3056 304.998243 
L 338.688 305.77231 
L 340.0704 305.025067 
L 342.8352 304.262496 
L 344.2176 305.278831 
L 345.6 306.607688 
L 347.904 305.430409 
L 350.208 305.669697 
L 352.512 307.408153 
L 354.816 306.661762 
L 357.12 306.849105 
L 359.424 306.651118 
L 364.032 307.74537 
L 366.336 307.077749 
L 368.64 307.349821 
L 370.944 308.729346 
L 373.248 306.876355 
L 375.552 307.890135 
L 377.856 307.446473 
L 380.16 307.295322 
L 382.464 306.905734 
L 384.768 306.833777 
L 387.072 307.584852 
L 389.376 308.676549 
L 391.68 307.15226 
L 393.984 307.527797 
L 396.288 308.254176 
L 400.896 307.344712 
L 403.2 307.196967 
L 403.2 307.196967 
" clip-path="url(#p06f0a38559)" style="fill: none; stroke: #d62728; stroke-width: 1.5; stroke-linecap: square"/>
   </g>
   <g id="patch_2">
    <path d="M 57.6 307.584 
L 57.6 41.472 
" style="fill: none; stroke: #000000; stroke-width: 0.8; stroke-linejoin: miter; stroke-linecap: square"/>
   </g>
   <g id="patch_3">
    <path d="M 414.72 307.584 
L 414.72 41.472 
" style="fill: none; stroke: #000000; stroke-width: 0.8; stroke-linejoin: miter; stroke-linecap: square"/>
   </g>
   <g id="patch_4">
    <path d="M 57.6 307.584 
L 414.72 307.584 
" style="fill: none; stroke: #000000; stroke-width: 0.8; stroke-linejoin: miter; stroke-linecap: square"/>
   </g>
   <g id="patch_5">
    <path d="M 57.6 41.472 
L 414.72 41.472 
" style="fill: none; stroke: #000000; stroke-width: 0.8; stroke-linejoin: miter; stroke-linecap: square"/>
   </g>
   <g id="legend_1">
    <g id="patch_6">
     <path d="M 272.82 108.1845 
L 407.72 108.1845 
Q 409.72 108.1845 409.72 106.1845 
L 409.72 48.472 
Q 409.72 46.472 407.72 46.472 
L 272.82 46.472 
Q 270.82 46.472 270.82 48.472 
L 270.82 106.1845 
Q 270.82 108.1845 272.82 108.1845 
z
" style="fill: #ffffff; opacity: 0.8; stroke: #cccccc; stroke-linejoin: miter"/>
    </g>
    <g id="line2d_179">
     <path d="M 274.82 54.570438 
L 284.82 54.570438 
L 294.82 54.570438 
" style="fill: none; stroke: #1f77b4; stroke-width: 1.5; stroke-linecap: square"/>
    </g>
    <g id="text_18">
     <!-- Exact Solution -->
     <g transform="translate(302.82 58.070438) scale(0.1 -0.1)">
      <defs>
       <path id="DejaVuSans-45" d="M 628 4666 
L 3578 4666 
L 3578 4134 
L 1259 4134 
L 1259 2753 
L 3481 2753 
L 3481 2222 
L 1259 2222 
L 1259 531 
L 3634 531 
L 3634 0 
L 628 0 
L 628 4666 
z
" transform="scale(0.015625)"/>
       <path id="DejaVuSans-78" d="M 3513 3500 
L 2247 1797 
L 3578 0 
L 2900 0 
L 1881 1375 
L 863 0 
L 184 0 
L 1544 1831 
L 300 3500 
L 978 3500 
L 1906 2253 
L 2834 3500 
L 3513 3500 
z
" transform="scale(0.015625)"/>
       <path id="DejaVuSans-63" d="M 3122 3366 
L 3122 2828 
Q 2878 2963 2633 3030 
Q 2388 3097 2138 3097 
Q 1578 3097 1268 2742 
Q 959 2388 959 1747 
Q 959 1106 1268 751 
Q 1578 397 2138 397 
Q 2388 397 2633 464 
Q 2878 531 3122 666 
L 3122 134 
Q 2881 22 2623 -34 
Q 2366 -91 2075 -91 
Q 1284 -91 818 406 
Q 353 903 353 1747 
Q 353 2603 823 3093 
Q 1294 3584 2113 3584 
Q 2378 3584 2631 3529 
Q 2884 3475 3122 3366 
z
" transform="scale(0.015625)"/>
      </defs>
      <use xlink:href="#DejaVuSans-45"/>
      <use xlink:href="#DejaVuSans-78" x="63.183594"/>
      <use xlink:href="#DejaVuSans-61" x="122.363281"/>
      <use xlink:href="#DejaVuSans-63" x="183.642578"/>
      <use xlink:href="#DejaVuSans-74" x="238.623047"/>
      <use xlink:href="#DejaVuSans-20" x="277.832031"/>
      <use xlink:href="#DejaVuSans-53" x="309.619141"/>
      <use xlink:href="#DejaVuSans-6f" x="373.095703"/>
      <use xlink:href="#DejaVuSans-6c" x="434.277344"/>
      <use xlink:href="#DejaVuSans-75" x="462.060547"/>
      <use xlink:href="#DejaVuSans-74" x="525.439453"/>
      <use xlink:href="#DejaVuSans-69" x="564.648438"/>
      <use xlink:href="#DejaVuSans-6f" x="592.431641"/>
      <use xlink:href="#DejaVuSans-6e" x="653.613281"/>
     </g>
    </g>
    <g id="line2d_180">
     <path d="M 274.82 69.248563 
L 284.82 69.248563 
L 294.82 69.248563 
" style="fill: none; stroke: #ff7f0e; stroke-width: 1.5; stroke-linecap: square"/>
    </g>
    <g id="text_19">
     <!-- $1.00 \times 10^{9}$ Iterations -->
     <g transform="translate(302.82 72.748563) scale(0.1 -0.1)">
      <defs>
       <path id="DejaVuSans-d7" d="M 4488 3438 
L 3059 2003 
L 4488 575 
L 4116 197 
L 2681 1631 
L 1247 197 
L 878 575 
L 2303 2003 
L 878 3438 
L 1247 3816 
L 2681 2381 
L 4116 3816 
L 4488 3438 
z
" transform="scale(0.015625)"/>
       <path id="DejaVuSans-39" d="M 703 97 
L 703 672 
Q 941 559 1184 500 
Q 1428 441 1663 441 
Q 2288 441 2617 861 
Q 2947 1281 2994 2138 
Q 2813 1869 2534 1725 
Q 2256 1581 1919 1581 
Q 1219 1581 811 2004 
Q 403 2428 403 3163 
Q 403 3881 828 4315 
Q 1253 4750 1959 4750 
Q 2769 4750 3195 4129 
Q 3622 3509 3622 2328 
Q 3622 1225 3098 567 
Q 2575 -91 1691 -91 
Q 1453 -91 1209 -44 
Q 966 3 703 97 
z
M 1959 2075 
Q 2384 2075 2632 2365 
Q 2881 2656 2881 3163 
Q 2881 3666 2632 3958 
Q 2384 4250 1959 4250 
Q 1534 4250 1286 3958 
Q 1038 3666 1038 3163 
Q 1038 2656 1286 2365 
Q 1534 2075 1959 2075 
z
" transform="scale(0.015625)"/>
       <path id="DejaVuSans-49" d="M 628 4666 
L 1259 4666 
L 1259 0 
L 628 0 
L 628 4666 
z
" transform="scale(0.015625)"/>
      </defs>
      <use xlink:href="#DejaVuSans-31" transform="translate(0 0.765625)"/>
      <use xlink:href="#DejaVuSans-2e" transform="translate(63.623047 0.765625)"/>
      <use xlink:href="#DejaVuSans-30" transform="translate(95.410156 0.765625)"/>
      <use xlink:href="#DejaVuSans-30" transform="translate(159.033203 0.765625)"/>
      <use xlink:href="#DejaVuSans-d7" transform="translate(242.138672 0.765625)"/>
      <use xlink:href="#DejaVuSans-31" transform="translate(345.410156 0.765625)"/>
      <use xlink:href="#DejaVuSans-30" transform="translate(409.033203 0.765625)"/>
      <use xlink:href="#DejaVuSans-39" transform="translate(473.613281 39.046875) scale(0.7)"/>
      <use xlink:href="#DejaVuSans-20" transform="translate(520.883789 0.765625)"/>
      <use xlink:href="#DejaVuSans-49" transform="translate(552.670898 0.765625)"/>
      <use xlink:href="#DejaVuSans-74" transform="translate(582.163086 0.765625)"/>
      <use xlink:href="#DejaVuSans-65" transform="translate(621.37207 0.765625)"/>
      <use xlink:href="#DejaVuSans-72" transform="translate(682.895508 0.765625)"/>
      <use xlink:href="#DejaVuSans-61" transform="translate(724.008789 0.765625)"/>
      <use xlink:href="#DejaVuSans-74" transform="translate(785.288086 0.765625)"/>
      <use xlink:href="#DejaVuSans-69" transform="translate(824.49707 0.765625)"/>
      <use xlink:href="#DejaVuSans-6f" transform="translate(852.280273 0.765625)"/>
      <use xlink:href="#DejaVuSans-6e" transform="translate(913.461914 0.765625)"/>
      <use xlink:href="#DejaVuSans-73" transform="translate(976.84082 0.765625)"/>
     </g>
    </g>
    <g id="line2d_181">
     <path d="M 274.82 83.926688 
L 284.82 83.926688 
L 294.82 83.926688 
" style="fill: none; stroke: #2ca02c; stroke-width: 1.5; stroke-linecap: square"/>
    </g>
    <g id="text_20">
     <!-- $2.50 \times 10^{8}$ Iterations -->
     <g transform="translate(302.82 87.426688) scale(0.1 -0.1)">
      <defs>
       <path id="DejaVuSans-35" d="M 691 4666 
L 3169 4666 
L 3169 4134 
L 1269 4134 
L 1269 2991 
Q 1406 3038 1543 3061 
Q 1681 3084 1819 3084 
Q 2600 3084 3056 2656 
Q 3513 2228 3513 1497 
Q 3513 744 3044 326 
Q 2575 -91 1722 -91 
Q 1428 -91 1123 -41 
Q 819 9 494 109 
L 494 744 
Q 775 591 1075 516 
Q 1375 441 1709 441 
Q 2250 441 2565 725 
Q 2881 1009 2881 1497 
Q 2881 1984 2565 2268 
Q 2250 2553 1709 2553 
Q 1456 2553 1204 2497 
Q 953 2441 691 2322 
L 691 4666 
z
" transform="scale(0.015625)"/>
      </defs>
      <use xlink:href="#DejaVuSans-32" transform="translate(0 0.765625)"/>
      <use xlink:href="#DejaVuSans-2e" transform="translate(63.623047 0.765625)"/>
      <use xlink:href="#DejaVuSans-35" transform="translate(95.410156 0.765625)"/>
      <use xlink:href="#DejaVuSans-30" transform="translate(159.033203 0.765625)"/>
      <use xlink:href="#DejaVuSans-d7" transform="translate(242.138672 0.765625)"/>
      <use xlink:href="#DejaVuSans-31" transform="translate(345.410156 0.765625)"/>
      <use xlink:href="#DejaVuSans-30" transform="translate(409.033203 0.765625)"/>
      <use xlink:href="#DejaVuSans-38" transform="translate(473.613281 39.046875) scale(0.7)"/>
      <use xlink:href="#DejaVuSans-20" transform="translate(520.883789 0.765625)"/>
      <use xlink:href="#DejaVuSans-49" transform="translate(552.670898 0.765625)"/>
      <use xlink:href="#DejaVuSans-74" transform="translate(582.163086 0.765625)"/>
      <use xlink:href="#DejaVuSans-65" transform="translate(621.37207 0.765625)"/>
      <use xlink:href="#DejaVuSans-72" transform="translate(682.895508 0.765625)"/>
      <use xlink:href="#DejaVuSans-61" transform="translate(724.008789 0.765625)"/>
      <use xlink:href="#DejaVuSans-74" transform="translate(785.288086 0.765625)"/>
      <use xlink:href="#DejaVuSans-69" transform="translate(824.49707 0.765625)"/>
      <use xlink:href="#DejaVuSans-6f" transform="translate(852.280273 0.765625)"/>
      <use xlink:href="#DejaVuSans-6e" transform="translate(913.461914 0.765625)"/>
      <use xlink:href="#DejaVuSans-73" transform="translate(976.84082 0.765625)"/>
     </g>
    </g>
    <g id="line2d_182">
     <path d="M 274.82 98.604813 
L 284.82 98.604813 
L 294.82 98.604813 
" style="fill: none; stroke: #d62728; stroke-width: 1.5; stroke-linecap: square"/>
    </g>
    <g id="text_21">
     <!-- $6.25 \times 10^{7}$ Iterations -->
     <g transform="translate(302.82 102.104813) scale(0.1 -0.1)">
      <defs>
       <path id="DejaVuSans-37" d="M 525 4666 
L 3525 4666 
L 3525 4397 
L 1831 0 
L 1172 0 
L 2766 4134 
L 525 4134 
L 525 4666 
z
" transform="scale(0.015625)"/>
      </defs>
      <use xlink:href="#DejaVuSans-36" transform="translate(0 0.684375)"/>
      <use xlink:href="#DejaVuSans-2e" transform="translate(63.623047 0.684375)"/>
      <use xlink:href="#DejaVuSans-32" transform="translate(89.910156 0.684375)"/>
      <use xlink:href="#DejaVuSans-35" transform="translate(153.533203 0.684375)"/>
      <use xlink:href="#DejaVuSans-d7" transform="translate(236.638672 0.684375)"/>
      <use xlink:href="#DejaVuSans-31" transform="translate(339.910156 0.684375)"/>
      <use xlink:href="#DejaVuSans-30" transform="translate(403.533203 0.684375)"/>
      <use xlink:href="#DejaVuSans-37" transform="translate(468.113281 38.965625) scale(0.7)"/>
      <use xlink:href="#DejaVuSans-20" transform="translate(515.383789 0.684375)"/>
      <use xlink:href="#DejaVuSans-49" transform="translate(547.170898 0.684375)"/>
      <use xlink:href="#DejaVuSans-74" transform="translate(576.663086 0.684375)"/>
      <use xlink:href="#DejaVuSans-65" transform="translate(615.87207 0.684375)"/>
      <use xlink:href="#DejaVuSans-72" transform="translate(677.395508 0.684375)"/>
      <use xlink:href="#DejaVuSans-61" transform="translate(718.508789 0.684375)"/>
      <use xlink:href="#DejaVuSans-74" transform="translate(779.788086 0.684375)"/>
      <use xlink:href="#DejaVuSans-69" transform="translate(818.99707 0.684375)"/>
      <use xlink:href="#DejaVuSans-6f" transform="translate(846.780273 0.684375)"/>
      <use xlink:href="#DejaVuSans-6e" transform="translate(907.961914 0.684375)"/>
      <use xlink:href="#DejaVuSans-73" transform="translate(971.34082 0.684375)"/>
     </g>
    </g>
   </g>
  </g>
 </g>
 <defs>
  <clipPath id="p06f0a38559">
   <rect x="57.6" y="41.472" width="357.12" height="266.112"/>
  </clipPath>
 </defs>
</svg>
