<?xml version="1.0" encoding="utf-8" standalone="no"?>
<!DOCTYPE svg PUBLIC "-//W3C//DTD SVG 1.1//EN"
  "http://www.w3.org/Graphics/SVG/1.1/DTD/svg11.dtd">
<svg xmlns:xlink="http://www.w3.org/1999/xlink" width="460.8pt" height="345.6pt" viewBox="0 0 460.8 345.6" xmlns="http://www.w3.org/2000/svg" version="1.1">
 <metadata>
  <rdf:RDF xmlns:dc="http://purl.org/dc/elements/1.1/" xmlns:cc="http://creativecommons.org/ns#" xmlns:rdf="http://www.w3.org/1999/02/22-rdf-syntax-ns#">
   <cc:Work>
    <dc:type rdf:resource="http://purl.org/dc/dcmitype/StillImage"/>
    <dc:date>2024-04-05T04:09:32.505835</dc:date>
    <dc:format>image/svg+xml</dc:format>
    <dc:creator>
     <cc:Agent>
      <dc:title>Matplotlib v3.8.3, https://matplotlib.org/</dc:title>
     </cc:Agent>
    </dc:creator>
   </cc:Work>
  </rdf:RDF>
 </metadata>
 <defs>
  <style type="text/css">*{stroke-linejoin: round; stroke-linecap: butt}</style>
 </defs>
 <g id="figure_1">
  <g id="patch_1">
   <path d="M 0 345.6 
L 460.8 345.6 
L 460.8 0 
L 0 0 
z
" style="fill: #ffffff"/>
  </g>
  <g id="axes_1">
   <g id="patch_2">
    <path d="M 57.6 307.584 
L 414.72 307.584 
L 414.72 41.472 
L 57.6 41.472 
z
" style="fill: #ffffff"/>
   </g>
   <g id="matplotlib.axis_1">
    <g id="xtick_1">
     <g id="line2d_1">
      <path d="M 57.6 307.584 
L 57.6 41.472 
" clip-path="url(#pd9365a7f6e)" style="fill: none; stroke-dasharray: 2.96,1.28; stroke-dashoffset: 0; stroke: #b0b0b0; stroke-width: 0.8"/>
     </g>
     <g id="line2d_2">
      <defs>
       <path id="me5c3a7baea" d="M 0 0 
L 0 3.5 
" style="stroke: #000000; stroke-width: 0.8"/>
      </defs>
      <g>
       <use xlink:href="#me5c3a7baea" x="57.6" y="307.584" style="stroke: #000000; stroke-width: 0.8"/>
      </g>
     </g>
     <g id="line2d_3">
      <defs>
       <path id="m5ca0791ea7" d="M 0 0 
L 0 -3.5 
" style="stroke: #000000; stroke-width: 0.8"/>
      </defs>
      <g>
       <use xlink:href="#m5ca0791ea7" x="57.6" y="41.472" style="stroke: #000000; stroke-width: 0.8"/>
      </g>
     </g>
     <g id="text_1">
      <!-- 0.0 -->
      <g transform="translate(49.648438 322.182437) scale(0.1 -0.1)">
       <defs>
        <path id="DejaVuSans-30" d="M 2034 4250 
Q 1547 4250 1301 3770 
Q 1056 3291 1056 2328 
Q 1056 1369 1301 889 
Q 1547 409 2034 409 
Q 2525 409 2770 889 
Q 3016 1369 3016 2328 
Q 3016 3291 2770 3770 
Q 2525 4250 2034 4250 
z
M 2034 4750 
Q 2819 4750 3233 4129 
Q 3647 3509 3647 2328 
Q 3647 1150 3233 529 
Q 2819 -91 2034 -91 
Q 1250 -91 836 529 
Q 422 1150 422 2328 
Q 422 3509 836 4129 
Q 1250 4750 2034 4750 
z
" transform="scale(0.015625)"/>
        <path id="DejaVuSans-2e" d="M 684 794 
L 1344 794 
L 1344 0 
L 684 0 
L 684 794 
z
" transform="scale(0.015625)"/>
       </defs>
       <use xlink:href="#DejaVuSans-30"/>
       <use xlink:href="#DejaVuSans-2e" x="63.623047"/>
       <use xlink:href="#DejaVuSans-30" x="95.410156"/>
      </g>
     </g>
    </g>
    <g id="xtick_2">
     <g id="line2d_4">
      <path d="M 103.68 307.584 
L 103.68 41.472 
" clip-path="url(#pd9365a7f6e)" style="fill: none; stroke-dasharray: 2.96,1.28; stroke-dashoffset: 0; stroke: #b0b0b0; stroke-width: 0.8"/>
     </g>
     <g id="line2d_5">
      <g>
       <use xlink:href="#me5c3a7baea" x="103.68" y="307.584" style="stroke: #000000; stroke-width: 0.8"/>
      </g>
     </g>
     <g id="line2d_6">
      <g>
       <use xlink:href="#m5ca0791ea7" x="103.68" y="41.472" style="stroke: #000000; stroke-width: 0.8"/>
      </g>
     </g>
     <g id="text_2">
      <!-- 0.2 -->
      <g transform="translate(95.728438 322.182437) scale(0.1 -0.1)">
       <defs>
        <path id="DejaVuSans-32" d="M 1228 531 
L 3431 531 
L 3431 0 
L 469 0 
L 469 531 
Q 828 903 1448 1529 
Q 2069 2156 2228 2338 
Q 2531 2678 2651 2914 
Q 2772 3150 2772 3378 
Q 2772 3750 2511 3984 
Q 2250 4219 1831 4219 
Q 1534 4219 1204 4116 
Q 875 4013 500 3803 
L 500 4441 
Q 881 4594 1212 4672 
Q 1544 4750 1819 4750 
Q 2544 4750 2975 4387 
Q 3406 4025 3406 3419 
Q 3406 3131 3298 2873 
Q 3191 2616 2906 2266 
Q 2828 2175 2409 1742 
Q 1991 1309 1228 531 
z
" transform="scale(0.015625)"/>
       </defs>
       <use xlink:href="#DejaVuSans-30"/>
       <use xlink:href="#DejaVuSans-2e" x="63.623047"/>
       <use xlink:href="#DejaVuSans-32" x="95.410156"/>
      </g>
     </g>
    </g>
    <g id="xtick_3">
     <g id="line2d_7">
      <path d="M 149.76 307.584 
L 149.76 41.472 
" clip-path="url(#pd9365a7f6e)" style="fill: none; stroke-dasharray: 2.96,1.28; stroke-dashoffset: 0; stroke: #b0b0b0; stroke-width: 0.8"/>
     </g>
     <g id="line2d_8">
      <g>
       <use xlink:href="#me5c3a7baea" x="149.76" y="307.584" style="stroke: #000000; stroke-width: 0.8"/>
      </g>
     </g>
     <g id="line2d_9">
      <g>
       <use xlink:href="#m5ca0791ea7" x="149.76" y="41.472" style="stroke: #000000; stroke-width: 0.8"/>
      </g>
     </g>
     <g id="text_3">
      <!-- 0.4 -->
      <g transform="translate(141.808438 322.182437) scale(0.1 -0.1)">
       <defs>
        <path id="DejaVuSans-34" d="M 2419 4116 
L 825 1625 
L 2419 1625 
L 2419 4116 
z
M 2253 4666 
L 3047 4666 
L 3047 1625 
L 3713 1625 
L 3713 1100 
L 3047 1100 
L 3047 0 
L 2419 0 
L 2419 1100 
L 313 1100 
L 313 1709 
L 2253 4666 
z
" transform="scale(0.015625)"/>
       </defs>
       <use xlink:href="#DejaVuSans-30"/>
       <use xlink:href="#DejaVuSans-2e" x="63.623047"/>
       <use xlink:href="#DejaVuSans-34" x="95.410156"/>
      </g>
     </g>
    </g>
    <g id="xtick_4">
     <g id="line2d_10">
      <path d="M 195.84 307.584 
L 195.84 41.472 
" clip-path="url(#pd9365a7f6e)" style="fill: none; stroke-dasharray: 2.96,1.28; stroke-dashoffset: 0; stroke: #b0b0b0; stroke-width: 0.8"/>
     </g>
     <g id="line2d_11">
      <g>
       <use xlink:href="#me5c3a7baea" x="195.84" y="307.584" style="stroke: #000000; stroke-width: 0.8"/>
      </g>
     </g>
     <g id="line2d_12">
      <g>
       <use xlink:href="#m5ca0791ea7" x="195.84" y="41.472" style="stroke: #000000; stroke-width: 0.8"/>
      </g>
     </g>
     <g id="text_4">
      <!-- 0.6 -->
      <g transform="translate(187.888438 322.182437) scale(0.1 -0.1)">
       <defs>
        <path id="DejaVuSans-36" d="M 2113 2584 
Q 1688 2584 1439 2293 
Q 1191 2003 1191 1497 
Q 1191 994 1439 701 
Q 1688 409 2113 409 
Q 2538 409 2786 701 
Q 3034 994 3034 1497 
Q 3034 2003 2786 2293 
Q 2538 2584 2113 2584 
z
M 3366 4563 
L 3366 3988 
Q 3128 4100 2886 4159 
Q 2644 4219 2406 4219 
Q 1781 4219 1451 3797 
Q 1122 3375 1075 2522 
Q 1259 2794 1537 2939 
Q 1816 3084 2150 3084 
Q 2853 3084 3261 2657 
Q 3669 2231 3669 1497 
Q 3669 778 3244 343 
Q 2819 -91 2113 -91 
Q 1303 -91 875 529 
Q 447 1150 447 2328 
Q 447 3434 972 4092 
Q 1497 4750 2381 4750 
Q 2619 4750 2861 4703 
Q 3103 4656 3366 4563 
z
" transform="scale(0.015625)"/>
       </defs>
       <use xlink:href="#DejaVuSans-30"/>
       <use xlink:href="#DejaVuSans-2e" x="63.623047"/>
       <use xlink:href="#DejaVuSans-36" x="95.410156"/>
      </g>
     </g>
    </g>
    <g id="xtick_5">
     <g id="line2d_13">
      <path d="M 241.92 307.584 
L 241.92 41.472 
" clip-path="url(#pd9365a7f6e)" style="fill: none; stroke-dasharray: 2.96,1.28; stroke-dashoffset: 0; stroke: #b0b0b0; stroke-width: 0.8"/>
     </g>
     <g id="line2d_14">
      <g>
       <use xlink:href="#me5c3a7baea" x="241.92" y="307.584" style="stroke: #000000; stroke-width: 0.8"/>
      </g>
     </g>
     <g id="line2d_15">
      <g>
       <use xlink:href="#m5ca0791ea7" x="241.92" y="41.472" style="stroke: #000000; stroke-width: 0.8"/>
      </g>
     </g>
     <g id="text_5">
      <!-- 0.8 -->
      <g transform="translate(233.968438 322.182437) scale(0.1 -0.1)">
       <defs>
        <path id="DejaVuSans-38" d="M 2034 2216 
Q 1584 2216 1326 1975 
Q 1069 1734 1069 1313 
Q 1069 891 1326 650 
Q 1584 409 2034 409 
Q 2484 409 2743 651 
Q 3003 894 3003 1313 
Q 3003 1734 2745 1975 
Q 2488 2216 2034 2216 
z
M 1403 2484 
Q 997 2584 770 2862 
Q 544 3141 544 3541 
Q 544 4100 942 4425 
Q 1341 4750 2034 4750 
Q 2731 4750 3128 4425 
Q 3525 4100 3525 3541 
Q 3525 3141 3298 2862 
Q 3072 2584 2669 2484 
Q 3125 2378 3379 2068 
Q 3634 1759 3634 1313 
Q 3634 634 3220 271 
Q 2806 -91 2034 -91 
Q 1263 -91 848 271 
Q 434 634 434 1313 
Q 434 1759 690 2068 
Q 947 2378 1403 2484 
z
M 1172 3481 
Q 1172 3119 1398 2916 
Q 1625 2713 2034 2713 
Q 2441 2713 2670 2916 
Q 2900 3119 2900 3481 
Q 2900 3844 2670 4047 
Q 2441 4250 2034 4250 
Q 1625 4250 1398 4047 
Q 1172 3844 1172 3481 
z
" transform="scale(0.015625)"/>
       </defs>
       <use xlink:href="#DejaVuSans-30"/>
       <use xlink:href="#DejaVuSans-2e" x="63.623047"/>
       <use xlink:href="#DejaVuSans-38" x="95.410156"/>
      </g>
     </g>
    </g>
    <g id="xtick_6">
     <g id="line2d_16">
      <path d="M 288 307.584 
L 288 41.472 
" clip-path="url(#pd9365a7f6e)" style="fill: none; stroke-dasharray: 2.96,1.28; stroke-dashoffset: 0; stroke: #b0b0b0; stroke-width: 0.8"/>
     </g>
     <g id="line2d_17">
      <g>
       <use xlink:href="#me5c3a7baea" x="288" y="307.584" style="stroke: #000000; stroke-width: 0.8"/>
      </g>
     </g>
     <g id="line2d_18">
      <g>
       <use xlink:href="#m5ca0791ea7" x="288" y="41.472" style="stroke: #000000; stroke-width: 0.8"/>
      </g>
     </g>
     <g id="text_6">
      <!-- 1.0 -->
      <g transform="translate(280.048437 322.182437) scale(0.1 -0.1)">
       <defs>
        <path id="DejaVuSans-31" d="M 794 531 
L 1825 531 
L 1825 4091 
L 703 3866 
L 703 4441 
L 1819 4666 
L 2450 4666 
L 2450 531 
L 3481 531 
L 3481 0 
L 794 0 
L 794 531 
z
" transform="scale(0.015625)"/>
       </defs>
       <use xlink:href="#DejaVuSans-31"/>
       <use xlink:href="#DejaVuSans-2e" x="63.623047"/>
       <use xlink:href="#DejaVuSans-30" x="95.410156"/>
      </g>
     </g>
    </g>
    <g id="xtick_7">
     <g id="line2d_19">
      <path d="M 334.08 307.584 
L 334.08 41.472 
" clip-path="url(#pd9365a7f6e)" style="fill: none; stroke-dasharray: 2.96,1.28; stroke-dashoffset: 0; stroke: #b0b0b0; stroke-width: 0.8"/>
     </g>
     <g id="line2d_20">
      <g>
       <use xlink:href="#me5c3a7baea" x="334.08" y="307.584" style="stroke: #000000; stroke-width: 0.8"/>
      </g>
     </g>
     <g id="line2d_21">
      <g>
       <use xlink:href="#m5ca0791ea7" x="334.08" y="41.472" style="stroke: #000000; stroke-width: 0.8"/>
      </g>
     </g>
     <g id="text_7">
      <!-- 1.2 -->
      <g transform="translate(326.128438 322.182437) scale(0.1 -0.1)">
       <use xlink:href="#DejaVuSans-31"/>
       <use xlink:href="#DejaVuSans-2e" x="63.623047"/>
       <use xlink:href="#DejaVuSans-32" x="95.410156"/>
      </g>
     </g>
    </g>
    <g id="xtick_8">
     <g id="line2d_22">
      <path d="M 380.16 307.584 
L 380.16 41.472 
" clip-path="url(#pd9365a7f6e)" style="fill: none; stroke-dasharray: 2.96,1.28; stroke-dashoffset: 0; stroke: #b0b0b0; stroke-width: 0.8"/>
     </g>
     <g id="line2d_23">
      <g>
       <use xlink:href="#me5c3a7baea" x="380.16" y="307.584" style="stroke: #000000; stroke-width: 0.8"/>
      </g>
     </g>
     <g id="line2d_24">
      <g>
       <use xlink:href="#m5ca0791ea7" x="380.16" y="41.472" style="stroke: #000000; stroke-width: 0.8"/>
      </g>
     </g>
     <g id="text_8">
      <!-- 1.4 -->
      <g transform="translate(372.208438 322.182437) scale(0.1 -0.1)">
       <use xlink:href="#DejaVuSans-31"/>
       <use xlink:href="#DejaVuSans-2e" x="63.623047"/>
       <use xlink:href="#DejaVuSans-34" x="95.410156"/>
      </g>
     </g>
    </g>
    <g id="xtick_9">
     <g id="line2d_25">
      <path d="M 69.12 307.584 
L 69.12 41.472 
" clip-path="url(#pd9365a7f6e)" style="fill: none; stroke-dasharray: 0.8,1.32; stroke-dashoffset: 0; stroke: #b0b0b0; stroke-width: 0.8"/>
     </g>
     <g id="line2d_26">
      <defs>
       <path id="me85345fbee" d="M 0 0 
L 0 3 
" style="stroke: #000000; stroke-width: 0.5"/>
      </defs>
      <g>
       <use xlink:href="#me85345fbee" x="69.12" y="307.584" style="stroke: #000000; stroke-width: 0.5"/>
      </g>
     </g>
     <g id="line2d_27">
      <defs>
       <path id="m7fe510b289" d="M 0 0 
L 0 -3 
" style="stroke: #000000; stroke-width: 0.5"/>
      </defs>
      <g>
       <use xlink:href="#m7fe510b289" x="69.12" y="41.472" style="stroke: #000000; stroke-width: 0.5"/>
      </g>
     </g>
    </g>
    <g id="xtick_10">
     <g id="line2d_28">
      <path d="M 80.64 307.584 
L 80.64 41.472 
" clip-path="url(#pd9365a7f6e)" style="fill: none; stroke-dasharray: 0.8,1.32; stroke-dashoffset: 0; stroke: #b0b0b0; stroke-width: 0.8"/>
     </g>
     <g id="line2d_29">
      <g>
       <use xlink:href="#me85345fbee" x="80.64" y="307.584" style="stroke: #000000; stroke-width: 0.5"/>
      </g>
     </g>
     <g id="line2d_30">
      <g>
       <use xlink:href="#m7fe510b289" x="80.64" y="41.472" style="stroke: #000000; stroke-width: 0.5"/>
      </g>
     </g>
    </g>
    <g id="xtick_11">
     <g id="line2d_31">
      <path d="M 92.16 307.584 
L 92.16 41.472 
" clip-path="url(#pd9365a7f6e)" style="fill: none; stroke-dasharray: 0.8,1.32; stroke-dashoffset: 0; stroke: #b0b0b0; stroke-width: 0.8"/>
     </g>
     <g id="line2d_32">
      <g>
       <use xlink:href="#me85345fbee" x="92.16" y="307.584" style="stroke: #000000; stroke-width: 0.5"/>
      </g>
     </g>
     <g id="line2d_33">
      <g>
       <use xlink:href="#m7fe510b289" x="92.16" y="41.472" style="stroke: #000000; stroke-width: 0.5"/>
      </g>
     </g>
    </g>
    <g id="xtick_12">
     <g id="line2d_34">
      <path d="M 115.2 307.584 
L 115.2 41.472 
" clip-path="url(#pd9365a7f6e)" style="fill: none; stroke-dasharray: 0.8,1.32; stroke-dashoffset: 0; stroke: #b0b0b0; stroke-width: 0.8"/>
     </g>
     <g id="line2d_35">
      <g>
       <use xlink:href="#me85345fbee" x="115.2" y="307.584" style="stroke: #000000; stroke-width: 0.5"/>
      </g>
     </g>
     <g id="line2d_36">
      <g>
       <use xlink:href="#m7fe510b289" x="115.2" y="41.472" style="stroke: #000000; stroke-width: 0.5"/>
      </g>
     </g>
    </g>
    <g id="xtick_13">
     <g id="line2d_37">
      <path d="M 126.72 307.584 
L 126.72 41.472 
" clip-path="url(#pd9365a7f6e)" style="fill: none; stroke-dasharray: 0.8,1.32; stroke-dashoffset: 0; stroke: #b0b0b0; stroke-width: 0.8"/>
     </g>
     <g id="line2d_38">
      <g>
       <use xlink:href="#me85345fbee" x="126.72" y="307.584" style="stroke: #000000; stroke-width: 0.5"/>
      </g>
     </g>
     <g id="line2d_39">
      <g>
       <use xlink:href="#m7fe510b289" x="126.72" y="41.472" style="stroke: #000000; stroke-width: 0.5"/>
      </g>
     </g>
    </g>
    <g id="xtick_14">
     <g id="line2d_40">
      <path d="M 138.24 307.584 
L 138.24 41.472 
" clip-path="url(#pd9365a7f6e)" style="fill: none; stroke-dasharray: 0.8,1.32; stroke-dashoffset: 0; stroke: #b0b0b0; stroke-width: 0.8"/>
     </g>
     <g id="line2d_41">
      <g>
       <use xlink:href="#me85345fbee" x="138.24" y="307.584" style="stroke: #000000; stroke-width: 0.5"/>
      </g>
     </g>
     <g id="line2d_42">
      <g>
       <use xlink:href="#m7fe510b289" x="138.24" y="41.472" style="stroke: #000000; stroke-width: 0.5"/>
      </g>
     </g>
    </g>
    <g id="xtick_15">
     <g id="line2d_43">
      <path d="M 161.28 307.584 
L 161.28 41.472 
" clip-path="url(#pd9365a7f6e)" style="fill: none; stroke-dasharray: 0.8,1.32; stroke-dashoffset: 0; stroke: #b0b0b0; stroke-width: 0.8"/>
     </g>
     <g id="line2d_44">
      <g>
       <use xlink:href="#me85345fbee" x="161.28" y="307.584" style="stroke: #000000; stroke-width: 0.5"/>
      </g>
     </g>
     <g id="line2d_45">
      <g>
       <use xlink:href="#m7fe510b289" x="161.28" y="41.472" style="stroke: #000000; stroke-width: 0.5"/>
      </g>
     </g>
    </g>
    <g id="xtick_16">
     <g id="line2d_46">
      <path d="M 172.8 307.584 
L 172.8 41.472 
" clip-path="url(#pd9365a7f6e)" style="fill: none; stroke-dasharray: 0.8,1.32; stroke-dashoffset: 0; stroke: #b0b0b0; stroke-width: 0.8"/>
     </g>
     <g id="line2d_47">
      <g>
       <use xlink:href="#me85345fbee" x="172.8" y="307.584" style="stroke: #000000; stroke-width: 0.5"/>
      </g>
     </g>
     <g id="line2d_48">
      <g>
       <use xlink:href="#m7fe510b289" x="172.8" y="41.472" style="stroke: #000000; stroke-width: 0.5"/>
      </g>
     </g>
    </g>
    <g id="xtick_17">
     <g id="line2d_49">
      <path d="M 184.32 307.584 
L 184.32 41.472 
" clip-path="url(#pd9365a7f6e)" style="fill: none; stroke-dasharray: 0.8,1.32; stroke-dashoffset: 0; stroke: #b0b0b0; stroke-width: 0.8"/>
     </g>
     <g id="line2d_50">
      <g>
       <use xlink:href="#me85345fbee" x="184.32" y="307.584" style="stroke: #000000; stroke-width: 0.5"/>
      </g>
     </g>
     <g id="line2d_51">
      <g>
       <use xlink:href="#m7fe510b289" x="184.32" y="41.472" style="stroke: #000000; stroke-width: 0.5"/>
      </g>
     </g>
    </g>
    <g id="xtick_18">
     <g id="line2d_52">
      <path d="M 207.36 307.584 
L 207.36 41.472 
" clip-path="url(#pd9365a7f6e)" style="fill: none; stroke-dasharray: 0.8,1.32; stroke-dashoffset: 0; stroke: #b0b0b0; stroke-width: 0.8"/>
     </g>
     <g id="line2d_53">
      <g>
       <use xlink:href="#me85345fbee" x="207.36" y="307.584" style="stroke: #000000; stroke-width: 0.5"/>
      </g>
     </g>
     <g id="line2d_54">
      <g>
       <use xlink:href="#m7fe510b289" x="207.36" y="41.472" style="stroke: #000000; stroke-width: 0.5"/>
      </g>
     </g>
    </g>
    <g id="xtick_19">
     <g id="line2d_55">
      <path d="M 218.88 307.584 
L 218.88 41.472 
" clip-path="url(#pd9365a7f6e)" style="fill: none; stroke-dasharray: 0.8,1.32; stroke-dashoffset: 0; stroke: #b0b0b0; stroke-width: 0.8"/>
     </g>
     <g id="line2d_56">
      <g>
       <use xlink:href="#me85345fbee" x="218.88" y="307.584" style="stroke: #000000; stroke-width: 0.5"/>
      </g>
     </g>
     <g id="line2d_57">
      <g>
       <use xlink:href="#m7fe510b289" x="218.88" y="41.472" style="stroke: #000000; stroke-width: 0.5"/>
      </g>
     </g>
    </g>
    <g id="xtick_20">
     <g id="line2d_58">
      <path d="M 230.4 307.584 
L 230.4 41.472 
" clip-path="url(#pd9365a7f6e)" style="fill: none; stroke-dasharray: 0.8,1.32; stroke-dashoffset: 0; stroke: #b0b0b0; stroke-width: 0.8"/>
     </g>
     <g id="line2d_59">
      <g>
       <use xlink:href="#me85345fbee" x="230.4" y="307.584" style="stroke: #000000; stroke-width: 0.5"/>
      </g>
     </g>
     <g id="line2d_60">
      <g>
       <use xlink:href="#m7fe510b289" x="230.4" y="41.472" style="stroke: #000000; stroke-width: 0.5"/>
      </g>
     </g>
    </g>
    <g id="xtick_21">
     <g id="line2d_61">
      <path d="M 253.44 307.584 
L 253.44 41.472 
" clip-path="url(#pd9365a7f6e)" style="fill: none; stroke-dasharray: 0.8,1.32; stroke-dashoffset: 0; stroke: #b0b0b0; stroke-width: 0.8"/>
     </g>
     <g id="line2d_62">
      <g>
       <use xlink:href="#me85345fbee" x="253.44" y="307.584" style="stroke: #000000; stroke-width: 0.5"/>
      </g>
     </g>
     <g id="line2d_63">
      <g>
       <use xlink:href="#m7fe510b289" x="253.44" y="41.472" style="stroke: #000000; stroke-width: 0.5"/>
      </g>
     </g>
    </g>
    <g id="xtick_22">
     <g id="line2d_64">
      <path d="M 264.96 307.584 
L 264.96 41.472 
" clip-path="url(#pd9365a7f6e)" style="fill: none; stroke-dasharray: 0.8,1.32; stroke-dashoffset: 0; stroke: #b0b0b0; stroke-width: 0.8"/>
     </g>
     <g id="line2d_65">
      <g>
       <use xlink:href="#me85345fbee" x="264.96" y="307.584" style="stroke: #000000; stroke-width: 0.5"/>
      </g>
     </g>
     <g id="line2d_66">
      <g>
       <use xlink:href="#m7fe510b289" x="264.96" y="41.472" style="stroke: #000000; stroke-width: 0.5"/>
      </g>
     </g>
    </g>
    <g id="xtick_23">
     <g id="line2d_67">
      <path d="M 276.48 307.584 
L 276.48 41.472 
" clip-path="url(#pd9365a7f6e)" style="fill: none; stroke-dasharray: 0.8,1.32; stroke-dashoffset: 0; stroke: #b0b0b0; stroke-width: 0.8"/>
     </g>
     <g id="line2d_68">
      <g>
       <use xlink:href="#me85345fbee" x="276.48" y="307.584" style="stroke: #000000; stroke-width: 0.5"/>
      </g>
     </g>
     <g id="line2d_69">
      <g>
       <use xlink:href="#m7fe510b289" x="276.48" y="41.472" style="stroke: #000000; stroke-width: 0.5"/>
      </g>
     </g>
    </g>
    <g id="xtick_24">
     <g id="line2d_70">
      <path d="M 299.52 307.584 
L 299.52 41.472 
" clip-path="url(#pd9365a7f6e)" style="fill: none; stroke-dasharray: 0.8,1.32; stroke-dashoffset: 0; stroke: #b0b0b0; stroke-width: 0.8"/>
     </g>
     <g id="line2d_71">
      <g>
       <use xlink:href="#me85345fbee" x="299.52" y="307.584" style="stroke: #000000; stroke-width: 0.5"/>
      </g>
     </g>
     <g id="line2d_72">
      <g>
       <use xlink:href="#m7fe510b289" x="299.52" y="41.472" style="stroke: #000000; stroke-width: 0.5"/>
      </g>
     </g>
    </g>
    <g id="xtick_25">
     <g id="line2d_73">
      <path d="M 311.04 307.584 
L 311.04 41.472 
" clip-path="url(#pd9365a7f6e)" style="fill: none; stroke-dasharray: 0.8,1.32; stroke-dashoffset: 0; stroke: #b0b0b0; stroke-width: 0.8"/>
     </g>
     <g id="line2d_74">
      <g>
       <use xlink:href="#me85345fbee" x="311.04" y="307.584" style="stroke: #000000; stroke-width: 0.5"/>
      </g>
     </g>
     <g id="line2d_75">
      <g>
       <use xlink:href="#m7fe510b289" x="311.04" y="41.472" style="stroke: #000000; stroke-width: 0.5"/>
      </g>
     </g>
    </g>
    <g id="xtick_26">
     <g id="line2d_76">
      <path d="M 322.56 307.584 
L 322.56 41.472 
" clip-path="url(#pd9365a7f6e)" style="fill: none; stroke-dasharray: 0.8,1.32; stroke-dashoffset: 0; stroke: #b0b0b0; stroke-width: 0.8"/>
     </g>
     <g id="line2d_77">
      <g>
       <use xlink:href="#me85345fbee" x="322.56" y="307.584" style="stroke: #000000; stroke-width: 0.5"/>
      </g>
     </g>
     <g id="line2d_78">
      <g>
       <use xlink:href="#m7fe510b289" x="322.56" y="41.472" style="stroke: #000000; stroke-width: 0.5"/>
      </g>
     </g>
    </g>
    <g id="xtick_27">
     <g id="line2d_79">
      <path d="M 345.6 307.584 
L 345.6 41.472 
" clip-path="url(#pd9365a7f6e)" style="fill: none; stroke-dasharray: 0.8,1.32; stroke-dashoffset: 0; stroke: #b0b0b0; stroke-width: 0.8"/>
     </g>
     <g id="line2d_80">
      <g>
       <use xlink:href="#me85345fbee" x="345.6" y="307.584" style="stroke: #000000; stroke-width: 0.5"/>
      </g>
     </g>
     <g id="line2d_81">
      <g>
       <use xlink:href="#m7fe510b289" x="345.6" y="41.472" style="stroke: #000000; stroke-width: 0.5"/>
      </g>
     </g>
    </g>
    <g id="xtick_28">
     <g id="line2d_82">
      <path d="M 357.12 307.584 
L 357.12 41.472 
" clip-path="url(#pd9365a7f6e)" style="fill: none; stroke-dasharray: 0.8,1.32; stroke-dashoffset: 0; stroke: #b0b0b0; stroke-width: 0.8"/>
     </g>
     <g id="line2d_83">
      <g>
       <use xlink:href="#me85345fbee" x="357.12" y="307.584" style="stroke: #000000; stroke-width: 0.5"/>
      </g>
     </g>
     <g id="line2d_84">
      <g>
       <use xlink:href="#m7fe510b289" x="357.12" y="41.472" style="stroke: #000000; stroke-width: 0.5"/>
      </g>
     </g>
    </g>
    <g id="xtick_29">
     <g id="line2d_85">
      <path d="M 368.64 307.584 
L 368.64 41.472 
" clip-path="url(#pd9365a7f6e)" style="fill: none; stroke-dasharray: 0.8,1.32; stroke-dashoffset: 0; stroke: #b0b0b0; stroke-width: 0.8"/>
     </g>
     <g id="line2d_86">
      <g>
       <use xlink:href="#me85345fbee" x="368.64" y="307.584" style="stroke: #000000; stroke-width: 0.5"/>
      </g>
     </g>
     <g id="line2d_87">
      <g>
       <use xlink:href="#m7fe510b289" x="368.64" y="41.472" style="stroke: #000000; stroke-width: 0.5"/>
      </g>
     </g>
    </g>
    <g id="xtick_30">
     <g id="line2d_88">
      <path d="M 391.68 307.584 
L 391.68 41.472 
" clip-path="url(#pd9365a7f6e)" style="fill: none; stroke-dasharray: 0.8,1.32; stroke-dashoffset: 0; stroke: #b0b0b0; stroke-width: 0.8"/>
     </g>
     <g id="line2d_89">
      <g>
       <use xlink:href="#me85345fbee" x="391.68" y="307.584" style="stroke: #000000; stroke-width: 0.5"/>
      </g>
     </g>
     <g id="line2d_90">
      <g>
       <use xlink:href="#m7fe510b289" x="391.68" y="41.472" style="stroke: #000000; stroke-width: 0.5"/>
      </g>
     </g>
    </g>
    <g id="xtick_31">
     <g id="line2d_91">
      <path d="M 403.2 307.584 
L 403.2 41.472 
" clip-path="url(#pd9365a7f6e)" style="fill: none; stroke-dasharray: 0.8,1.32; stroke-dashoffset: 0; stroke: #b0b0b0; stroke-width: 0.8"/>
     </g>
     <g id="line2d_92">
      <g>
       <use xlink:href="#me85345fbee" x="403.2" y="307.584" style="stroke: #000000; stroke-width: 0.5"/>
      </g>
     </g>
     <g id="line2d_93">
      <g>
       <use xlink:href="#m7fe510b289" x="403.2" y="41.472" style="stroke: #000000; stroke-width: 0.5"/>
      </g>
     </g>
    </g>
    <g id="xtick_32">
     <g id="line2d_94">
      <path d="M 414.72 307.584 
L 414.72 41.472 
" clip-path="url(#pd9365a7f6e)" style="fill: none; stroke-dasharray: 0.8,1.32; stroke-dashoffset: 0; stroke: #b0b0b0; stroke-width: 0.8"/>
     </g>
     <g id="line2d_95">
      <g>
       <use xlink:href="#me85345fbee" x="414.72" y="307.584" style="stroke: #000000; stroke-width: 0.5"/>
      </g>
     </g>
     <g id="line2d_96">
      <g>
       <use xlink:href="#m7fe510b289" x="414.72" y="41.472" style="stroke: #000000; stroke-width: 0.5"/>
      </g>
     </g>
    </g>
    <g id="text_9">
     <!-- Normalized Temperature, ${T}\,/\,{T_c}$ -->
     <g transform="translate(158.81 335.862125) scale(0.1 -0.1)">
      <defs>
       <path id="DejaVuSans-4e" d="M 628 4666 
L 1478 4666 
L 3547 763 
L 3547 4666 
L 4159 4666 
L 4159 0 
L 3309 0 
L 1241 3903 
L 1241 0 
L 628 0 
L 628 4666 
z
" transform="scale(0.015625)"/>
       <path id="DejaVuSans-6f" d="M 1959 3097 
Q 1497 3097 1228 2736 
Q 959 2375 959 1747 
Q 959 1119 1226 758 
Q 1494 397 1959 397 
Q 2419 397 2687 759 
Q 2956 1122 2956 1747 
Q 2956 2369 2687 2733 
Q 2419 3097 1959 3097 
z
M 1959 3584 
Q 2709 3584 3137 3096 
Q 3566 2609 3566 1747 
Q 3566 888 3137 398 
Q 2709 -91 1959 -91 
Q 1206 -91 779 398 
Q 353 888 353 1747 
Q 353 2609 779 3096 
Q 1206 3584 1959 3584 
z
" transform="scale(0.015625)"/>
       <path id="DejaVuSans-72" d="M 2631 2963 
Q 2534 3019 2420 3045 
Q 2306 3072 2169 3072 
Q 1681 3072 1420 2755 
Q 1159 2438 1159 1844 
L 1159 0 
L 581 0 
L 581 3500 
L 1159 3500 
L 1159 2956 
Q 1341 3275 1631 3429 
Q 1922 3584 2338 3584 
Q 2397 3584 2469 3576 
Q 2541 3569 2628 3553 
L 2631 2963 
z
" transform="scale(0.015625)"/>
       <path id="DejaVuSans-6d" d="M 3328 2828 
Q 3544 3216 3844 3400 
Q 4144 3584 4550 3584 
Q 5097 3584 5394 3201 
Q 5691 2819 5691 2113 
L 5691 0 
L 5113 0 
L 5113 2094 
Q 5113 2597 4934 2840 
Q 4756 3084 4391 3084 
Q 3944 3084 3684 2787 
Q 3425 2491 3425 1978 
L 3425 0 
L 2847 0 
L 2847 2094 
Q 2847 2600 2669 2842 
Q 2491 3084 2119 3084 
Q 1678 3084 1418 2786 
Q 1159 2488 1159 1978 
L 1159 0 
L 581 0 
L 581 3500 
L 1159 3500 
L 1159 2956 
Q 1356 3278 1631 3431 
Q 1906 3584 2284 3584 
Q 2666 3584 2933 3390 
Q 3200 3197 3328 2828 
z
" transform="scale(0.015625)"/>
       <path id="DejaVuSans-61" d="M 2194 1759 
Q 1497 1759 1228 1600 
Q 959 1441 959 1056 
Q 959 750 1161 570 
Q 1363 391 1709 391 
Q 2188 391 2477 730 
Q 2766 1069 2766 1631 
L 2766 1759 
L 2194 1759 
z
M 3341 1997 
L 3341 0 
L 2766 0 
L 2766 531 
Q 2569 213 2275 61 
Q 1981 -91 1556 -91 
Q 1019 -91 701 211 
Q 384 513 384 1019 
Q 384 1609 779 1909 
Q 1175 2209 1959 2209 
L 2766 2209 
L 2766 2266 
Q 2766 2663 2505 2880 
Q 2244 3097 1772 3097 
Q 1472 3097 1187 3025 
Q 903 2953 641 2809 
L 641 3341 
Q 956 3463 1253 3523 
Q 1550 3584 1831 3584 
Q 2591 3584 2966 3190 
Q 3341 2797 3341 1997 
z
" transform="scale(0.015625)"/>
       <path id="DejaVuSans-6c" d="M 603 4863 
L 1178 4863 
L 1178 0 
L 603 0 
L 603 4863 
z
" transform="scale(0.015625)"/>
       <path id="DejaVuSans-69" d="M 603 3500 
L 1178 3500 
L 1178 0 
L 603 0 
L 603 3500 
z
M 603 4863 
L 1178 4863 
L 1178 4134 
L 603 4134 
L 603 4863 
z
" transform="scale(0.015625)"/>
       <path id="DejaVuSans-7a" d="M 353 3500 
L 3084 3500 
L 3084 2975 
L 922 459 
L 3084 459 
L 3084 0 
L 275 0 
L 275 525 
L 2438 3041 
L 353 3041 
L 353 3500 
z
" transform="scale(0.015625)"/>
       <path id="DejaVuSans-65" d="M 3597 1894 
L 3597 1613 
L 953 1613 
Q 991 1019 1311 708 
Q 1631 397 2203 397 
Q 2534 397 2845 478 
Q 3156 559 3463 722 
L 3463 178 
Q 3153 47 2828 -22 
Q 2503 -91 2169 -91 
Q 1331 -91 842 396 
Q 353 884 353 1716 
Q 353 2575 817 3079 
Q 1281 3584 2069 3584 
Q 2775 3584 3186 3129 
Q 3597 2675 3597 1894 
z
M 3022 2063 
Q 3016 2534 2758 2815 
Q 2500 3097 2075 3097 
Q 1594 3097 1305 2825 
Q 1016 2553 972 2059 
L 3022 2063 
z
" transform="scale(0.015625)"/>
       <path id="DejaVuSans-64" d="M 2906 2969 
L 2906 4863 
L 3481 4863 
L 3481 0 
L 2906 0 
L 2906 525 
Q 2725 213 2448 61 
Q 2172 -91 1784 -91 
Q 1150 -91 751 415 
Q 353 922 353 1747 
Q 353 2572 751 3078 
Q 1150 3584 1784 3584 
Q 2172 3584 2448 3432 
Q 2725 3281 2906 2969 
z
M 947 1747 
Q 947 1113 1208 752 
Q 1469 391 1925 391 
Q 2381 391 2643 752 
Q 2906 1113 2906 1747 
Q 2906 2381 2643 2742 
Q 2381 3103 1925 3103 
Q 1469 3103 1208 2742 
Q 947 2381 947 1747 
z
" transform="scale(0.015625)"/>
       <path id="DejaVuSans-20" transform="scale(0.015625)"/>
       <path id="DejaVuSans-54" d="M -19 4666 
L 3928 4666 
L 3928 4134 
L 2272 4134 
L 2272 0 
L 1638 0 
L 1638 4134 
L -19 4134 
L -19 4666 
z
" transform="scale(0.015625)"/>
       <path id="DejaVuSans-70" d="M 1159 525 
L 1159 -1331 
L 581 -1331 
L 581 3500 
L 1159 3500 
L 1159 2969 
Q 1341 3281 1617 3432 
Q 1894 3584 2278 3584 
Q 2916 3584 3314 3078 
Q 3713 2572 3713 1747 
Q 3713 922 3314 415 
Q 2916 -91 2278 -91 
Q 1894 -91 1617 61 
Q 1341 213 1159 525 
z
M 3116 1747 
Q 3116 2381 2855 2742 
Q 2594 3103 2138 3103 
Q 1681 3103 1420 2742 
Q 1159 2381 1159 1747 
Q 1159 1113 1420 752 
Q 1681 391 2138 391 
Q 2594 391 2855 752 
Q 3116 1113 3116 1747 
z
" transform="scale(0.015625)"/>
       <path id="DejaVuSans-74" d="M 1172 4494 
L 1172 3500 
L 2356 3500 
L 2356 3053 
L 1172 3053 
L 1172 1153 
Q 1172 725 1289 603 
Q 1406 481 1766 481 
L 2356 481 
L 2356 0 
L 1766 0 
Q 1100 0 847 248 
Q 594 497 594 1153 
L 594 3053 
L 172 3053 
L 172 3500 
L 594 3500 
L 594 4494 
L 1172 4494 
z
" transform="scale(0.015625)"/>
       <path id="DejaVuSans-75" d="M 544 1381 
L 544 3500 
L 1119 3500 
L 1119 1403 
Q 1119 906 1312 657 
Q 1506 409 1894 409 
Q 2359 409 2629 706 
Q 2900 1003 2900 1516 
L 2900 3500 
L 3475 3500 
L 3475 0 
L 2900 0 
L 2900 538 
Q 2691 219 2414 64 
Q 2138 -91 1772 -91 
Q 1169 -91 856 284 
Q 544 659 544 1381 
z
M 1991 3584 
L 1991 3584 
z
" transform="scale(0.015625)"/>
       <path id="DejaVuSans-2c" d="M 750 794 
L 1409 794 
L 1409 256 
L 897 -744 
L 494 -744 
L 750 256 
L 750 794 
z
" transform="scale(0.015625)"/>
       <path id="DejaVuSans-Oblique-54" d="M 378 4666 
L 4325 4666 
L 4225 4134 
L 2559 4134 
L 1759 0 
L 1125 0 
L 1925 4134 
L 275 4134 
L 378 4666 
z
" transform="scale(0.015625)"/>
       <path id="DejaVuSans-2f" d="M 1625 4666 
L 2156 4666 
L 531 -594 
L 0 -594 
L 1625 4666 
z
" transform="scale(0.015625)"/>
       <path id="DejaVuSans-Oblique-63" d="M 3431 3366 
L 3316 2797 
Q 3109 2947 2876 3022 
Q 2644 3097 2394 3097 
Q 2119 3097 1870 3000 
Q 1622 2903 1453 2725 
Q 1184 2453 1037 2087 
Q 891 1722 891 1331 
Q 891 859 1127 628 
Q 1363 397 1844 397 
Q 2081 397 2348 469 
Q 2616 541 2906 684 
L 2797 116 
Q 2547 13 2283 -39 
Q 2019 -91 1741 -91 
Q 1044 -91 669 257 
Q 294 606 294 1253 
Q 294 1797 489 2255 
Q 684 2713 1069 3078 
Q 1331 3328 1684 3456 
Q 2038 3584 2456 3584 
Q 2700 3584 2940 3529 
Q 3181 3475 3431 3366 
z
" transform="scale(0.015625)"/>
      </defs>
      <use xlink:href="#DejaVuSans-4e" transform="translate(0 0.015625)"/>
      <use xlink:href="#DejaVuSans-6f" transform="translate(74.804688 0.015625)"/>
      <use xlink:href="#DejaVuSans-72" transform="translate(135.986328 0.015625)"/>
      <use xlink:href="#DejaVuSans-6d" transform="translate(177.099609 0.015625)"/>
      <use xlink:href="#DejaVuSans-61" transform="translate(274.511719 0.015625)"/>
      <use xlink:href="#DejaVuSans-6c" transform="translate(335.791016 0.015625)"/>
      <use xlink:href="#DejaVuSans-69" transform="translate(363.574219 0.015625)"/>
      <use xlink:href="#DejaVuSans-7a" transform="translate(391.357422 0.015625)"/>
      <use xlink:href="#DejaVuSans-65" transform="translate(443.847656 0.015625)"/>
      <use xlink:href="#DejaVuSans-64" transform="translate(505.371094 0.015625)"/>
      <use xlink:href="#DejaVuSans-20" transform="translate(568.847656 0.015625)"/>
      <use xlink:href="#DejaVuSans-54" transform="translate(600.634766 0.015625)"/>
      <use xlink:href="#DejaVuSans-65" transform="translate(661.71875 0.015625)"/>
      <use xlink:href="#DejaVuSans-6d" transform="translate(723.242188 0.015625)"/>
      <use xlink:href="#DejaVuSans-70" transform="translate(820.654297 0.015625)"/>
      <use xlink:href="#DejaVuSans-65" transform="translate(884.130859 0.015625)"/>
      <use xlink:href="#DejaVuSans-72" transform="translate(945.654297 0.015625)"/>
      <use xlink:href="#DejaVuSans-61" transform="translate(986.767578 0.015625)"/>
      <use xlink:href="#DejaVuSans-74" transform="translate(1048.046875 0.015625)"/>
      <use xlink:href="#DejaVuSans-75" transform="translate(1087.255859 0.015625)"/>
      <use xlink:href="#DejaVuSans-72" transform="translate(1150.634766 0.015625)"/>
      <use xlink:href="#DejaVuSans-65" transform="translate(1191.748047 0.015625)"/>
      <use xlink:href="#DejaVuSans-2c" transform="translate(1253.271484 0.015625)"/>
      <use xlink:href="#DejaVuSans-20" transform="translate(1285.058594 0.015625)"/>
      <use xlink:href="#DejaVuSans-Oblique-54" transform="translate(1316.845703 0.015625)"/>
      <use xlink:href="#DejaVuSans-2f" transform="translate(1394.165364 0.015625)"/>
      <use xlink:href="#DejaVuSans-Oblique-54" transform="translate(1444.092446 0.015625)"/>
      <use xlink:href="#DejaVuSans-Oblique-63" transform="translate(1505.176431 -16.390625) scale(0.7)"/>
     </g>
    </g>
   </g>
   <g id="matplotlib.axis_2">
    <g id="ytick_1">
     <g id="line2d_97">
      <path d="M 57.6 307.584 
L 414.72 307.584 
" clip-path="url(#pd9365a7f6e)" style="fill: none; stroke-dasharray: 2.96,1.28; stroke-dashoffset: 0; stroke: #b0b0b0; stroke-width: 0.8"/>
     </g>
     <g id="line2d_98">
      <defs>
       <path id="m010777d7c5" d="M 0 0 
L -3.5 0 
" style="stroke: #000000; stroke-width: 0.8"/>
      </defs>
      <g>
       <use xlink:href="#m010777d7c5" x="57.6" y="307.584" style="stroke: #000000; stroke-width: 0.8"/>
      </g>
     </g>
     <g id="line2d_99">
      <defs>
       <path id="m60b73cb52d" d="M 0 0 
L 3.5 0 
" style="stroke: #000000; stroke-width: 0.8"/>
      </defs>
      <g>
       <use xlink:href="#m60b73cb52d" x="414.72" y="307.584" style="stroke: #000000; stroke-width: 0.8"/>
      </g>
     </g>
     <g id="text_10">
      <!-- 0.0 -->
      <g transform="translate(34.696875 311.383219) scale(0.1 -0.1)">
       <use xlink:href="#DejaVuSans-30"/>
       <use xlink:href="#DejaVuSans-2e" x="63.623047"/>
       <use xlink:href="#DejaVuSans-30" x="95.410156"/>
      </g>
     </g>
    </g>
    <g id="ytick_2">
     <g id="line2d_100">
      <path d="M 57.6 265.00608 
L 414.72 265.00608 
" clip-path="url(#pd9365a7f6e)" style="fill: none; stroke-dasharray: 2.96,1.28; stroke-dashoffset: 0; stroke: #b0b0b0; stroke-width: 0.8"/>
     </g>
     <g id="line2d_101">
      <g>
       <use xlink:href="#m010777d7c5" x="57.6" y="265.00608" style="stroke: #000000; stroke-width: 0.8"/>
      </g>
     </g>
     <g id="line2d_102">
      <g>
       <use xlink:href="#m60b73cb52d" x="414.72" y="265.00608" style="stroke: #000000; stroke-width: 0.8"/>
      </g>
     </g>
     <g id="text_11">
      <!-- 0.2 -->
      <g transform="translate(34.696875 268.805299) scale(0.1 -0.1)">
       <use xlink:href="#DejaVuSans-30"/>
       <use xlink:href="#DejaVuSans-2e" x="63.623047"/>
       <use xlink:href="#DejaVuSans-32" x="95.410156"/>
      </g>
     </g>
    </g>
    <g id="ytick_3">
     <g id="line2d_103">
      <path d="M 57.6 222.42816 
L 414.72 222.42816 
" clip-path="url(#pd9365a7f6e)" style="fill: none; stroke-dasharray: 2.96,1.28; stroke-dashoffset: 0; stroke: #b0b0b0; stroke-width: 0.8"/>
     </g>
     <g id="line2d_104">
      <g>
       <use xlink:href="#m010777d7c5" x="57.6" y="222.42816" style="stroke: #000000; stroke-width: 0.8"/>
      </g>
     </g>
     <g id="line2d_105">
      <g>
       <use xlink:href="#m60b73cb52d" x="414.72" y="222.42816" style="stroke: #000000; stroke-width: 0.8"/>
      </g>
     </g>
     <g id="text_12">
      <!-- 0.4 -->
      <g transform="translate(34.696875 226.227379) scale(0.1 -0.1)">
       <use xlink:href="#DejaVuSans-30"/>
       <use xlink:href="#DejaVuSans-2e" x="63.623047"/>
       <use xlink:href="#DejaVuSans-34" x="95.410156"/>
      </g>
     </g>
    </g>
    <g id="ytick_4">
     <g id="line2d_106">
      <path d="M 57.6 179.85024 
L 414.72 179.85024 
" clip-path="url(#pd9365a7f6e)" style="fill: none; stroke-dasharray: 2.96,1.28; stroke-dashoffset: 0; stroke: #b0b0b0; stroke-width: 0.8"/>
     </g>
     <g id="line2d_107">
      <g>
       <use xlink:href="#m010777d7c5" x="57.6" y="179.85024" style="stroke: #000000; stroke-width: 0.8"/>
      </g>
     </g>
     <g id="line2d_108">
      <g>
       <use xlink:href="#m60b73cb52d" x="414.72" y="179.85024" style="stroke: #000000; stroke-width: 0.8"/>
      </g>
     </g>
     <g id="text_13">
      <!-- 0.6 -->
      <g transform="translate(34.696875 183.649459) scale(0.1 -0.1)">
       <use xlink:href="#DejaVuSans-30"/>
       <use xlink:href="#DejaVuSans-2e" x="63.623047"/>
       <use xlink:href="#DejaVuSans-36" x="95.410156"/>
      </g>
     </g>
    </g>
    <g id="ytick_5">
     <g id="line2d_109">
      <path d="M 57.6 137.27232 
L 414.72 137.27232 
" clip-path="url(#pd9365a7f6e)" style="fill: none; stroke-dasharray: 2.96,1.28; stroke-dashoffset: 0; stroke: #b0b0b0; stroke-width: 0.8"/>
     </g>
     <g id="line2d_110">
      <g>
       <use xlink:href="#m010777d7c5" x="57.6" y="137.27232" style="stroke: #000000; stroke-width: 0.8"/>
      </g>
     </g>
     <g id="line2d_111">
      <g>
       <use xlink:href="#m60b73cb52d" x="414.72" y="137.27232" style="stroke: #000000; stroke-width: 0.8"/>
      </g>
     </g>
     <g id="text_14">
      <!-- 0.8 -->
      <g transform="translate(34.696875 141.071539) scale(0.1 -0.1)">
       <use xlink:href="#DejaVuSans-30"/>
       <use xlink:href="#DejaVuSans-2e" x="63.623047"/>
       <use xlink:href="#DejaVuSans-38" x="95.410156"/>
      </g>
     </g>
    </g>
    <g id="ytick_6">
     <g id="line2d_112">
      <path d="M 57.6 94.6944 
L 414.72 94.6944 
" clip-path="url(#pd9365a7f6e)" style="fill: none; stroke-dasharray: 2.96,1.28; stroke-dashoffset: 0; stroke: #b0b0b0; stroke-width: 0.8"/>
     </g>
     <g id="line2d_113">
      <g>
       <use xlink:href="#m010777d7c5" x="57.6" y="94.6944" style="stroke: #000000; stroke-width: 0.8"/>
      </g>
     </g>
     <g id="line2d_114">
      <g>
       <use xlink:href="#m60b73cb52d" x="414.72" y="94.6944" style="stroke: #000000; stroke-width: 0.8"/>
      </g>
     </g>
     <g id="text_15">
      <!-- 1.0 -->
      <g transform="translate(34.696875 98.493619) scale(0.1 -0.1)">
       <use xlink:href="#DejaVuSans-31"/>
       <use xlink:href="#DejaVuSans-2e" x="63.623047"/>
       <use xlink:href="#DejaVuSans-30" x="95.410156"/>
      </g>
     </g>
    </g>
    <g id="ytick_7">
     <g id="line2d_115">
      <path d="M 57.6 52.11648 
L 414.72 52.11648 
" clip-path="url(#pd9365a7f6e)" style="fill: none; stroke-dasharray: 2.96,1.28; stroke-dashoffset: 0; stroke: #b0b0b0; stroke-width: 0.8"/>
     </g>
     <g id="line2d_116">
      <g>
       <use xlink:href="#m010777d7c5" x="57.6" y="52.11648" style="stroke: #000000; stroke-width: 0.8"/>
      </g>
     </g>
     <g id="line2d_117">
      <g>
       <use xlink:href="#m60b73cb52d" x="414.72" y="52.11648" style="stroke: #000000; stroke-width: 0.8"/>
      </g>
     </g>
     <g id="text_16">
      <!-- 1.2 -->
      <g transform="translate(34.696875 55.915699) scale(0.1 -0.1)">
       <use xlink:href="#DejaVuSans-31"/>
       <use xlink:href="#DejaVuSans-2e" x="63.623047"/>
       <use xlink:href="#DejaVuSans-32" x="95.410156"/>
      </g>
     </g>
    </g>
    <g id="ytick_8">
     <g id="line2d_118">
      <path d="M 57.6 296.93952 
L 414.72 296.93952 
" clip-path="url(#pd9365a7f6e)" style="fill: none; stroke-dasharray: 0.8,1.32; stroke-dashoffset: 0; stroke: #b0b0b0; stroke-width: 0.8"/>
     </g>
     <g id="line2d_119">
      <defs>
       <path id="m70993bc46f" d="M 0 0 
L -3 0 
" style="stroke: #000000; stroke-width: 0.5"/>
      </defs>
      <g>
       <use xlink:href="#m70993bc46f" x="57.6" y="296.93952" style="stroke: #000000; stroke-width: 0.5"/>
      </g>
     </g>
     <g id="line2d_120">
      <defs>
       <path id="m24b2272b51" d="M 0 0 
L 3 0 
" style="stroke: #000000; stroke-width: 0.5"/>
      </defs>
      <g>
       <use xlink:href="#m24b2272b51" x="414.72" y="296.93952" style="stroke: #000000; stroke-width: 0.5"/>
      </g>
     </g>
    </g>
    <g id="ytick_9">
     <g id="line2d_121">
      <path d="M 57.6 286.29504 
L 414.72 286.29504 
" clip-path="url(#pd9365a7f6e)" style="fill: none; stroke-dasharray: 0.8,1.32; stroke-dashoffset: 0; stroke: #b0b0b0; stroke-width: 0.8"/>
     </g>
     <g id="line2d_122">
      <g>
       <use xlink:href="#m70993bc46f" x="57.6" y="286.29504" style="stroke: #000000; stroke-width: 0.5"/>
      </g>
     </g>
     <g id="line2d_123">
      <g>
       <use xlink:href="#m24b2272b51" x="414.72" y="286.29504" style="stroke: #000000; stroke-width: 0.5"/>
      </g>
     </g>
    </g>
    <g id="ytick_10">
     <g id="line2d_124">
      <path d="M 57.6 275.65056 
L 414.72 275.65056 
" clip-path="url(#pd9365a7f6e)" style="fill: none; stroke-dasharray: 0.8,1.32; stroke-dashoffset: 0; stroke: #b0b0b0; stroke-width: 0.8"/>
     </g>
     <g id="line2d_125">
      <g>
       <use xlink:href="#m70993bc46f" x="57.6" y="275.65056" style="stroke: #000000; stroke-width: 0.5"/>
      </g>
     </g>
     <g id="line2d_126">
      <g>
       <use xlink:href="#m24b2272b51" x="414.72" y="275.65056" style="stroke: #000000; stroke-width: 0.5"/>
      </g>
     </g>
    </g>
    <g id="ytick_11">
     <g id="line2d_127">
      <path d="M 57.6 254.3616 
L 414.72 254.3616 
" clip-path="url(#pd9365a7f6e)" style="fill: none; stroke-dasharray: 0.8,1.32; stroke-dashoffset: 0; stroke: #b0b0b0; stroke-width: 0.8"/>
     </g>
     <g id="line2d_128">
      <g>
       <use xlink:href="#m70993bc46f" x="57.6" y="254.3616" style="stroke: #000000; stroke-width: 0.5"/>
      </g>
     </g>
     <g id="line2d_129">
      <g>
       <use xlink:href="#m24b2272b51" x="414.72" y="254.3616" style="stroke: #000000; stroke-width: 0.5"/>
      </g>
     </g>
    </g>
    <g id="ytick_12">
     <g id="line2d_130">
      <path d="M 57.6 243.71712 
L 414.72 243.71712 
" clip-path="url(#pd9365a7f6e)" style="fill: none; stroke-dasharray: 0.8,1.32; stroke-dashoffset: 0; stroke: #b0b0b0; stroke-width: 0.8"/>
     </g>
     <g id="line2d_131">
      <g>
       <use xlink:href="#m70993bc46f" x="57.6" y="243.71712" style="stroke: #000000; stroke-width: 0.5"/>
      </g>
     </g>
     <g id="line2d_132">
      <g>
       <use xlink:href="#m24b2272b51" x="414.72" y="243.71712" style="stroke: #000000; stroke-width: 0.5"/>
      </g>
     </g>
    </g>
    <g id="ytick_13">
     <g id="line2d_133">
      <path d="M 57.6 233.07264 
L 414.72 233.07264 
" clip-path="url(#pd9365a7f6e)" style="fill: none; stroke-dasharray: 0.8,1.32; stroke-dashoffset: 0; stroke: #b0b0b0; stroke-width: 0.8"/>
     </g>
     <g id="line2d_134">
      <g>
       <use xlink:href="#m70993bc46f" x="57.6" y="233.07264" style="stroke: #000000; stroke-width: 0.5"/>
      </g>
     </g>
     <g id="line2d_135">
      <g>
       <use xlink:href="#m24b2272b51" x="414.72" y="233.07264" style="stroke: #000000; stroke-width: 0.5"/>
      </g>
     </g>
    </g>
    <g id="ytick_14">
     <g id="line2d_136">
      <path d="M 57.6 211.78368 
L 414.72 211.78368 
" clip-path="url(#pd9365a7f6e)" style="fill: none; stroke-dasharray: 0.8,1.32; stroke-dashoffset: 0; stroke: #b0b0b0; stroke-width: 0.8"/>
     </g>
     <g id="line2d_137">
      <g>
       <use xlink:href="#m70993bc46f" x="57.6" y="211.78368" style="stroke: #000000; stroke-width: 0.5"/>
      </g>
     </g>
     <g id="line2d_138">
      <g>
       <use xlink:href="#m24b2272b51" x="414.72" y="211.78368" style="stroke: #000000; stroke-width: 0.5"/>
      </g>
     </g>
    </g>
    <g id="ytick_15">
     <g id="line2d_139">
      <path d="M 57.6 201.1392 
L 414.72 201.1392 
" clip-path="url(#pd9365a7f6e)" style="fill: none; stroke-dasharray: 0.8,1.32; stroke-dashoffset: 0; stroke: #b0b0b0; stroke-width: 0.8"/>
     </g>
     <g id="line2d_140">
      <g>
       <use xlink:href="#m70993bc46f" x="57.6" y="201.1392" style="stroke: #000000; stroke-width: 0.5"/>
      </g>
     </g>
     <g id="line2d_141">
      <g>
       <use xlink:href="#m24b2272b51" x="414.72" y="201.1392" style="stroke: #000000; stroke-width: 0.5"/>
      </g>
     </g>
    </g>
    <g id="ytick_16">
     <g id="line2d_142">
      <path d="M 57.6 190.49472 
L 414.72 190.49472 
" clip-path="url(#pd9365a7f6e)" style="fill: none; stroke-dasharray: 0.8,1.32; stroke-dashoffset: 0; stroke: #b0b0b0; stroke-width: 0.8"/>
     </g>
     <g id="line2d_143">
      <g>
       <use xlink:href="#m70993bc46f" x="57.6" y="190.49472" style="stroke: #000000; stroke-width: 0.5"/>
      </g>
     </g>
     <g id="line2d_144">
      <g>
       <use xlink:href="#m24b2272b51" x="414.72" y="190.49472" style="stroke: #000000; stroke-width: 0.5"/>
      </g>
     </g>
    </g>
    <g id="ytick_17">
     <g id="line2d_145">
      <path d="M 57.6 169.20576 
L 414.72 169.20576 
" clip-path="url(#pd9365a7f6e)" style="fill: none; stroke-dasharray: 0.8,1.32; stroke-dashoffset: 0; stroke: #b0b0b0; stroke-width: 0.8"/>
     </g>
     <g id="line2d_146">
      <g>
       <use xlink:href="#m70993bc46f" x="57.6" y="169.20576" style="stroke: #000000; stroke-width: 0.5"/>
      </g>
     </g>
     <g id="line2d_147">
      <g>
       <use xlink:href="#m24b2272b51" x="414.72" y="169.20576" style="stroke: #000000; stroke-width: 0.5"/>
      </g>
     </g>
    </g>
    <g id="ytick_18">
     <g id="line2d_148">
      <path d="M 57.6 158.56128 
L 414.72 158.56128 
" clip-path="url(#pd9365a7f6e)" style="fill: none; stroke-dasharray: 0.8,1.32; stroke-dashoffset: 0; stroke: #b0b0b0; stroke-width: 0.8"/>
     </g>
     <g id="line2d_149">
      <g>
       <use xlink:href="#m70993bc46f" x="57.6" y="158.56128" style="stroke: #000000; stroke-width: 0.5"/>
      </g>
     </g>
     <g id="line2d_150">
      <g>
       <use xlink:href="#m24b2272b51" x="414.72" y="158.56128" style="stroke: #000000; stroke-width: 0.5"/>
      </g>
     </g>
    </g>
    <g id="ytick_19">
     <g id="line2d_151">
      <path d="M 57.6 147.9168 
L 414.72 147.9168 
" clip-path="url(#pd9365a7f6e)" style="fill: none; stroke-dasharray: 0.8,1.32; stroke-dashoffset: 0; stroke: #b0b0b0; stroke-width: 0.8"/>
     </g>
     <g id="line2d_152">
      <g>
       <use xlink:href="#m70993bc46f" x="57.6" y="147.9168" style="stroke: #000000; stroke-width: 0.5"/>
      </g>
     </g>
     <g id="line2d_153">
      <g>
       <use xlink:href="#m24b2272b51" x="414.72" y="147.9168" style="stroke: #000000; stroke-width: 0.5"/>
      </g>
     </g>
    </g>
    <g id="ytick_20">
     <g id="line2d_154">
      <path d="M 57.6 126.62784 
L 414.72 126.62784 
" clip-path="url(#pd9365a7f6e)" style="fill: none; stroke-dasharray: 0.8,1.32; stroke-dashoffset: 0; stroke: #b0b0b0; stroke-width: 0.8"/>
     </g>
     <g id="line2d_155">
      <g>
       <use xlink:href="#m70993bc46f" x="57.6" y="126.62784" style="stroke: #000000; stroke-width: 0.5"/>
      </g>
     </g>
     <g id="line2d_156">
      <g>
       <use xlink:href="#m24b2272b51" x="414.72" y="126.62784" style="stroke: #000000; stroke-width: 0.5"/>
      </g>
     </g>
    </g>
    <g id="ytick_21">
     <g id="line2d_157">
      <path d="M 57.6 115.98336 
L 414.72 115.98336 
" clip-path="url(#pd9365a7f6e)" style="fill: none; stroke-dasharray: 0.8,1.32; stroke-dashoffset: 0; stroke: #b0b0b0; stroke-width: 0.8"/>
     </g>
     <g id="line2d_158">
      <g>
       <use xlink:href="#m70993bc46f" x="57.6" y="115.98336" style="stroke: #000000; stroke-width: 0.5"/>
      </g>
     </g>
     <g id="line2d_159">
      <g>
       <use xlink:href="#m24b2272b51" x="414.72" y="115.98336" style="stroke: #000000; stroke-width: 0.5"/>
      </g>
     </g>
    </g>
    <g id="ytick_22">
     <g id="line2d_160">
      <path d="M 57.6 105.33888 
L 414.72 105.33888 
" clip-path="url(#pd9365a7f6e)" style="fill: none; stroke-dasharray: 0.8,1.32; stroke-dashoffset: 0; stroke: #b0b0b0; stroke-width: 0.8"/>
     </g>
     <g id="line2d_161">
      <g>
       <use xlink:href="#m70993bc46f" x="57.6" y="105.33888" style="stroke: #000000; stroke-width: 0.5"/>
      </g>
     </g>
     <g id="line2d_162">
      <g>
       <use xlink:href="#m24b2272b51" x="414.72" y="105.33888" style="stroke: #000000; stroke-width: 0.5"/>
      </g>
     </g>
    </g>
    <g id="ytick_23">
     <g id="line2d_163">
      <path d="M 57.6 84.04992 
L 414.72 84.04992 
" clip-path="url(#pd9365a7f6e)" style="fill: none; stroke-dasharray: 0.8,1.32; stroke-dashoffset: 0; stroke: #b0b0b0; stroke-width: 0.8"/>
     </g>
     <g id="line2d_164">
      <g>
       <use xlink:href="#m70993bc46f" x="57.6" y="84.04992" style="stroke: #000000; stroke-width: 0.5"/>
      </g>
     </g>
     <g id="line2d_165">
      <g>
       <use xlink:href="#m24b2272b51" x="414.72" y="84.04992" style="stroke: #000000; stroke-width: 0.5"/>
      </g>
     </g>
    </g>
    <g id="ytick_24">
     <g id="line2d_166">
      <path d="M 57.6 73.40544 
L 414.72 73.40544 
" clip-path="url(#pd9365a7f6e)" style="fill: none; stroke-dasharray: 0.8,1.32; stroke-dashoffset: 0; stroke: #b0b0b0; stroke-width: 0.8"/>
     </g>
     <g id="line2d_167">
      <g>
       <use xlink:href="#m70993bc46f" x="57.6" y="73.40544" style="stroke: #000000; stroke-width: 0.5"/>
      </g>
     </g>
     <g id="line2d_168">
      <g>
       <use xlink:href="#m24b2272b51" x="414.72" y="73.40544" style="stroke: #000000; stroke-width: 0.5"/>
      </g>
     </g>
    </g>
    <g id="ytick_25">
     <g id="line2d_169">
      <path d="M 57.6 62.76096 
L 414.72 62.76096 
" clip-path="url(#pd9365a7f6e)" style="fill: none; stroke-dasharray: 0.8,1.32; stroke-dashoffset: 0; stroke: #b0b0b0; stroke-width: 0.8"/>
     </g>
     <g id="line2d_170">
      <g>
       <use xlink:href="#m70993bc46f" x="57.6" y="62.76096" style="stroke: #000000; stroke-width: 0.5"/>
      </g>
     </g>
     <g id="line2d_171">
      <g>
       <use xlink:href="#m24b2272b51" x="414.72" y="62.76096" style="stroke: #000000; stroke-width: 0.5"/>
      </g>
     </g>
    </g>
    <g id="ytick_26">
     <g id="line2d_172">
      <path d="M 57.6 41.472 
L 414.72 41.472 
" clip-path="url(#pd9365a7f6e)" style="fill: none; stroke-dasharray: 0.8,1.32; stroke-dashoffset: 0; stroke: #b0b0b0; stroke-width: 0.8"/>
     </g>
     <g id="line2d_173">
      <g>
       <use xlink:href="#m70993bc46f" x="57.6" y="41.472" style="stroke: #000000; stroke-width: 0.5"/>
      </g>
     </g>
     <g id="line2d_174">
      <g>
       <use xlink:href="#m24b2272b51" x="414.72" y="41.472" style="stroke: #000000; stroke-width: 0.5"/>
      </g>
     </g>
    </g>
    <g id="text_17">
     <!-- Spontaneous Magnetization, $\langle s \rangle$ -->
     <g transform="translate(28.596875 253.928) rotate(-90) scale(0.1 -0.1)">
      <defs>
       <path id="DejaVuSans-53" d="M 3425 4513 
L 3425 3897 
Q 3066 4069 2747 4153 
Q 2428 4238 2131 4238 
Q 1616 4238 1336 4038 
Q 1056 3838 1056 3469 
Q 1056 3159 1242 3001 
Q 1428 2844 1947 2747 
L 2328 2669 
Q 3034 2534 3370 2195 
Q 3706 1856 3706 1288 
Q 3706 609 3251 259 
Q 2797 -91 1919 -91 
Q 1588 -91 1214 -16 
Q 841 59 441 206 
L 441 856 
Q 825 641 1194 531 
Q 1563 422 1919 422 
Q 2459 422 2753 634 
Q 3047 847 3047 1241 
Q 3047 1584 2836 1778 
Q 2625 1972 2144 2069 
L 1759 2144 
Q 1053 2284 737 2584 
Q 422 2884 422 3419 
Q 422 4038 858 4394 
Q 1294 4750 2059 4750 
Q 2388 4750 2728 4690 
Q 3069 4631 3425 4513 
z
" transform="scale(0.015625)"/>
       <path id="DejaVuSans-6e" d="M 3513 2113 
L 3513 0 
L 2938 0 
L 2938 2094 
Q 2938 2591 2744 2837 
Q 2550 3084 2163 3084 
Q 1697 3084 1428 2787 
Q 1159 2491 1159 1978 
L 1159 0 
L 581 0 
L 581 3500 
L 1159 3500 
L 1159 2956 
Q 1366 3272 1645 3428 
Q 1925 3584 2291 3584 
Q 2894 3584 3203 3211 
Q 3513 2838 3513 2113 
z
" transform="scale(0.015625)"/>
       <path id="DejaVuSans-73" d="M 2834 3397 
L 2834 2853 
Q 2591 2978 2328 3040 
Q 2066 3103 1784 3103 
Q 1356 3103 1142 2972 
Q 928 2841 928 2578 
Q 928 2378 1081 2264 
Q 1234 2150 1697 2047 
L 1894 2003 
Q 2506 1872 2764 1633 
Q 3022 1394 3022 966 
Q 3022 478 2636 193 
Q 2250 -91 1575 -91 
Q 1294 -91 989 -36 
Q 684 19 347 128 
L 347 722 
Q 666 556 975 473 
Q 1284 391 1588 391 
Q 1994 391 2212 530 
Q 2431 669 2431 922 
Q 2431 1156 2273 1281 
Q 2116 1406 1581 1522 
L 1381 1569 
Q 847 1681 609 1914 
Q 372 2147 372 2553 
Q 372 3047 722 3315 
Q 1072 3584 1716 3584 
Q 2034 3584 2315 3537 
Q 2597 3491 2834 3397 
z
" transform="scale(0.015625)"/>
       <path id="DejaVuSans-4d" d="M 628 4666 
L 1569 4666 
L 2759 1491 
L 3956 4666 
L 4897 4666 
L 4897 0 
L 4281 0 
L 4281 4097 
L 3078 897 
L 2444 897 
L 1241 4097 
L 1241 0 
L 628 0 
L 628 4666 
z
" transform="scale(0.015625)"/>
       <path id="DejaVuSans-67" d="M 2906 1791 
Q 2906 2416 2648 2759 
Q 2391 3103 1925 3103 
Q 1463 3103 1205 2759 
Q 947 2416 947 1791 
Q 947 1169 1205 825 
Q 1463 481 1925 481 
Q 2391 481 2648 825 
Q 2906 1169 2906 1791 
z
M 3481 434 
Q 3481 -459 3084 -895 
Q 2688 -1331 1869 -1331 
Q 1566 -1331 1297 -1286 
Q 1028 -1241 775 -1147 
L 775 -588 
Q 1028 -725 1275 -790 
Q 1522 -856 1778 -856 
Q 2344 -856 2625 -561 
Q 2906 -266 2906 331 
L 2906 616 
Q 2728 306 2450 153 
Q 2172 0 1784 0 
Q 1141 0 747 490 
Q 353 981 353 1791 
Q 353 2603 747 3093 
Q 1141 3584 1784 3584 
Q 2172 3584 2450 3431 
Q 2728 3278 2906 2969 
L 2906 3500 
L 3481 3500 
L 3481 434 
z
" transform="scale(0.015625)"/>
       <path id="DejaVuSans-27e8" d="M 572 2006 
L 1453 4856 
L 1984 4856 
L 1103 2006 
L 1984 -844 
L 1453 -844 
L 572 2006 
z
" transform="scale(0.015625)"/>
       <path id="DejaVuSans-Oblique-73" d="M 3200 3397 
L 3091 2853 
Q 2863 2978 2609 3040 
Q 2356 3103 2088 3103 
Q 1634 3103 1373 2948 
Q 1113 2794 1113 2528 
Q 1113 2219 1719 2053 
Q 1766 2041 1788 2034 
L 1972 1978 
Q 2547 1819 2739 1644 
Q 2931 1469 2931 1166 
Q 2931 609 2489 259 
Q 2047 -91 1331 -91 
Q 1053 -91 747 -37 
Q 441 16 72 128 
L 184 722 
Q 500 559 806 475 
Q 1113 391 1394 391 
Q 1816 391 2080 572 
Q 2344 753 2344 1031 
Q 2344 1331 1650 1516 
L 1591 1531 
L 1394 1581 
Q 956 1697 753 1886 
Q 550 2075 550 2369 
Q 550 2928 970 3256 
Q 1391 3584 2113 3584 
Q 2397 3584 2667 3537 
Q 2938 3491 3200 3397 
z
" transform="scale(0.015625)"/>
       <path id="DejaVuSans-27e9" d="M 1925 2006 
L 1044 -844 
L 513 -844 
L 1394 2006 
L 513 4856 
L 1044 4856 
L 1925 2006 
z
" transform="scale(0.015625)"/>
      </defs>
      <use xlink:href="#DejaVuSans-53" transform="translate(0 0.015625)"/>
      <use xlink:href="#DejaVuSans-70" transform="translate(63.476562 0.015625)"/>
      <use xlink:href="#DejaVuSans-6f" transform="translate(126.953125 0.015625)"/>
      <use xlink:href="#DejaVuSans-6e" transform="translate(188.134766 0.015625)"/>
      <use xlink:href="#DejaVuSans-74" transform="translate(251.513672 0.015625)"/>
      <use xlink:href="#DejaVuSans-61" transform="translate(290.722656 0.015625)"/>
      <use xlink:href="#DejaVuSans-6e" transform="translate(352.001953 0.015625)"/>
      <use xlink:href="#DejaVuSans-65" transform="translate(415.380859 0.015625)"/>
      <use xlink:href="#DejaVuSans-6f" transform="translate(476.904297 0.015625)"/>
      <use xlink:href="#DejaVuSans-75" transform="translate(538.085938 0.015625)"/>
      <use xlink:href="#DejaVuSans-73" transform="translate(601.464844 0.015625)"/>
      <use xlink:href="#DejaVuSans-20" transform="translate(653.564453 0.015625)"/>
      <use xlink:href="#DejaVuSans-4d" transform="translate(685.351562 0.015625)"/>
      <use xlink:href="#DejaVuSans-61" transform="translate(771.630859 0.015625)"/>
      <use xlink:href="#DejaVuSans-67" transform="translate(832.910156 0.015625)"/>
      <use xlink:href="#DejaVuSans-6e" transform="translate(896.386719 0.015625)"/>
      <use xlink:href="#DejaVuSans-65" transform="translate(959.765625 0.015625)"/>
      <use xlink:href="#DejaVuSans-74" transform="translate(1021.289062 0.015625)"/>
      <use xlink:href="#DejaVuSans-69" transform="translate(1060.498047 0.015625)"/>
      <use xlink:href="#DejaVuSans-7a" transform="translate(1088.28125 0.015625)"/>
      <use xlink:href="#DejaVuSans-61" transform="translate(1140.771484 0.015625)"/>
      <use xlink:href="#DejaVuSans-74" transform="translate(1202.050781 0.015625)"/>
      <use xlink:href="#DejaVuSans-69" transform="translate(1241.259766 0.015625)"/>
      <use xlink:href="#DejaVuSans-6f" transform="translate(1269.042969 0.015625)"/>
      <use xlink:href="#DejaVuSans-6e" transform="translate(1330.224609 0.015625)"/>
      <use xlink:href="#DejaVuSans-2c" transform="translate(1393.603516 0.015625)"/>
      <use xlink:href="#DejaVuSans-20" transform="translate(1425.390625 0.015625)"/>
      <use xlink:href="#DejaVuSans-27e8" transform="translate(1457.177734 0.015625)"/>
      <use xlink:href="#DejaVuSans-Oblique-73" transform="translate(1496.191406 0.015625)"/>
      <use xlink:href="#DejaVuSans-27e9" transform="translate(1548.291016 0.015625)"/>
     </g>
    </g>
   </g>
   <g id="line2d_175">
    <path d="M 57.6 94.6944 
L 155.19744 94.804747 
L 171.224064 95.071618 
L 183.35232 95.488255 
L 193.531392 96.054387 
L 202.411008 96.76629 
L 210.207744 97.605873 
L 217.354752 98.594751 
L 223.852032 99.716559 
L 229.699584 100.946309 
L 235.113984 102.309344 
L 240.095232 103.792724 
L 244.643328 105.37826 
L 248.758272 107.041649 
L 252.65664 108.859499 
L 256.121856 110.714287 
L 259.370496 112.701104 
L 262.40256 114.819455 
L 265.218048 117.067097 
L 267.81696 119.439249 
L 270.199296 121.92744 
L 272.365056 124.517902 
L 274.31424 127.189321 
L 276.046848 129.909863 
L 277.82784 133.148993 
L 279.36 136.412815 
L 280.76544 139.936629 
L 282.03264 143.71889 
L 283.17312 147.826812 
L 284.1984 152.368055 
L 285.09696 157.3802 
L 285.8688 162.962921 
L 286.52544 169.38139 
L 287.05536 176.796148 
L 287.47008 185.864009 
L 287.75808 197.197209 
L 287.93088 213.181805 
L 287.97696 225.291259 
L 288 307.584 
L 288 307.584 
" clip-path="url(#pd9365a7f6e)" style="fill: none; stroke: #1f77b4; stroke-width: 1.5; stroke-linecap: square"/>
   </g>
   <g id="line2d_176">
    <path d="M 59.904 94.6944 
L 154.368 94.794032 
L 170.496 95.036726 
L 191.232 95.913406 
L 198.144 96.425618 
L 200.448 96.664906 
L 205.056 96.980409 
L 214.272 98.101485 
L 216.576 98.42082 
L 223.488 99.733923 
L 225.792 100.096686 
L 230.4 101.21904 
L 234.5472 102.158309 
L 235.9296 102.716932 
L 237.312 102.949407 
L 238.6944 103.437776 
L 240.0768 103.781805 
L 241.4592 104.365975 
L 244.224 105.171975 
L 245.6064 105.711011 
L 248.3712 107.121618 
L 249.7536 107.332804 
L 251.136 108.215018 
L 255.2832 110.296227 
L 256.6656 111.26232 
L 258.048 111.911208 
L 259.4304 113.060812 
L 260.8128 113.594739 
L 262.1952 115.062825 
L 263.5776 116.993734 
L 264.96 116.67738 
L 265.8816 118.575078 
L 266.3424 118.280439 
L 266.8032 120.210922 
L 267.264 120.632443 
L 267.7248 121.402252 
L 268.1856 120.847036 
L 268.6464 120.973918 
L 269.1072 121.74543 
L 269.568 122.734941 
L 270.0288 122.419864 
L 270.4896 124.681603 
L 270.9504 123.638018 
L 271.4112 123.596292 
L 271.872 125.088222 
L 272.3328 125.421608 
L 272.7936 127.000823 
L 273.7152 127.986501 
L 274.176 128.999004 
L 274.6368 129.406049 
L 275.0976 130.857956 
L 275.5584 133.030708 
L 276.0192 132.122095 
L 276.48 135.178764 
L 276.9408 137.42262 
L 277.8624 139.428466 
L 278.3232 137.448593 
L 278.784 144.317688 
L 279.2448 142.167503 
L 280.1664 146.147687 
L 280.6272 146.72845 
L 281.088 145.959919 
L 281.5488 147.199362 
L 282.0096 152.485411 
L 282.4704 159.646591 
L 282.9312 153.307165 
L 283.392 159.681931 
L 283.8528 158.995149 
L 284.3136 167.401308 
L 284.7744 165.437188 
L 285.2352 173.24683 
L 285.696 168.829371 
L 286.1568 175.645245 
L 286.6176 179.300559 
L 287.0784 189.047496 
L 287.5392 191.359052 
L 288 194.958589 
L 288.4608 206.437596 
L 288.9216 201.444058 
L 289.8432 218.794135 
L 290.304 218.769865 
L 290.7648 230.820694 
L 291.2256 230.932248 
L 291.6864 233.268073 
L 292.608 248.41389 
L 293.0688 242.997979 
L 293.5296 259.627211 
L 293.9904 263.515001 
L 294.4512 264.039135 
L 294.912 275.876223 
L 295.3728 276.39397 
L 295.8336 282.876033 
L 296.2944 283.449983 
L 296.7552 289.917569 
L 297.216 291.331156 
L 297.6768 291.840814 
L 298.1376 295.769053 
L 298.5984 289.943116 
L 299.0592 304.829634 
L 299.52 299.312813 
L 299.9808 301.705692 
L 300.4416 302.167663 
L 300.9024 301.345909 
L 301.3632 299.638109 
L 301.824 303.313009 
L 302.2848 300.659553 
L 302.7456 308.158376 
L 303.2064 304.326789 
L 303.6672 307.14119 
L 304.128 307.209314 
L 304.5888 306.70434 
L 305.0496 310.224257 
L 305.5104 309.921528 
L 305.9712 306.492302 
L 306.432 310.190194 
L 306.8928 307.735152 
L 307.3536 308.869002 
L 307.8144 306.31901 
L 308.2752 308.301438 
L 308.736 303.597004 
L 309.1968 308.923927 
L 309.6576 305.363561 
L 310.1184 308.842603 
L 310.5792 307.374517 
L 311.04 308.389148 
L 312.4224 306.546802 
L 313.8048 311.33256 
L 315.1872 307.613379 
L 316.5696 308.348699 
L 317.952 306.994722 
L 319.3344 306.897218 
L 320.7168 309.482975 
L 322.0992 308.211173 
L 323.4816 309.935579 
L 324.864 308.267376 
L 326.2464 310.121218 
L 327.6288 309.018876 
L 329.0112 307.27233 
L 330.3936 306.246202 
L 331.776 308.433855 
L 333.1584 310.03734 
L 334.5408 307.071362 
L 335.9232 308.257157 
L 337.3056 307.3792 
L 338.688 307.198244 
L 340.0704 307.212295 
L 341.4528 306.888277 
L 342.8352 308.680807 
L 344.2176 307.598051 
L 345.6 306.844847 
L 347.904 308.504109 
L 350.208 307.69896 
L 352.512 306.544673 
L 354.816 306.251737 
L 357.12 307.789226 
L 359.424 307.038577 
L 361.728 308.805135 
L 364.032 309.290949 
L 366.336 308.998439 
L 368.64 307.670007 
L 370.944 306.691567 
L 373.248 307.727913 
L 377.856 306.989186 
L 380.16 307.449028 
L 382.464 306.796308 
L 384.768 307.154389 
L 389.376 308.579046 
L 391.68 307.696831 
L 393.984 307.795612 
L 398.592 307.250615 
L 400.896 307.957408 
L 403.2 307.468614 
L 403.2 307.468614 
" clip-path="url(#pd9365a7f6e)" style="fill: none; stroke: #ff7f0e; stroke-width: 1.5; stroke-linecap: square"/>
   </g>
   <g id="line2d_177">
    <path d="M 59.904 97.441828 
L 122.112 97.516228 
L 126.72 97.538925 
L 138.24 97.537467 
L 142.848 97.671988 
L 145.152 97.602606 
L 152.064 97.896841 
L 154.368 97.750105 
L 158.976 97.993164 
L 161.28 98.299723 
L 165.888 98.23377 
L 172.8 98.36613 
L 175.104 98.701755 
L 179.712 98.981333 
L 186.624 99.514141 
L 188.928 99.892864 
L 191.232 99.929137 
L 193.536 100.294706 
L 195.84 100.354242 
L 200.448 100.955593 
L 202.752 101.398001 
L 205.056 101.404526 
L 207.36 102.11811 
L 209.664 102.429874 
L 211.968 102.981685 
L 216.576 103.642019 
L 218.88 104.049494 
L 221.184 104.971244 
L 223.488 106.032455 
L 225.792 106.09809 
L 228.096 106.884416 
L 230.4 108.160118 
L 231.7824 107.675313 
L 233.1648 109.324913 
L 235.9296 109.447949 
L 237.312 110.572561 
L 238.6944 110.658705 
L 240.0768 111.547493 
L 241.4592 112.647492 
L 242.8416 112.748067 
L 244.224 113.892004 
L 245.6064 114.053548 
L 246.9888 114.665779 
L 248.3712 116.915125 
L 251.136 117.328769 
L 252.5184 118.721964 
L 253.9008 119.16038 
L 255.2832 121.103568 
L 256.6656 122.268719 
L 258.048 122.959735 
L 259.4304 123.473099 
L 260.8128 125.669327 
L 262.1952 127.285049 
L 263.5776 130.821301 
L 264.96 130.549191 
L 265.4208 131.115574 
L 265.8816 133.537507 
L 266.3424 131.476486 
L 266.8032 135.792032 
L 267.264 134.907852 
L 267.7248 137.978504 
L 268.1856 135.461073 
L 268.6464 135.637818 
L 269.1072 137.908112 
L 269.568 137.806708 
L 270.0288 138.69434 
L 270.4896 141.321382 
L 270.9504 139.243512 
L 271.4112 139.223228 
L 271.872 141.23409 
L 272.3328 140.560538 
L 273.2544 144.114043 
L 273.7152 144.713051 
L 274.176 145.574205 
L 275.0976 149.425234 
L 275.5584 150.156763 
L 276.0192 149.794966 
L 276.48 152.33355 
L 276.9408 156.290225 
L 277.4016 158.63136 
L 277.8624 156.58138 
L 278.3232 155.231484 
L 278.784 160.366365 
L 279.2448 160.426371 
L 279.7056 162.426409 
L 280.1664 163.221086 
L 280.6272 166.737486 
L 281.088 165.044944 
L 281.5488 166.974912 
L 282.0096 170.728362 
L 282.4704 176.336442 
L 282.9312 171.922104 
L 283.392 175.490751 
L 283.8528 174.974551 
L 284.3136 182.950203 
L 284.7744 180.764384 
L 285.2352 187.52598 
L 285.696 185.194328 
L 286.1568 190.684548 
L 286.6176 191.177257 
L 287.0784 199.50855 
L 287.5392 202.526773 
L 288 201.999918 
L 288.4608 209.95921 
L 288.9216 208.669538 
L 289.3824 212.430486 
L 289.8432 220.844585 
L 290.304 220.240923 
L 290.7648 226.088666 
L 291.2256 227.141376 
L 291.6864 228.599503 
L 292.1472 236.017686 
L 292.608 239.689715 
L 293.0688 238.937465 
L 293.5296 246.503372 
L 293.9904 250.641792 
L 294.4512 248.44735 
L 295.8336 264.020558 
L 296.2944 263.360482 
L 296.7552 268.806371 
L 297.216 268.765883 
L 298.1376 274.970668 
L 298.5984 273.21001 
L 299.0592 282.963814 
L 299.52 281.432765 
L 299.9808 282.445149 
L 300.4416 284.835653 
L 300.9024 284.887866 
L 301.3632 287.25693 
L 301.824 289.006407 
L 302.2848 288.836942 
L 302.7456 293.154566 
L 303.2064 293.386734 
L 303.6672 292.790338 
L 305.0496 295.777446 
L 305.5104 294.713034 
L 305.9712 297.704169 
L 306.432 298.788131 
L 306.8928 298.441607 
L 307.3536 298.50375 
L 307.8144 299.084366 
L 308.2752 298.833393 
L 308.736 300.331768 
L 309.1968 300.485291 
L 309.6576 301.186977 
L 310.1184 300.993279 
L 310.5792 301.86047 
L 311.04 301.509177 
L 312.4224 301.655454 
L 313.8048 304.21819 
L 315.1872 303.184679 
L 316.5696 304.293855 
L 317.952 304.275234 
L 319.3344 304.144824 
L 320.7168 305.273819 
L 322.0992 305.153539 
L 324.864 305.36853 
L 326.2464 305.125644 
L 327.6288 306.450122 
L 329.0112 306.273524 
L 330.3936 305.403949 
L 331.776 306.190928 
L 333.1584 306.244769 
L 334.5408 306.442876 
L 335.9232 306.254721 
L 338.688 306.378522 
L 340.0704 306.534642 
L 341.4528 306.370424 
L 344.2176 306.98762 
L 345.6 306.754279 
L 347.904 306.627488 
L 350.208 306.961851 
L 354.816 306.809709 
L 357.12 307.135301 
L 361.728 306.991583 
L 364.032 307.121173 
L 375.552 307.131307 
L 377.856 307.363638 
L 389.376 307.24941 
L 393.984 307.385578 
L 396.288 307.233766 
L 398.592 307.243528 
L 400.896 307.492645 
L 403.2 307.339464 
L 403.2 307.339464 
" clip-path="url(#pd9365a7f6e)" style="fill: none; stroke: #2ca02c; stroke-width: 1.5; stroke-linecap: square"/>
   </g>
   <g id="patch_3">
    <path d="M 57.6 307.584 
L 57.6 41.472 
" style="fill: none; stroke: #000000; stroke-width: 0.8; stroke-linejoin: miter; stroke-linecap: square"/>
   </g>
   <g id="patch_4">
    <path d="M 414.72 307.584 
L 414.72 41.472 
" style="fill: none; stroke: #000000; stroke-width: 0.8; stroke-linejoin: miter; stroke-linecap: square"/>
   </g>
   <g id="patch_5">
    <path d="M 57.6 307.584 
L 414.72 307.584 
" style="fill: none; stroke: #000000; stroke-width: 0.8; stroke-linejoin: miter; stroke-linecap: square"/>
   </g>
   <g id="patch_6">
    <path d="M 57.6 41.472 
L 414.72 41.472 
" style="fill: none; stroke: #000000; stroke-width: 0.8; stroke-linejoin: miter; stroke-linecap: square"/>
   </g>
   <g id="legend_1">
    <g id="patch_7">
     <path d="M 282.437187 93.506375 
L 407.72 93.506375 
Q 409.72 93.506375 409.72 91.506375 
L 409.72 48.472 
Q 409.72 46.472 407.72 46.472 
L 282.437187 46.472 
Q 280.437187 46.472 280.437187 48.472 
L 280.437187 91.506375 
Q 280.437187 93.506375 282.437187 93.506375 
z
" style="fill: #ffffff; opacity: 0.8; stroke: #cccccc; stroke-linejoin: miter"/>
    </g>
    <g id="line2d_178">
     <path d="M 284.437187 54.570438 
L 294.437187 54.570438 
L 304.437187 54.570438 
" style="fill: none; stroke: #1f77b4; stroke-width: 1.5; stroke-linecap: square"/>
    </g>
    <g id="text_18">
     <!-- Exact Solution -->
     <g transform="translate(312.437187 58.070438) scale(0.1 -0.1)">
      <defs>
       <path id="DejaVuSans-45" d="M 628 4666 
L 3578 4666 
L 3578 4134 
L 1259 4134 
L 1259 2753 
L 3481 2753 
L 3481 2222 
L 1259 2222 
L 1259 531 
L 3634 531 
L 3634 0 
L 628 0 
L 628 4666 
z
" transform="scale(0.015625)"/>
       <path id="DejaVuSans-78" d="M 3513 3500 
L 2247 1797 
L 3578 0 
L 2900 0 
L 1881 1375 
L 863 0 
L 184 0 
L 1544 1831 
L 300 3500 
L 978 3500 
L 1906 2253 
L 2834 3500 
L 3513 3500 
z
" transform="scale(0.015625)"/>
       <path id="DejaVuSans-63" d="M 3122 3366 
L 3122 2828 
Q 2878 2963 2633 3030 
Q 2388 3097 2138 3097 
Q 1578 3097 1268 2742 
Q 959 2388 959 1747 
Q 959 1106 1268 751 
Q 1578 397 2138 397 
Q 2388 397 2633 464 
Q 2878 531 3122 666 
L 3122 134 
Q 2881 22 2623 -34 
Q 2366 -91 2075 -91 
Q 1284 -91 818 406 
Q 353 903 353 1747 
Q 353 2603 823 3093 
Q 1294 3584 2113 3584 
Q 2378 3584 2631 3529 
Q 2884 3475 3122 3366 
z
" transform="scale(0.015625)"/>
      </defs>
      <use xlink:href="#DejaVuSans-45"/>
      <use xlink:href="#DejaVuSans-78" x="63.183594"/>
      <use xlink:href="#DejaVuSans-61" x="122.363281"/>
      <use xlink:href="#DejaVuSans-63" x="183.642578"/>
      <use xlink:href="#DejaVuSans-74" x="238.623047"/>
      <use xlink:href="#DejaVuSans-20" x="277.832031"/>
      <use xlink:href="#DejaVuSans-53" x="309.619141"/>
      <use xlink:href="#DejaVuSans-6f" x="373.095703"/>
      <use xlink:href="#DejaVuSans-6c" x="434.277344"/>
      <use xlink:href="#DejaVuSans-75" x="462.060547"/>
      <use xlink:href="#DejaVuSans-74" x="525.439453"/>
      <use xlink:href="#DejaVuSans-69" x="564.648438"/>
      <use xlink:href="#DejaVuSans-6f" x="592.431641"/>
      <use xlink:href="#DejaVuSans-6e" x="653.613281"/>
     </g>
    </g>
    <g id="line2d_179">
     <path d="M 284.437187 69.248563 
L 294.437187 69.248563 
L 304.437187 69.248563 
" style="fill: none; stroke: #ff7f0e; stroke-width: 1.5; stroke-linecap: square"/>
    </g>
    <g id="text_19">
     <!-- Final State -->
     <g transform="translate(312.437187 72.748563) scale(0.1 -0.1)">
      <defs>
       <path id="DejaVuSans-46" d="M 628 4666 
L 3309 4666 
L 3309 4134 
L 1259 4134 
L 1259 2759 
L 3109 2759 
L 3109 2228 
L 1259 2228 
L 1259 0 
L 628 0 
L 628 4666 
z
" transform="scale(0.015625)"/>
      </defs>
      <use xlink:href="#DejaVuSans-46"/>
      <use xlink:href="#DejaVuSans-69" x="50.269531"/>
      <use xlink:href="#DejaVuSans-6e" x="78.052734"/>
      <use xlink:href="#DejaVuSans-61" x="141.431641"/>
      <use xlink:href="#DejaVuSans-6c" x="202.710938"/>
      <use xlink:href="#DejaVuSans-20" x="230.494141"/>
      <use xlink:href="#DejaVuSans-53" x="262.28125"/>
      <use xlink:href="#DejaVuSans-74" x="325.757812"/>
      <use xlink:href="#DejaVuSans-61" x="364.966797"/>
      <use xlink:href="#DejaVuSans-74" x="426.246094"/>
      <use xlink:href="#DejaVuSans-65" x="465.455078"/>
     </g>
    </g>
    <g id="line2d_180">
     <path d="M 284.437187 83.926688 
L 294.437187 83.926688 
L 304.437187 83.926688 
" style="fill: none; stroke: #2ca02c; stroke-width: 1.5; stroke-linecap: square"/>
    </g>
    <g id="text_20">
     <!-- Ensemble Average -->
     <g transform="translate(312.437187 87.426688) scale(0.1 -0.1)">
      <defs>
       <path id="DejaVuSans-62" d="M 3116 1747 
Q 3116 2381 2855 2742 
Q 2594 3103 2138 3103 
Q 1681 3103 1420 2742 
Q 1159 2381 1159 1747 
Q 1159 1113 1420 752 
Q 1681 391 2138 391 
Q 2594 391 2855 752 
Q 3116 1113 3116 1747 
z
M 1159 2969 
Q 1341 3281 1617 3432 
Q 1894 3584 2278 3584 
Q 2916 3584 3314 3078 
Q 3713 2572 3713 1747 
Q 3713 922 3314 415 
Q 2916 -91 2278 -91 
Q 1894 -91 1617 61 
Q 1341 213 1159 525 
L 1159 0 
L 581 0 
L 581 4863 
L 1159 4863 
L 1159 2969 
z
" transform="scale(0.015625)"/>
       <path id="DejaVuSans-41" d="M 2188 4044 
L 1331 1722 
L 3047 1722 
L 2188 4044 
z
M 1831 4666 
L 2547 4666 
L 4325 0 
L 3669 0 
L 3244 1197 
L 1141 1197 
L 716 0 
L 50 0 
L 1831 4666 
z
" transform="scale(0.015625)"/>
       <path id="DejaVuSans-76" d="M 191 3500 
L 800 3500 
L 1894 563 
L 2988 3500 
L 3597 3500 
L 2284 0 
L 1503 0 
L 191 3500 
z
" transform="scale(0.015625)"/>
      </defs>
      <use xlink:href="#DejaVuSans-45"/>
      <use xlink:href="#DejaVuSans-6e" x="63.183594"/>
      <use xlink:href="#DejaVuSans-73" x="126.5625"/>
      <use xlink:href="#DejaVuSans-65" x="178.662109"/>
      <use xlink:href="#DejaVuSans-6d" x="240.185547"/>
      <use xlink:href="#DejaVuSans-62" x="337.597656"/>
      <use xlink:href="#DejaVuSans-6c" x="401.074219"/>
      <use xlink:href="#DejaVuSans-65" x="428.857422"/>
      <use xlink:href="#DejaVuSans-20" x="490.380859"/>
      <use xlink:href="#DejaVuSans-41" x="522.167969"/>
      <use xlink:href="#DejaVuSans-76" x="584.701172"/>
      <use xlink:href="#DejaVuSans-65" x="643.880859"/>
      <use xlink:href="#DejaVuSans-72" x="705.404297"/>
      <use xlink:href="#DejaVuSans-61" x="746.517578"/>
      <use xlink:href="#DejaVuSans-67" x="807.796875"/>
      <use xlink:href="#DejaVuSans-65" x="871.273438"/>
     </g>
    </g>
   </g>
  </g>
 </g>
 <defs>
  <clipPath id="pd9365a7f6e">
   <rect x="57.6" y="41.472" width="357.12" height="266.112"/>
  </clipPath>
 </defs>
</svg>
